<?xml version="1.0" encoding="UTF-8"?>
<svg xmlns="http://www.w3.org/2000/svg" width="1000" height="638" viewBox="0 0 1000 638" role="img" aria-labelledby="title desc">
  <title id="title">ProxMenux growth for MacRimi/ProxMenux</title>
  <desc id="desc">Repository growth dashboard showing stars, forks over time.</desc>
  <defs>
    <linearGradient id="background" x1="0" y1="0" x2="1" y2="1">
      <stop offset="0" stop-color="#fafafa"/><stop offset="1" stop-color="#f4f4f5"/>
    </linearGradient>
    <linearGradient id="fill-stars" x1="0" y1="0" x2="0" y2="1"><stop offset="0" stop-color="#8b5cf6" stop-opacity=".24"/><stop offset="1" stop-color="#8b5cf6" stop-opacity="0"/></linearGradient><linearGradient id="fill-forks" x1="0" y1="0" x2="0" y2="1"><stop offset="0" stop-color="#06b6d4" stop-opacity=".24"/><stop offset="1" stop-color="#06b6d4" stop-opacity="0"/></linearGradient>
    <filter id="shadow" x="-10%" y="-10%" width="120%" height="130%"><feDropShadow dx="0" dy="8" stdDeviation="14" flood-color="#18181b" flood-opacity=".08"/></filter>
    <style>
      :root { color-scheme: light dark; }
      .bg { fill: url(#background); }
      .surface { fill: #ffffff; stroke: #e4e4e7; }
      .panel { fill: #ffffff; stroke: #e4e4e7; }
      .primary { fill: #18181b; }
      .secondary { fill: #71717a; }
      .grid { stroke: #e4e4e7; }
      text { font-family: Inter, ui-sans-serif, system-ui, -apple-system, BlinkMacSystemFont, "Segoe UI", sans-serif; }
      @media (prefers-color-scheme: dark) {
        .bg { fill: #09090b; }
        .surface, .panel { fill: #111113; stroke: #27272a; }
        .primary { fill: #fafafa; }
        .secondary { fill: #a1a1aa; }
        .grid { stroke: #27272a; }
      }
    </style>
  </defs>
  <rect class="bg" width="1000" height="638" rx="28"/>
  <g transform="translate(42 38)">
    <rect x="0" y="0" width="916" height="562" rx="22" class="surface" filter="url(#shadow)"/>
    <text x="30" y="45" class="primary" font-size="26" font-weight="750" letter-spacing="-.5">ProxMenux growth</text>
    <text x="30" y="70" class="secondary" font-size="14">MacRimi/ProxMenux · Jan 15, 2025 – Jul 23, 2026</text>
    <g transform="translate(740 25)"><rect width="146" height="30" rx="15" fill="#8b5cf6" fill-opacity=".12"/><circle cx="17" cy="15" r="4" fill="#8b5cf6"/><text x="30" y="20" fill="#8b5cf6" font-size="11" font-weight="700" letter-spacing="1">LOCAL HISTORY</text></g>
    <g transform="translate(30 92)">
    <rect width="418" height="86" rx="16" class="panel"/>
    <rect x="16" y="17" width="6" height="52" rx="3" fill="#8b5cf6"/>
    <text x="38" y="34" class="secondary" font-size="12" font-weight="650" letter-spacing=".3">STARS</text>
    <text x="38" y="64" class="primary" font-size="27" font-weight="760" letter-spacing="-.5">2,813</text>
    <text x="392" y="63" text-anchor="end" fill="#8b5cf6" font-size="11" font-weight="650">+2,812 tracked</text>
  </g><g transform="translate(468 92)">
    <rect width="418" height="86" rx="16" class="panel"/>
    <rect x="16" y="17" width="6" height="52" rx="3" fill="#06b6d4"/>
    <text x="38" y="34" class="secondary" font-size="12" font-weight="650" letter-spacing=".3">FORKS</text>
    <text x="38" y="64" class="primary" font-size="27" font-weight="760" letter-spacing="-.5">149</text>
    <text x="392" y="63" text-anchor="end" fill="#06b6d4" font-size="11" font-weight="650">+149 tracked</text>
  </g>
    <g transform="translate(30 197)">
    <rect width="856" height="150" rx="16" class="panel"/>
    <circle cx="20" cy="27" r="5" fill="#8b5cf6"/>
    <text x="34" y="31" class="primary" font-size="14" font-weight="700">Stars</text>
    <text x="20" y="62" class="primary" font-size="20" font-weight="750">2,813</text>
    <text x="20" y="83" class="secondary" font-size="11">range 1–2,813</text>
    <line x1="220" x2="836" y1="20" y2="20" class="grid" stroke-width="1" stroke-dasharray="3 6"/><text x="210" y="24" text-anchor="end" class="secondary" font-size="9">2,813</text><line x1="220" x2="836" y1="70" y2="70" class="grid" stroke-width="1" stroke-dasharray="3 6"/><text x="210" y="74" text-anchor="end" class="secondary" font-size="9">1,407</text><line x1="220" x2="836" y1="120" y2="120" class="grid" stroke-width="1" stroke-dasharray="3 6"/><text x="210" y="124" text-anchor="end" class="secondary" font-size="9">1</text>
    <path d="M220 120 L277.8 119.9 L286.7 119.9 L294.5 119.9 L295.6 119.8 L300.1 119.8 L301.2 119.8 L304.5 119.7 L311.2 119.7 L336.8 119.5 L337.9 119.5 L344.5 119.4 L346.8 119.4 L347.9 119.3 L349 119.3 L350.1 118.7 L351.2 117.9 L352.3 117.9 L353.4 117.8 L354.5 117.7 L355.7 117.6 L357.9 117.5 L359 117.4 L360.1 117.3 L361.2 117.3 L362.3 116.8 L363.4 116 L364.5 115.6 L365.7 115.4 L366.8 115.3 L367.9 115.3 L369 115.1 L373.4 115.1 L374.6 114.9 L375.7 114.8 L377.9 114.7 L379 114.7 L381.2 114.6 L382.3 114.5 L383.5 114.5 L385.7 114.4 L387.9 114.3 L389 114.2 L392.3 111.4 L393.5 109.1 L394.6 108.1 L395.7 106.7 L396.8 105.6 L397.9 104.7 L399 103.9 L400.1 103.3 L401.2 103 L402.4 102.7 L403.5 102.4 L404.6 102.2 L405.7 102 L406.8 101.7 L407.9 101.5 L409 101 L410.1 100.7 L411.2 100.3 L412.4 99.9 L413.5 99.6 L414.6 99.5 L415.7 99.3 L416.8 99.1 L417.9 98.8 L419 98.6 L421.3 98.4 L422.4 98.2 L423.5 98.1 L424.6 98 L425.7 97.9 L426.8 97.8 L427.9 97.7 L429 97.5 L430.2 97.3 L431.3 97.1 L432.4 96.8 L433.5 96.7 L434.6 96.7 L435.7 96.5 L436.8 96.4 L437.9 96.2 L439 96.1 L440.2 96 L441.3 95.9 L442.4 95.8 L443.5 95.6 L444.6 95.5 L445.7 95.4 L446.8 95.3 L447.9 95.3 L449.1 95.1 L450.2 94.8 L451.3 94.5 L452.4 94.4 L453.5 94.1 L454.6 94 L455.7 93.8 L457.9 93.6 L459.1 93.4 L460.2 93.3 L461.3 93.2 L462.4 93 L463.5 92.8 L464.6 92.7 L465.7 92.7 L466.8 92.6 L468 92.5 L469.1 92.5 L470.2 92.4 L471.3 92.2 L472.4 92 L473.5 92 L474.6 91.9 L475.7 91.8 L479.1 91.6 L480.2 91.6 L481.3 91.4 L482.4 91.3 L484.6 91.2 L485.7 90.9 L486.9 90.8 L488 90.6 L489.1 90.3 L490.2 90.1 L491.3 90 L492.4 90 L493.5 89.8 L494.6 89.7 L495.8 89.5 L496.9 89.3 L498 89.2 L499.1 89.1 L500.2 88.7 L501.3 88.6 L502.4 88.5 L503.5 88.2 L504.6 87.9 L505.8 87.5 L506.9 87.4 L508 87.1 L509.1 87 L511.3 86.8 L512.4 86.7 L513.5 86.6 L514.7 86.4 L515.8 86.1 L516.9 85.9 L519.1 85.6 L521.3 85.4 L522.4 85.3 L523.6 85.1 L524.7 85 L525.8 84.9 L526.9 84.8 L528 84.7 L529.1 84.5 L530.2 84.5 L531.3 84.4 L532.4 84.2 L533.6 84.1 L534.7 84 L535.8 83.9 L536.9 83.6 L538 83.5 L539.1 83.3 L540.2 83.1 L541.3 82.7 L542.5 82.3 L543.6 81.5 L544.7 80.7 L545.8 80.2 L546.9 79.7 L548 79.3 L549.1 78.2 L550.2 75.4 L551.4 73.6 L552.5 72.5 L553.6 72.2 L554.7 71.7 L555.8 71.2 L556.9 69.9 L558 68.5 L559.1 67.4 L560.2 67 L561.4 66.1 L562.5 65.6 L563.6 65.1 L564.7 64.6 L565.8 64 L566.9 63.6 L568 62.7 L569.1 62.5 L570.3 61.6 L571.4 61.5 L572.5 61.3 L573.6 61 L574.7 60.5 L575.8 60.1 L576.9 59.9 L578 59.7 L579.1 59.3 L580.3 58.9 L581.4 58.5 L582.5 56.5 L583.6 55.6 L584.7 55 L585.8 54.5 L586.9 54.1 L588 53.7 L589.2 53.4 L590.3 53 L591.4 52.7 L592.5 52.5 L593.6 52.4 L594.7 52.2 L595.8 51.9 L596.9 51.7 L598.1 51.2 L599.2 51.1 L600.3 50.9 L601.4 50.7 L602.5 50.5 L603.6 50.2 L604.7 50 L605.8 49.4 L606.9 49.2 L608.1 48.9 L609.2 48.8 L610.3 48.6 L611.4 48.3 L612.5 48.2 L613.6 48 L614.7 47.7 L615.8 47.5 L617 47.3 L618.1 47.1 L619.2 46.9 L620.3 46.7 L621.4 46.7 L622.5 46.4 L623.6 46.1 L624.7 46 L625.8 45.9 L627 45.2 L628.1 44.8 L629.2 44.5 L630.3 44.4 L631.4 44.1 L632.5 44 L633.6 43.8 L634.7 43.5 L635.9 43.4 L637 43.3 L638.1 43.2 L639.2 43 L640.3 42.5 L641.4 42.3 L642.5 42 L643.6 41.7 L644.8 41.6 L645.9 41.2 L647 41 L648.1 40.9 L649.2 40.8 L650.3 40.7 L651.4 40.5 L652.5 40.4 L653.6 40.3 L654.8 40.1 L655.9 38.6 L657 38 L658.1 37.4 L659.2 37 L660.3 36.8 L661.4 36.4 L662.5 35.9 L663.7 35.6 L664.8 35.3 L665.9 35 L667 35 L668.1 34.6 L669.2 34.4 L670.3 34.2 L671.4 34.1 L672.5 33.9 L673.7 33.7 L674.8 33.4 L675.9 33.2 L677 33.1 L678.1 32.9 L679.2 32.7 L680.3 32.6 L681.4 32.6 L682.6 32.4 L683.7 32.4 L684.8 32.3 L685.9 32.2 L687 32.2 L688.1 32.1 L689.2 32 L690.3 31.9 L691.5 31.8 L692.6 31.7 L693.7 31.5 L694.8 31.4 L695.9 31.3 L697 31.2 L698.1 30.9 L699.2 30.8 L700.3 30.5 L701.5 30.5 L702.6 30.2 L703.7 30.1 L704.8 30 L705.9 29.9 L707 29.8 L708.1 29.6 L709.2 29.5 L710.4 29.4 L711.5 29.2 L712.6 29.1 L713.7 29.1 L714.8 29 L715.9 28.9 L717 28.8 L720.4 28.7 L721.5 28.6 L723.7 28.5 L724.8 28.4 L727 28.4 L728.1 28.3 L729.3 28 L730.4 27.9 L731.5 27.8 L732.6 27.6 L733.7 27.5 L734.8 27.3 L735.9 27.3 L737 27.2 L739.3 27.1 L740.4 27.1 L741.5 27 L742.6 27 L743.7 26.9 L744.8 26.9 L745.9 26.8 L747 26.7 L749.3 26.6 L750.4 26.5 L751.5 26.4 L752.6 26.3 L753.7 26.1 L755.9 26.1 L757.1 26 L758.2 25.8 L759.3 25.7 L760.4 25.6 L761.5 25.5 L762.6 25.4 L763.7 25.3 L764.8 25.3 L765.9 25.1 L767.1 24.9 L768.2 24.8 L769.3 24.7 L770.4 24.7 L771.5 24.5 L772.6 24.4 L773.7 24.4 L774.8 24.3 L776 24.2 L777.1 24.2 L778.2 24.1 L779.3 23.9 L780.4 23.8 L781.5 23.7 L782.6 23.7 L783.7 23.6 L784.9 23.6 L786 23.5 L787.1 23.4 L788.2 23.3 L789.3 23.3 L790.4 23.2 L791.5 23.2 L792.6 23.1 L793.7 23 L794.9 23 L797.1 22.9 L798.2 22.8 L799.3 22.8 L800.4 22.7 L801.5 22.7 L802.6 22.6 L803.8 22.5 L804.9 22.4 L807.1 22.3 L809.3 22.2 L810.4 22.2 L811.5 22 L813.8 22 L814.9 21.9 L816 21.8 L817.1 21.7 L818.2 21.7 L820.4 21.5 L821.5 21.5 L824.9 21.4 L826 21.2 L827.1 21.2 L828.2 21.1 L829.3 21.1 L830.4 21 L831.6 21 L832.7 20.6 L833.8 20.1 L834.9 20 L836 20 L836 120 L220 120 Z" fill="url(#fill-stars)"/>
    <path d="M220 120 L277.8 119.9 L286.7 119.9 L294.5 119.9 L295.6 119.8 L300.1 119.8 L301.2 119.8 L304.5 119.7 L311.2 119.7 L336.8 119.5 L337.9 119.5 L344.5 119.4 L346.8 119.4 L347.9 119.3 L349 119.3 L350.1 118.7 L351.2 117.9 L352.3 117.9 L353.4 117.8 L354.5 117.7 L355.7 117.6 L357.9 117.5 L359 117.4 L360.1 117.3 L361.2 117.3 L362.3 116.8 L363.4 116 L364.5 115.6 L365.7 115.4 L366.8 115.3 L367.9 115.3 L369 115.1 L373.4 115.1 L374.6 114.9 L375.7 114.8 L377.9 114.7 L379 114.7 L381.2 114.6 L382.3 114.5 L383.5 114.5 L385.7 114.4 L387.9 114.3 L389 114.2 L392.3 111.4 L393.5 109.1 L394.6 108.1 L395.7 106.7 L396.8 105.6 L397.9 104.7 L399 103.9 L400.1 103.3 L401.2 103 L402.4 102.7 L403.5 102.4 L404.6 102.2 L405.7 102 L406.8 101.7 L407.9 101.5 L409 101 L410.1 100.7 L411.2 100.3 L412.4 99.9 L413.5 99.6 L414.6 99.5 L415.7 99.3 L416.8 99.1 L417.9 98.8 L419 98.6 L421.3 98.4 L422.4 98.2 L423.5 98.1 L424.6 98 L425.7 97.9 L426.8 97.8 L427.9 97.7 L429 97.5 L430.2 97.3 L431.3 97.1 L432.4 96.8 L433.5 96.7 L434.6 96.7 L435.7 96.5 L436.8 96.4 L437.9 96.2 L439 96.1 L440.2 96 L441.3 95.9 L442.4 95.8 L443.5 95.6 L444.6 95.5 L445.7 95.4 L446.8 95.3 L447.9 95.3 L449.1 95.1 L450.2 94.8 L451.3 94.5 L452.4 94.4 L453.5 94.1 L454.6 94 L455.7 93.8 L457.9 93.6 L459.1 93.4 L460.2 93.3 L461.3 93.2 L462.4 93 L463.5 92.8 L464.6 92.7 L465.7 92.7 L466.8 92.6 L468 92.5 L469.1 92.5 L470.2 92.4 L471.3 92.2 L472.4 92 L473.5 92 L474.6 91.9 L475.7 91.8 L479.1 91.6 L480.2 91.6 L481.3 91.4 L482.4 91.3 L484.6 91.2 L485.7 90.9 L486.9 90.8 L488 90.6 L489.1 90.3 L490.2 90.1 L491.3 90 L492.4 90 L493.5 89.8 L494.6 89.7 L495.8 89.5 L496.9 89.3 L498 89.2 L499.1 89.1 L500.2 88.7 L501.3 88.6 L502.4 88.5 L503.5 88.2 L504.6 87.9 L505.8 87.5 L506.9 87.4 L508 87.1 L509.1 87 L511.3 86.8 L512.4 86.7 L513.5 86.6 L514.7 86.4 L515.8 86.1 L516.9 85.9 L519.1 85.6 L521.3 85.4 L522.4 85.3 L523.6 85.1 L524.7 85 L525.8 84.9 L526.9 84.8 L528 84.7 L529.1 84.5 L530.2 84.5 L531.3 84.4 L532.4 84.2 L533.6 84.1 L534.7 84 L535.8 83.9 L536.9 83.6 L538 83.5 L539.1 83.3 L540.2 83.1 L541.3 82.7 L542.5 82.3 L543.6 81.5 L544.7 80.7 L545.8 80.2 L546.9 79.7 L548 79.3 L549.1 78.2 L550.2 75.4 L551.4 73.6 L552.5 72.5 L553.6 72.2 L554.7 71.7 L555.8 71.2 L556.9 69.9 L558 68.5 L559.1 67.4 L560.2 67 L561.4 66.1 L562.5 65.6 L563.6 65.1 L564.7 64.6 L565.8 64 L566.9 63.6 L568 62.7 L569.1 62.5 L570.3 61.6 L571.4 61.5 L572.5 61.3 L573.6 61 L574.7 60.5 L575.8 60.1 L576.9 59.9 L578 59.7 L579.1 59.3 L580.3 58.9 L581.4 58.5 L582.5 56.5 L583.6 55.6 L584.7 55 L585.8 54.5 L586.9 54.1 L588 53.7 L589.2 53.4 L590.3 53 L591.4 52.7 L592.5 52.5 L593.6 52.4 L594.7 52.2 L595.8 51.9 L596.9 51.7 L598.1 51.2 L599.2 51.1 L600.3 50.9 L601.4 50.7 L602.5 50.5 L603.6 50.2 L604.7 50 L605.8 49.4 L606.9 49.2 L608.1 48.9 L609.2 48.8 L610.3 48.6 L611.4 48.3 L612.5 48.2 L613.6 48 L614.7 47.7 L615.8 47.5 L617 47.3 L618.1 47.1 L619.2 46.9 L620.3 46.7 L621.4 46.7 L622.5 46.4 L623.6 46.1 L624.7 46 L625.8 45.9 L627 45.2 L628.1 44.8 L629.2 44.5 L630.3 44.4 L631.4 44.1 L632.5 44 L633.6 43.8 L634.7 43.5 L635.9 43.4 L637 43.3 L638.1 43.2 L639.2 43 L640.3 42.5 L641.4 42.3 L642.5 42 L643.6 41.7 L644.8 41.6 L645.9 41.2 L647 41 L648.1 40.9 L649.2 40.8 L650.3 40.7 L651.4 40.5 L652.5 40.4 L653.6 40.3 L654.8 40.1 L655.9 38.6 L657 38 L658.1 37.4 L659.2 37 L660.3 36.8 L661.4 36.4 L662.5 35.9 L663.7 35.6 L664.8 35.3 L665.9 35 L667 35 L668.1 34.6 L669.2 34.4 L670.3 34.2 L671.4 34.1 L672.5 33.9 L673.7 33.7 L674.8 33.4 L675.9 33.2 L677 33.1 L678.1 32.9 L679.2 32.7 L680.3 32.6 L681.4 32.6 L682.6 32.4 L683.7 32.4 L684.8 32.3 L685.9 32.2 L687 32.2 L688.1 32.1 L689.2 32 L690.3 31.9 L691.5 31.8 L692.6 31.7 L693.7 31.5 L694.8 31.4 L695.9 31.3 L697 31.2 L698.1 30.9 L699.2 30.8 L700.3 30.5 L701.5 30.5 L702.6 30.2 L703.7 30.1 L704.8 30 L705.9 29.9 L707 29.8 L708.1 29.6 L709.2 29.5 L710.4 29.4 L711.5 29.2 L712.6 29.1 L713.7 29.1 L714.8 29 L715.9 28.9 L717 28.8 L720.4 28.7 L721.5 28.6 L723.7 28.5 L724.8 28.4 L727 28.4 L728.1 28.3 L729.3 28 L730.4 27.9 L731.5 27.8 L732.6 27.6 L733.7 27.5 L734.8 27.3 L735.9 27.3 L737 27.2 L739.3 27.1 L740.4 27.1 L741.5 27 L742.6 27 L743.7 26.9 L744.8 26.9 L745.9 26.8 L747 26.7 L749.3 26.6 L750.4 26.5 L751.5 26.4 L752.6 26.3 L753.7 26.1 L755.9 26.1 L757.1 26 L758.2 25.8 L759.3 25.7 L760.4 25.6 L761.5 25.5 L762.6 25.4 L763.7 25.3 L764.8 25.3 L765.9 25.1 L767.1 24.9 L768.2 24.8 L769.3 24.7 L770.4 24.7 L771.5 24.5 L772.6 24.4 L773.7 24.4 L774.8 24.3 L776 24.2 L777.1 24.2 L778.2 24.1 L779.3 23.9 L780.4 23.8 L781.5 23.7 L782.6 23.7 L783.7 23.6 L784.9 23.6 L786 23.5 L787.1 23.4 L788.2 23.3 L789.3 23.3 L790.4 23.2 L791.5 23.2 L792.6 23.1 L793.7 23 L794.9 23 L797.1 22.9 L798.2 22.8 L799.3 22.8 L800.4 22.7 L801.5 22.7 L802.6 22.6 L803.8 22.5 L804.9 22.4 L807.1 22.3 L809.3 22.2 L810.4 22.2 L811.5 22 L813.8 22 L814.9 21.9 L816 21.8 L817.1 21.7 L818.2 21.7 L820.4 21.5 L821.5 21.5 L824.9 21.4 L826 21.2 L827.1 21.2 L828.2 21.1 L829.3 21.1 L830.4 21 L831.6 21 L832.7 20.6 L833.8 20.1 L834.9 20 L836 20" fill="none" stroke="#8b5cf6" stroke-width="3" stroke-linecap="round" stroke-linejoin="round"/>
    <circle cx="836" cy="20" r="5" fill="#8b5cf6" stroke="#fff" stroke-width="2"/>
    <text x="220" y="143" text-anchor="start" class="secondary" font-size="9">Jan 15, 2025</text><text x="528" y="143" text-anchor="middle" class="secondary" font-size="9">Oct 19, 2025</text><text x="836" y="143" text-anchor="end" class="secondary" font-size="9">Jul 23, 2026</text>
  </g><g transform="translate(30 363)">
    <rect width="856" height="150" rx="16" class="panel"/>
    <circle cx="20" cy="27" r="5" fill="#06b6d4"/>
    <text x="34" y="31" class="primary" font-size="14" font-weight="700">Forks</text>
    <text x="20" y="62" class="primary" font-size="20" font-weight="750">149</text>
    <text x="20" y="83" class="secondary" font-size="11">range 0–149</text>
    <line x1="220" x2="836" y1="20" y2="20" class="grid" stroke-width="1" stroke-dasharray="3 6"/><text x="210" y="24" text-anchor="end" class="secondary" font-size="9">149</text><line x1="220" x2="836" y1="70" y2="70" class="grid" stroke-width="1" stroke-dasharray="3 6"/><text x="210" y="74" text-anchor="end" class="secondary" font-size="9">75</text><line x1="220" x2="836" y1="120" y2="120" class="grid" stroke-width="1" stroke-dasharray="3 6"/><text x="210" y="124" text-anchor="end" class="secondary" font-size="9">0</text>
    <path d="M220 120 L277.8 120 L286.7 120 L294.5 120 L295.6 120 L300.1 120 L301.2 120 L304.5 120 L311.2 120 L336.8 120 L337.9 119.3 L344.5 119.3 L346.8 119.3 L347.9 119.3 L349 119.3 L350.1 119.3 L351.2 119.3 L352.3 119.3 L353.4 118.7 L354.5 118.7 L355.7 118.7 L357.9 118.7 L359 118.7 L360.1 118 L361.2 117.3 L362.3 117.3 L363.4 116.6 L364.5 116.6 L365.7 116.6 L366.8 116.6 L367.9 116.6 L369 116.6 L373.4 116.6 L374.6 116.6 L375.7 116.6 L377.9 116.6 L379 116.6 L381.2 116.6 L382.3 116.6 L383.5 116 L385.7 115.3 L387.9 115.3 L389 115.3 L392.3 112.6 L393.5 109.3 L394.6 107.2 L395.7 105.9 L396.8 105.2 L397.9 105.2 L399 104.6 L400.1 103.2 L401.2 102.6 L402.4 102.6 L403.5 102.6 L404.6 102.6 L405.7 102.6 L406.8 102.6 L407.9 102.6 L409 101.9 L410.1 101.9 L411.2 101.2 L412.4 99.9 L413.5 98.5 L414.6 97.2 L415.7 97.2 L416.8 97.2 L417.9 96.5 L419 96.5 L421.3 95.8 L422.4 95.2 L423.5 95.2 L424.6 95.2 L425.7 94.5 L426.8 93.8 L427.9 93.8 L429 93.8 L430.2 93.8 L431.3 93.8 L432.4 93.8 L433.5 93.8 L434.6 93.8 L435.7 93.2 L436.8 93.2 L437.9 93.2 L439 92.5 L440.2 92.5 L441.3 92.5 L442.4 92.5 L443.5 92.5 L444.6 92.5 L445.7 91.8 L446.8 91.8 L447.9 91.8 L449.1 91.8 L450.2 91.8 L451.3 91.8 L452.4 91.8 L453.5 91.8 L454.6 91.8 L455.7 91.8 L457.9 91.8 L459.1 91.8 L460.2 91.8 L461.3 91.8 L462.4 91.8 L463.5 91.1 L464.6 91.1 L465.7 90.5 L466.8 90.5 L468 89.8 L469.1 89.8 L470.2 89.8 L471.3 89.8 L472.4 89.1 L473.5 89.1 L474.6 88.5 L475.7 88.5 L479.1 87.8 L480.2 87.8 L481.3 87.8 L482.4 87.8 L484.6 87.8 L485.7 87.1 L486.9 87.1 L488 87.1 L489.1 87.1 L490.2 86.4 L491.3 86.4 L492.4 86.4 L493.5 85.8 L494.6 85.8 L495.8 85.1 L496.9 85.1 L498 85.1 L499.1 85.1 L500.2 84.4 L501.3 84.4 L502.4 84.4 L503.5 84.4 L504.6 84.4 L505.8 84.4 L506.9 84.4 L508 84.4 L509.1 84.4 L511.3 83.8 L512.4 83.8 L513.5 83.8 L514.7 83.8 L515.8 83.8 L516.9 83.8 L519.1 83.8 L521.3 83.1 L522.4 82.4 L523.6 81.7 L524.7 81.7 L525.8 81.7 L526.9 81.7 L528 81.7 L529.1 81.7 L530.2 80.4 L531.3 80.4 L532.4 79.7 L533.6 79.7 L534.7 79.1 L535.8 79.1 L536.9 78.4 L538 78.4 L539.1 78.4 L540.2 78.4 L541.3 77.7 L542.5 77.7 L543.6 77.7 L544.7 77 L545.8 77 L546.9 77 L548 76.4 L549.1 75.7 L550.2 75 L551.4 73.7 L552.5 72.3 L553.6 71.7 L554.7 71.7 L555.8 71 L556.9 71 L558 71 L559.1 70.3 L560.2 69.7 L561.4 68.3 L562.5 67 L563.6 66.3 L564.7 66.3 L565.8 66.3 L566.9 65.6 L568 64.3 L569.1 64.3 L570.3 63.6 L571.4 62.3 L572.5 62.3 L573.6 62.3 L574.7 62.3 L575.8 61.6 L576.9 60.9 L578 60.9 L579.1 60.9 L580.3 58.9 L581.4 58.9 L582.5 58.3 L583.6 57.6 L584.7 56.9 L585.8 56.9 L586.9 56.2 L588 56.2 L589.2 56.2 L590.3 56.2 L591.4 56.2 L592.5 55.6 L593.6 55.6 L594.7 55.6 L595.8 55.6 L596.9 54.2 L598.1 54.2 L599.2 53.6 L600.3 53.6 L601.4 53.6 L602.5 53.6 L603.6 53.6 L604.7 53.6 L605.8 52.9 L606.9 52.2 L608.1 52.2 L609.2 52.2 L610.3 52.2 L611.4 52.2 L612.5 50.9 L613.6 50.9 L614.7 50.9 L615.8 50.9 L617 50.9 L618.1 50.2 L619.2 49.5 L620.3 48.9 L621.4 48.9 L622.5 48.2 L623.6 48.2 L624.7 48.2 L625.8 48.2 L627 48.2 L628.1 48.2 L629.2 48.2 L630.3 48.2 L631.4 48.2 L632.5 48.2 L633.6 48.2 L634.7 48.2 L635.9 48.2 L637 48.2 L638.1 48.2 L639.2 48.2 L640.3 47.5 L641.4 47.5 L642.5 47.5 L643.6 47.5 L644.8 46.8 L645.9 46.8 L647 45.5 L648.1 45.5 L649.2 45.5 L650.3 45.5 L651.4 44.8 L652.5 44.8 L653.6 44.8 L654.8 44.8 L655.9 44.8 L657 44.2 L658.1 42.1 L659.2 42.1 L660.3 41.5 L661.4 41.5 L662.5 40.8 L663.7 40.8 L664.8 40.8 L665.9 40.8 L667 40.8 L668.1 40.8 L669.2 40.8 L670.3 40.8 L671.4 40.8 L672.5 40.1 L673.7 39.5 L674.8 39.5 L675.9 39.5 L677 39.5 L678.1 39.5 L679.2 38.8 L680.3 38.8 L681.4 38.8 L682.6 38.1 L683.7 38.1 L684.8 38.1 L685.9 38.1 L687 38.1 L688.1 38.1 L689.2 38.1 L690.3 38.1 L691.5 38.1 L692.6 38.1 L693.7 38.1 L694.8 38.1 L695.9 38.1 L697 38.1 L698.1 38.1 L699.2 38.1 L700.3 38.1 L701.5 38.1 L702.6 38.1 L703.7 38.1 L704.8 38.1 L705.9 38.1 L707 38.1 L708.1 38.1 L709.2 38.1 L710.4 38.1 L711.5 38.1 L712.6 38.1 L713.7 38.1 L714.8 38.1 L715.9 38.1 L717 38.1 L720.4 38.1 L721.5 38.1 L723.7 38.1 L724.8 37.4 L727 37.4 L728.1 36.8 L729.3 36.1 L730.4 36.1 L731.5 36.1 L732.6 36.1 L733.7 36.1 L734.8 36.1 L735.9 35.4 L737 34.8 L739.3 34.8 L740.4 33.4 L741.5 33.4 L742.6 32.8 L743.7 32.8 L744.8 31.4 L745.9 31.4 L747 31.4 L749.3 31.4 L750.4 31.4 L751.5 31.4 L752.6 31.4 L753.7 30.7 L755.9 30.7 L757.1 30.7 L758.2 30.1 L759.3 29.4 L760.4 28.7 L761.5 28.7 L762.6 28.7 L763.7 28.7 L764.8 28.7 L765.9 28.7 L767.1 28.7 L768.2 27.4 L769.3 27.4 L770.4 27.4 L771.5 27.4 L772.6 27.4 L773.7 27.4 L774.8 26.7 L776 26.7 L777.1 26.7 L778.2 26.7 L779.3 26.7 L780.4 26.7 L781.5 26 L782.6 26 L783.7 26 L784.9 26 L786 26 L787.1 26 L788.2 26 L789.3 26 L790.4 26 L791.5 24.7 L792.6 24 L793.7 24 L794.9 23.4 L797.1 23.4 L798.2 23.4 L799.3 23.4 L800.4 23.4 L801.5 22.7 L802.6 22.7 L803.8 22.7 L804.9 22.7 L807.1 22.7 L809.3 22.7 L810.4 22.7 L811.5 22.7 L813.8 22.7 L814.9 22.7 L816 22.7 L817.1 22.7 L818.2 22 L820.4 22 L821.5 22 L824.9 22 L826 22 L827.1 22 L828.2 22 L829.3 22 L830.4 22 L831.6 22 L832.7 22 L833.8 20 L834.9 20.7 L836 20 L836 120 L220 120 Z" fill="url(#fill-forks)"/>
    <path d="M220 120 L277.8 120 L286.7 120 L294.5 120 L295.6 120 L300.1 120 L301.2 120 L304.5 120 L311.2 120 L336.8 120 L337.9 119.3 L344.5 119.3 L346.8 119.3 L347.9 119.3 L349 119.3 L350.1 119.3 L351.2 119.3 L352.3 119.3 L353.4 118.7 L354.5 118.7 L355.7 118.7 L357.9 118.7 L359 118.7 L360.1 118 L361.2 117.3 L362.3 117.3 L363.4 116.6 L364.5 116.6 L365.7 116.6 L366.8 116.6 L367.9 116.6 L369 116.6 L373.4 116.6 L374.6 116.6 L375.7 116.6 L377.9 116.6 L379 116.6 L381.2 116.6 L382.3 116.6 L383.5 116 L385.7 115.3 L387.9 115.3 L389 115.3 L392.3 112.6 L393.5 109.3 L394.6 107.2 L395.7 105.9 L396.8 105.2 L397.9 105.2 L399 104.6 L400.1 103.2 L401.2 102.6 L402.4 102.6 L403.5 102.6 L404.6 102.6 L405.7 102.6 L406.8 102.6 L407.9 102.6 L409 101.9 L410.1 101.9 L411.2 101.2 L412.4 99.9 L413.5 98.5 L414.6 97.2 L415.7 97.2 L416.8 97.2 L417.9 96.5 L419 96.5 L421.3 95.8 L422.4 95.2 L423.5 95.2 L424.6 95.2 L425.7 94.5 L426.8 93.8 L427.9 93.8 L429 93.8 L430.2 93.8 L431.3 93.8 L432.4 93.8 L433.5 93.8 L434.6 93.8 L435.7 93.2 L436.8 93.2 L437.9 93.2 L439 92.5 L440.2 92.5 L441.3 92.5 L442.4 92.5 L443.5 92.5 L444.6 92.5 L445.7 91.8 L446.8 91.8 L447.9 91.8 L449.1 91.8 L450.2 91.8 L451.3 91.8 L452.4 91.8 L453.5 91.8 L454.6 91.8 L455.7 91.8 L457.9 91.8 L459.1 91.8 L460.2 91.8 L461.3 91.8 L462.4 91.8 L463.5 91.1 L464.6 91.1 L465.7 90.5 L466.8 90.5 L468 89.8 L469.1 89.8 L470.2 89.8 L471.3 89.8 L472.4 89.1 L473.5 89.1 L474.6 88.5 L475.7 88.5 L479.1 87.8 L480.2 87.8 L481.3 87.8 L482.4 87.8 L484.6 87.8 L485.7 87.1 L486.9 87.1 L488 87.1 L489.1 87.1 L490.2 86.4 L491.3 86.4 L492.4 86.4 L493.5 85.8 L494.6 85.8 L495.8 85.1 L496.9 85.1 L498 85.1 L499.1 85.1 L500.2 84.4 L501.3 84.4 L502.4 84.4 L503.5 84.4 L504.6 84.4 L505.8 84.4 L506.9 84.4 L508 84.4 L509.1 84.4 L511.3 83.8 L512.4 83.8 L513.5 83.8 L514.7 83.8 L515.8 83.8 L516.9 83.8 L519.1 83.8 L521.3 83.1 L522.4 82.4 L523.6 81.7 L524.7 81.7 L525.8 81.7 L526.9 81.7 L528 81.7 L529.1 81.7 L530.2 80.4 L531.3 80.4 L532.4 79.7 L533.6 79.7 L534.7 79.1 L535.8 79.1 L536.9 78.4 L538 78.4 L539.1 78.4 L540.2 78.4 L541.3 77.7 L542.5 77.7 L543.6 77.7 L544.7 77 L545.8 77 L546.9 77 L548 76.4 L549.1 75.7 L550.2 75 L551.4 73.7 L552.5 72.3 L553.6 71.7 L554.7 71.7 L555.8 71 L556.9 71 L558 71 L559.1 70.3 L560.2 69.7 L561.4 68.3 L562.5 67 L563.6 66.3 L564.7 66.3 L565.8 66.3 L566.9 65.6 L568 64.3 L569.1 64.3 L570.3 63.6 L571.4 62.3 L572.5 62.3 L573.6 62.3 L574.7 62.3 L575.8 61.6 L576.9 60.9 L578 60.9 L579.1 60.9 L580.3 58.9 L581.4 58.9 L582.5 58.3 L583.6 57.6 L584.7 56.9 L585.8 56.9 L586.9 56.2 L588 56.2 L589.2 56.2 L590.3 56.2 L591.4 56.2 L592.5 55.6 L593.6 55.6 L594.7 55.6 L595.8 55.6 L596.9 54.2 L598.1 54.2 L599.2 53.6 L600.3 53.6 L601.4 53.6 L602.5 53.6 L603.6 53.6 L604.7 53.6 L605.8 52.9 L606.9 52.2 L608.1 52.2 L609.2 52.2 L610.3 52.2 L611.4 52.2 L612.5 50.9 L613.6 50.9 L614.7 50.9 L615.8 50.9 L617 50.9 L618.1 50.2 L619.2 49.5 L620.3 48.9 L621.4 48.9 L622.5 48.2 L623.6 48.2 L624.7 48.2 L625.8 48.2 L627 48.2 L628.1 48.2 L629.2 48.2 L630.3 48.2 L631.4 48.2 L632.5 48.2 L633.6 48.2 L634.7 48.2 L635.9 48.2 L637 48.2 L638.1 48.2 L639.2 48.2 L640.3 47.5 L641.4 47.5 L642.5 47.5 L643.6 47.5 L644.8 46.8 L645.9 46.8 L647 45.5 L648.1 45.5 L649.2 45.5 L650.3 45.5 L651.4 44.8 L652.5 44.8 L653.6 44.8 L654.8 44.8 L655.9 44.8 L657 44.2 L658.1 42.1 L659.2 42.1 L660.3 41.5 L661.4 41.5 L662.5 40.8 L663.7 40.8 L664.8 40.8 L665.9 40.8 L667 40.8 L668.1 40.8 L669.2 40.8 L670.3 40.8 L671.4 40.8 L672.5 40.1 L673.7 39.5 L674.8 39.5 L675.9 39.5 L677 39.5 L678.1 39.5 L679.2 38.8 L680.3 38.8 L681.4 38.8 L682.6 38.1 L683.7 38.1 L684.8 38.1 L685.9 38.1 L687 38.1 L688.1 38.1 L689.2 38.1 L690.3 38.1 L691.5 38.1 L692.6 38.1 L693.7 38.1 L694.8 38.1 L695.9 38.1 L697 38.1 L698.1 38.1 L699.2 38.1 L700.3 38.1 L701.5 38.1 L702.6 38.1 L703.7 38.1 L704.8 38.1 L705.9 38.1 L707 38.1 L708.1 38.1 L709.2 38.1 L710.4 38.1 L711.5 38.1 L712.6 38.1 L713.7 38.1 L714.8 38.1 L715.9 38.1 L717 38.1 L720.4 38.1 L721.5 38.1 L723.7 38.1 L724.8 37.4 L727 37.4 L728.1 36.8 L729.3 36.1 L730.4 36.1 L731.5 36.1 L732.6 36.1 L733.7 36.1 L734.8 36.1 L735.9 35.4 L737 34.8 L739.3 34.8 L740.4 33.4 L741.5 33.4 L742.6 32.8 L743.7 32.8 L744.8 31.4 L745.9 31.4 L747 31.4 L749.3 31.4 L750.4 31.4 L751.5 31.4 L752.6 31.4 L753.7 30.7 L755.9 30.7 L757.1 30.7 L758.2 30.1 L759.3 29.4 L760.4 28.7 L761.5 28.7 L762.6 28.7 L763.7 28.7 L764.8 28.7 L765.9 28.7 L767.1 28.7 L768.2 27.4 L769.3 27.4 L770.4 27.4 L771.5 27.4 L772.6 27.4 L773.7 27.4 L774.8 26.7 L776 26.7 L777.1 26.7 L778.2 26.7 L779.3 26.7 L780.4 26.7 L781.5 26 L782.6 26 L783.7 26 L784.9 26 L786 26 L787.1 26 L788.2 26 L789.3 26 L790.4 26 L791.5 24.7 L792.6 24 L793.7 24 L794.9 23.4 L797.1 23.4 L798.2 23.4 L799.3 23.4 L800.4 23.4 L801.5 22.7 L802.6 22.7 L803.8 22.7 L804.9 22.7 L807.1 22.7 L809.3 22.7 L810.4 22.7 L811.5 22.7 L813.8 22.7 L814.9 22.7 L816 22.7 L817.1 22.7 L818.2 22 L820.4 22 L821.5 22 L824.9 22 L826 22 L827.1 22 L828.2 22 L829.3 22 L830.4 22 L831.6 22 L832.7 22 L833.8 20 L834.9 20.7 L836 20" fill="none" stroke="#06b6d4" stroke-width="3" stroke-linecap="round" stroke-linejoin="round"/>
    <circle cx="836" cy="20" r="5" fill="#06b6d4" stroke="#fff" stroke-width="2"/>
    <text x="220" y="143" text-anchor="start" class="secondary" font-size="9">Jan 15, 2025</text><text x="528" y="143" text-anchor="middle" class="secondary" font-size="9">Oct 19, 2025</text><text x="836" y="143" text-anchor="end" class="secondary" font-size="9">Jul 23, 2026</text>
  </g>
    <text x="30" y="543" class="secondary" font-size="11">Updated Jul 23, 2026</text>
    <a href="https://github.com/MacRimi/repo-growth" target="_blank" aria-label="Open the Repo Growth project">
      <text x="886" y="543" fill="#8b5cf6" text-anchor="end" font-size="13" font-weight="700">Generated by Repo Growth ↗</text>
    </a>
  </g>
</svg>
