<?xml version="1.0" encoding="UTF-8"?>
<svg xmlns="http://www.w3.org/2000/svg" width="1000" height="638" viewBox="0 0 1000 638" role="img" aria-labelledby="title desc">
  <title id="title">ProxMenux growth for MacRimi/ProxMenux</title>
  <desc id="desc">Repository growth dashboard showing stars, forks over time.</desc>
  <defs>
    <linearGradient id="background" x1="0" y1="0" x2="1" y2="1">
      <stop offset="0" stop-color="#fafafa"/><stop offset="1" stop-color="#f4f4f5"/>
    </linearGradient>
    <linearGradient id="fill-stars" x1="0" y1="0" x2="0" y2="1"><stop offset="0" stop-color="#8b5cf6" stop-opacity=".24"/><stop offset="1" stop-color="#8b5cf6" stop-opacity="0"/></linearGradient><linearGradient id="fill-forks" x1="0" y1="0" x2="0" y2="1"><stop offset="0" stop-color="#06b6d4" stop-opacity=".24"/><stop offset="1" stop-color="#06b6d4" stop-opacity="0"/></linearGradient>
    <filter id="shadow" x="-10%" y="-10%" width="120%" height="130%"><feDropShadow dx="0" dy="8" stdDeviation="14" flood-color="#18181b" flood-opacity=".08"/></filter>
    <style>
      :root { color-scheme: light dark; }
      .bg { fill: url(#background); }
      .surface { fill: #ffffff; stroke: #e4e4e7; }
      .panel { fill: #ffffff; stroke: #e4e4e7; }
      .primary { fill: #18181b; }
      .secondary { fill: #71717a; }
      .grid { stroke: #e4e4e7; }
      text { font-family: Inter, ui-sans-serif, system-ui, -apple-system, BlinkMacSystemFont, "Segoe UI", sans-serif; }
      @media (prefers-color-scheme: dark) {
        .bg { fill: #09090b; }
        .surface, .panel { fill: #111113; stroke: #27272a; }
        .primary { fill: #fafafa; }
        .secondary { fill: #a1a1aa; }
        .grid { stroke: #27272a; }
      }
    </style>
  </defs>
  <rect class="bg" width="1000" height="638" rx="28"/>
  <g transform="translate(42 38)">
    <rect x="0" y="0" width="916" height="562" rx="22" class="surface" filter="url(#shadow)"/>
    <text x="30" y="45" class="primary" font-size="26" font-weight="750" letter-spacing="-.5">ProxMenux growth</text>
    <text x="30" y="70" class="secondary" font-size="14">MacRimi/ProxMenux · Jan 15, 2025 – Jul 22, 2026</text>
    <g transform="translate(740 25)"><rect width="146" height="30" rx="15" fill="#8b5cf6" fill-opacity=".12"/><circle cx="17" cy="15" r="4" fill="#8b5cf6"/><text x="30" y="20" fill="#8b5cf6" font-size="11" font-weight="700" letter-spacing="1">LOCAL HISTORY</text></g>
    <g transform="translate(30 92)">
    <rect width="418" height="86" rx="16" class="panel"/>
    <rect x="16" y="17" width="6" height="52" rx="3" fill="#8b5cf6"/>
    <text x="38" y="34" class="secondary" font-size="12" font-weight="650" letter-spacing=".3">STARS</text>
    <text x="38" y="64" class="primary" font-size="27" font-weight="760" letter-spacing="-.5">2,812</text>
    <text x="392" y="63" text-anchor="end" fill="#8b5cf6" font-size="11" font-weight="650">+2,811 tracked</text>
  </g><g transform="translate(468 92)">
    <rect width="418" height="86" rx="16" class="panel"/>
    <rect x="16" y="17" width="6" height="52" rx="3" fill="#06b6d4"/>
    <text x="38" y="34" class="secondary" font-size="12" font-weight="650" letter-spacing=".3">FORKS</text>
    <text x="38" y="64" class="primary" font-size="27" font-weight="760" letter-spacing="-.5">148</text>
    <text x="392" y="63" text-anchor="end" fill="#06b6d4" font-size="11" font-weight="650">+148 tracked</text>
  </g>
    <g transform="translate(30 197)">
    <rect width="856" height="150" rx="16" class="panel"/>
    <circle cx="20" cy="27" r="5" fill="#8b5cf6"/>
    <text x="34" y="31" class="primary" font-size="14" font-weight="700">Stars</text>
    <text x="20" y="62" class="primary" font-size="20" font-weight="750">2,812</text>
    <text x="20" y="83" class="secondary" font-size="11">range 1–2,812</text>
    <line x1="220" x2="836" y1="20" y2="20" class="grid" stroke-width="1" stroke-dasharray="3 6"/><text x="210" y="24" text-anchor="end" class="secondary" font-size="9">2,812</text><line x1="220" x2="836" y1="70" y2="70" class="grid" stroke-width="1" stroke-dasharray="3 6"/><text x="210" y="74" text-anchor="end" class="secondary" font-size="9">1,407</text><line x1="220" x2="836" y1="120" y2="120" class="grid" stroke-width="1" stroke-dasharray="3 6"/><text x="210" y="124" text-anchor="end" class="secondary" font-size="9">1</text>
    <path d="M220 120 L277.9 119.9 L286.8 119.9 L294.6 119.9 L295.7 119.8 L300.2 119.8 L301.3 119.8 L304.7 119.7 L311.3 119.7 L337 119.5 L338.1 119.5 L344.8 119.4 L347 119.4 L348.1 119.3 L349.2 119.3 L350.3 118.7 L351.4 117.9 L352.6 117.9 L353.7 117.8 L354.8 117.7 L355.9 117.6 L358.1 117.5 L359.2 117.4 L360.4 117.3 L361.5 117.3 L362.6 116.8 L363.7 116 L364.8 115.6 L365.9 115.4 L367 115.3 L368.2 115.3 L369.3 115.1 L373.7 115.1 L374.8 114.9 L375.9 114.8 L378.2 114.7 L379.3 114.7 L381.5 114.6 L382.6 114.5 L383.7 114.5 L386 114.4 L388.2 114.3 L389.3 114.2 L392.7 111.4 L393.8 109.1 L394.9 108 L396 106.7 L397.1 105.6 L398.2 104.7 L399.3 103.9 L400.5 103.2 L401.6 103 L402.7 102.7 L403.8 102.4 L404.9 102.2 L406 102 L407.1 101.7 L408.3 101.5 L409.4 101 L410.5 100.6 L411.6 100.3 L412.7 99.9 L413.8 99.6 L414.9 99.5 L416.1 99.3 L417.2 99 L418.3 98.8 L419.4 98.6 L421.6 98.4 L422.7 98.2 L423.8 98.1 L425 98 L426.1 97.9 L427.2 97.8 L428.3 97.7 L429.4 97.5 L430.5 97.3 L431.6 97.1 L432.8 96.8 L433.9 96.7 L435 96.7 L436.1 96.5 L437.2 96.4 L438.3 96.2 L439.4 96.1 L440.6 96 L441.7 95.8 L442.8 95.8 L443.9 95.6 L445 95.5 L446.1 95.4 L447.2 95.3 L448.4 95.3 L449.5 95.1 L450.6 94.7 L451.7 94.5 L452.8 94.4 L453.9 94.1 L455 94 L456.2 93.8 L458.4 93.6 L459.5 93.4 L460.6 93.3 L461.7 93.2 L462.8 93 L463.9 92.8 L465.1 92.7 L466.2 92.6 L467.3 92.6 L468.4 92.5 L469.5 92.5 L470.6 92.4 L471.7 92.2 L472.9 92 L474 92 L475.1 91.9 L476.2 91.8 L479.5 91.6 L480.7 91.5 L481.8 91.4 L482.9 91.3 L485.1 91.2 L486.2 90.9 L487.3 90.8 L488.5 90.5 L489.6 90.3 L490.7 90 L491.8 90 L492.9 89.9 L494 89.8 L495.1 89.7 L496.3 89.5 L497.4 89.3 L498.5 89.2 L499.6 89.1 L500.7 88.7 L501.8 88.6 L502.9 88.5 L504.1 88.2 L505.2 87.9 L506.3 87.5 L507.4 87.4 L508.5 87.1 L509.6 87 L511.8 86.8 L513 86.7 L514.1 86.6 L515.2 86.3 L516.3 86.1 L517.4 85.9 L519.6 85.6 L521.9 85.4 L523 85.2 L524.1 85.1 L525.2 85 L526.3 84.9 L527.4 84.7 L528.6 84.7 L529.7 84.5 L530.8 84.5 L531.9 84.4 L533 84.2 L534.1 84.1 L535.2 84 L536.4 83.9 L537.5 83.6 L538.6 83.5 L539.7 83.3 L540.8 83 L541.9 82.7 L543 82.3 L544.2 81.5 L545.3 80.7 L546.4 80.2 L547.5 79.7 L548.6 79.3 L549.7 78.2 L550.8 75.4 L551.9 73.5 L553.1 72.5 L554.2 72.2 L555.3 71.7 L556.4 71.2 L557.5 69.8 L558.6 68.5 L559.7 67.4 L560.9 67 L562 66 L563.1 65.6 L564.2 65.1 L565.3 64.5 L566.4 64 L567.5 63.6 L568.7 62.7 L569.8 62.4 L570.9 61.6 L572 61.5 L573.1 61.3 L574.2 60.9 L575.3 60.5 L576.5 60.1 L577.6 59.8 L578.7 59.6 L579.8 59.3 L580.9 58.8 L582 58.5 L583.1 56.5 L584.3 55.6 L585.4 55 L586.5 54.4 L587.6 54.1 L588.7 53.7 L589.8 53.3 L590.9 52.9 L592.1 52.7 L593.2 52.5 L594.3 52.4 L595.4 52.2 L596.5 51.8 L597.6 51.7 L598.7 51.2 L599.8 51.1 L601 50.9 L602.1 50.7 L603.2 50.5 L604.3 50.2 L605.4 50 L606.5 49.3 L607.6 49.1 L608.8 48.9 L609.9 48.8 L611 48.6 L612.1 48.3 L613.2 48.2 L614.3 47.9 L615.4 47.6 L616.6 47.5 L617.7 47.3 L618.8 47.1 L619.9 46.9 L621 46.7 L622.1 46.6 L623.2 46.4 L624.4 46.1 L625.5 45.9 L626.6 45.8 L627.7 45.2 L628.8 44.7 L629.9 44.5 L631 44.3 L632.2 44.1 L633.3 44 L634.4 43.7 L635.5 43.5 L636.6 43.4 L637.7 43.3 L638.8 43.2 L639.9 43 L641.1 42.5 L642.2 42.3 L643.3 42 L644.4 41.7 L645.5 41.5 L646.6 41.2 L647.7 41 L648.9 40.9 L650 40.8 L651.1 40.7 L652.2 40.5 L653.3 40.4 L654.4 40.3 L655.5 40 L656.7 38.6 L657.8 38 L658.9 37.4 L660 37 L661.1 36.8 L662.2 36.4 L663.3 35.9 L664.5 35.6 L665.6 35.3 L666.7 35 L667.8 34.9 L668.9 34.6 L670 34.3 L671.1 34.2 L672.3 34.1 L673.4 33.9 L674.5 33.7 L675.6 33.4 L676.7 33.1 L677.8 33.1 L678.9 32.9 L680.1 32.7 L681.2 32.6 L682.3 32.5 L683.4 32.4 L684.5 32.3 L685.6 32.3 L686.7 32.2 L687.8 32.2 L689 32 L690.1 32 L691.2 31.9 L692.3 31.8 L693.4 31.6 L694.5 31.4 L695.6 31.4 L696.8 31.3 L697.9 31.2 L699 30.9 L700.1 30.7 L701.2 30.5 L702.3 30.4 L703.4 30.1 L704.6 30 L705.7 30 L706.8 29.9 L707.9 29.7 L709 29.5 L710.1 29.4 L711.2 29.3 L712.4 29.2 L713.5 29.1 L714.6 29 L715.7 28.9 L716.8 28.8 L717.9 28.8 L721.3 28.7 L722.4 28.5 L724.6 28.5 L725.7 28.4 L727.9 28.3 L729.1 28.3 L730.2 28 L731.3 27.9 L732.4 27.7 L733.5 27.6 L734.6 27.5 L735.7 27.3 L736.9 27.3 L738 27.2 L740.2 27 L741.3 27 L742.4 27 L743.5 27 L744.7 26.9 L745.8 26.8 L746.9 26.8 L748 26.7 L750.2 26.6 L751.3 26.5 L752.5 26.4 L753.6 26.3 L754.7 26.1 L756.9 26 L758 26 L759.1 25.8 L760.3 25.7 L761.4 25.6 L762.5 25.4 L763.6 25.4 L764.7 25.3 L765.8 25.2 L766.9 25.1 L768.1 24.9 L769.2 24.7 L770.3 24.7 L771.4 24.6 L772.5 24.5 L773.6 24.4 L774.7 24.3 L775.8 24.2 L777 24.2 L778.1 24.1 L779.2 24.1 L780.3 23.9 L781.4 23.8 L782.5 23.7 L783.6 23.7 L784.8 23.6 L785.9 23.5 L787 23.5 L788.1 23.4 L789.2 23.3 L790.3 23.2 L791.4 23.2 L792.6 23.2 L793.7 23.1 L794.8 23 L795.9 23 L798.1 22.9 L799.2 22.8 L800.4 22.7 L801.5 22.6 L802.6 22.6 L803.7 22.5 L804.8 22.5 L805.9 22.4 L808.2 22.2 L810.4 22.2 L811.5 22.1 L812.6 22 L814.8 21.9 L815.9 21.9 L817.1 21.8 L818.2 21.7 L819.3 21.6 L821.5 21.5 L822.6 21.4 L826 21.4 L827.1 21.2 L828.2 21.1 L829.3 21.1 L830.4 21 L831.5 21 L832.7 20.9 L833.8 20.6 L834.9 20 L836 20 L836 120 L220 120 Z" fill="url(#fill-stars)"/>
    <path d="M220 120 L277.9 119.9 L286.8 119.9 L294.6 119.9 L295.7 119.8 L300.2 119.8 L301.3 119.8 L304.7 119.7 L311.3 119.7 L337 119.5 L338.1 119.5 L344.8 119.4 L347 119.4 L348.1 119.3 L349.2 119.3 L350.3 118.7 L351.4 117.9 L352.6 117.9 L353.7 117.8 L354.8 117.7 L355.9 117.6 L358.1 117.5 L359.2 117.4 L360.4 117.3 L361.5 117.3 L362.6 116.8 L363.7 116 L364.8 115.6 L365.9 115.4 L367 115.3 L368.2 115.3 L369.3 115.1 L373.7 115.1 L374.8 114.9 L375.9 114.8 L378.2 114.7 L379.3 114.7 L381.5 114.6 L382.6 114.5 L383.7 114.5 L386 114.4 L388.2 114.3 L389.3 114.2 L392.7 111.4 L393.8 109.1 L394.9 108 L396 106.7 L397.1 105.6 L398.2 104.7 L399.3 103.9 L400.5 103.2 L401.6 103 L402.7 102.7 L403.8 102.4 L404.9 102.2 L406 102 L407.1 101.7 L408.3 101.5 L409.4 101 L410.5 100.6 L411.6 100.3 L412.7 99.9 L413.8 99.6 L414.9 99.5 L416.1 99.3 L417.2 99 L418.3 98.8 L419.4 98.6 L421.6 98.4 L422.7 98.2 L423.8 98.1 L425 98 L426.1 97.9 L427.2 97.8 L428.3 97.7 L429.4 97.5 L430.5 97.3 L431.6 97.1 L432.8 96.8 L433.9 96.7 L435 96.7 L436.1 96.5 L437.2 96.4 L438.3 96.2 L439.4 96.1 L440.6 96 L441.7 95.8 L442.8 95.8 L443.9 95.6 L445 95.5 L446.1 95.4 L447.2 95.3 L448.4 95.3 L449.5 95.1 L450.6 94.7 L451.7 94.5 L452.8 94.4 L453.9 94.1 L455 94 L456.2 93.8 L458.4 93.6 L459.5 93.4 L460.6 93.3 L461.7 93.2 L462.8 93 L463.9 92.8 L465.1 92.7 L466.2 92.6 L467.3 92.6 L468.4 92.5 L469.5 92.5 L470.6 92.4 L471.7 92.2 L472.9 92 L474 92 L475.1 91.9 L476.2 91.8 L479.5 91.6 L480.7 91.5 L481.8 91.4 L482.9 91.3 L485.1 91.2 L486.2 90.9 L487.3 90.8 L488.5 90.5 L489.6 90.3 L490.7 90 L491.8 90 L492.9 89.9 L494 89.8 L495.1 89.7 L496.3 89.5 L497.4 89.3 L498.5 89.2 L499.6 89.1 L500.7 88.7 L501.8 88.6 L502.9 88.5 L504.1 88.2 L505.2 87.9 L506.3 87.5 L507.4 87.4 L508.5 87.1 L509.6 87 L511.8 86.8 L513 86.7 L514.1 86.6 L515.2 86.3 L516.3 86.1 L517.4 85.9 L519.6 85.6 L521.9 85.4 L523 85.2 L524.1 85.1 L525.2 85 L526.3 84.9 L527.4 84.7 L528.6 84.7 L529.7 84.5 L530.8 84.5 L531.9 84.4 L533 84.2 L534.1 84.1 L535.2 84 L536.4 83.9 L537.5 83.6 L538.6 83.5 L539.7 83.3 L540.8 83 L541.9 82.7 L543 82.3 L544.2 81.5 L545.3 80.7 L546.4 80.2 L547.5 79.7 L548.6 79.3 L549.7 78.2 L550.8 75.4 L551.9 73.5 L553.1 72.5 L554.2 72.2 L555.3 71.7 L556.4 71.2 L557.5 69.8 L558.6 68.5 L559.7 67.4 L560.9 67 L562 66 L563.1 65.6 L564.2 65.1 L565.3 64.5 L566.4 64 L567.5 63.6 L568.7 62.7 L569.8 62.4 L570.9 61.6 L572 61.5 L573.1 61.3 L574.2 60.9 L575.3 60.5 L576.5 60.1 L577.6 59.8 L578.7 59.6 L579.8 59.3 L580.9 58.8 L582 58.5 L583.1 56.5 L584.3 55.6 L585.4 55 L586.5 54.4 L587.6 54.1 L588.7 53.7 L589.8 53.3 L590.9 52.9 L592.1 52.7 L593.2 52.5 L594.3 52.4 L595.4 52.2 L596.5 51.8 L597.6 51.7 L598.7 51.2 L599.8 51.1 L601 50.9 L602.1 50.7 L603.2 50.5 L604.3 50.2 L605.4 50 L606.5 49.3 L607.6 49.1 L608.8 48.9 L609.9 48.8 L611 48.6 L612.1 48.3 L613.2 48.2 L614.3 47.9 L615.4 47.6 L616.6 47.5 L617.7 47.3 L618.8 47.1 L619.9 46.9 L621 46.7 L622.1 46.6 L623.2 46.4 L624.4 46.1 L625.5 45.9 L626.6 45.8 L627.7 45.2 L628.8 44.7 L629.9 44.5 L631 44.3 L632.2 44.1 L633.3 44 L634.4 43.7 L635.5 43.5 L636.6 43.4 L637.7 43.3 L638.8 43.2 L639.9 43 L641.1 42.5 L642.2 42.3 L643.3 42 L644.4 41.7 L645.5 41.5 L646.6 41.2 L647.7 41 L648.9 40.9 L650 40.8 L651.1 40.7 L652.2 40.5 L653.3 40.4 L654.4 40.3 L655.5 40 L656.7 38.6 L657.8 38 L658.9 37.4 L660 37 L661.1 36.8 L662.2 36.4 L663.3 35.9 L664.5 35.6 L665.6 35.3 L666.7 35 L667.8 34.9 L668.9 34.6 L670 34.3 L671.1 34.2 L672.3 34.1 L673.4 33.9 L674.5 33.7 L675.6 33.4 L676.7 33.1 L677.8 33.1 L678.9 32.9 L680.1 32.7 L681.2 32.6 L682.3 32.5 L683.4 32.4 L684.5 32.3 L685.6 32.3 L686.7 32.2 L687.8 32.2 L689 32 L690.1 32 L691.2 31.9 L692.3 31.8 L693.4 31.6 L694.5 31.4 L695.6 31.4 L696.8 31.3 L697.9 31.2 L699 30.9 L700.1 30.7 L701.2 30.5 L702.3 30.4 L703.4 30.1 L704.6 30 L705.7 30 L706.8 29.9 L707.9 29.7 L709 29.5 L710.1 29.4 L711.2 29.3 L712.4 29.2 L713.5 29.1 L714.6 29 L715.7 28.9 L716.8 28.8 L717.9 28.8 L721.3 28.7 L722.4 28.5 L724.6 28.5 L725.7 28.4 L727.9 28.3 L729.1 28.3 L730.2 28 L731.3 27.9 L732.4 27.7 L733.5 27.6 L734.6 27.5 L735.7 27.3 L736.9 27.3 L738 27.2 L740.2 27 L741.3 27 L742.4 27 L743.5 27 L744.7 26.9 L745.8 26.8 L746.9 26.8 L748 26.7 L750.2 26.6 L751.3 26.5 L752.5 26.4 L753.6 26.3 L754.7 26.1 L756.9 26 L758 26 L759.1 25.8 L760.3 25.7 L761.4 25.6 L762.5 25.4 L763.6 25.4 L764.7 25.3 L765.8 25.2 L766.9 25.1 L768.1 24.9 L769.2 24.7 L770.3 24.7 L771.4 24.6 L772.5 24.5 L773.6 24.4 L774.7 24.3 L775.8 24.2 L777 24.2 L778.1 24.1 L779.2 24.1 L780.3 23.9 L781.4 23.8 L782.5 23.7 L783.6 23.7 L784.8 23.6 L785.9 23.5 L787 23.5 L788.1 23.4 L789.2 23.3 L790.3 23.2 L791.4 23.2 L792.6 23.2 L793.7 23.1 L794.8 23 L795.9 23 L798.1 22.9 L799.2 22.8 L800.4 22.7 L801.5 22.6 L802.6 22.6 L803.7 22.5 L804.8 22.5 L805.9 22.4 L808.2 22.2 L810.4 22.2 L811.5 22.1 L812.6 22 L814.8 21.9 L815.9 21.9 L817.1 21.8 L818.2 21.7 L819.3 21.6 L821.5 21.5 L822.6 21.4 L826 21.4 L827.1 21.2 L828.2 21.1 L829.3 21.1 L830.4 21 L831.5 21 L832.7 20.9 L833.8 20.6 L834.9 20 L836 20" fill="none" stroke="#8b5cf6" stroke-width="3" stroke-linecap="round" stroke-linejoin="round"/>
    <circle cx="836" cy="20" r="5" fill="#8b5cf6" stroke="#fff" stroke-width="2"/>
    <text x="220" y="143" text-anchor="start" class="secondary" font-size="9">Jan 15, 2025</text><text x="528" y="143" text-anchor="middle" class="secondary" font-size="9">Oct 18, 2025</text><text x="836" y="143" text-anchor="end" class="secondary" font-size="9">Jul 22, 2026</text>
  </g><g transform="translate(30 363)">
    <rect width="856" height="150" rx="16" class="panel"/>
    <circle cx="20" cy="27" r="5" fill="#06b6d4"/>
    <text x="34" y="31" class="primary" font-size="14" font-weight="700">Forks</text>
    <text x="20" y="62" class="primary" font-size="20" font-weight="750">148</text>
    <text x="20" y="83" class="secondary" font-size="11">range 0–149</text>
    <line x1="220" x2="836" y1="20" y2="20" class="grid" stroke-width="1" stroke-dasharray="3 6"/><text x="210" y="24" text-anchor="end" class="secondary" font-size="9">149</text><line x1="220" x2="836" y1="70" y2="70" class="grid" stroke-width="1" stroke-dasharray="3 6"/><text x="210" y="74" text-anchor="end" class="secondary" font-size="9">75</text><line x1="220" x2="836" y1="120" y2="120" class="grid" stroke-width="1" stroke-dasharray="3 6"/><text x="210" y="124" text-anchor="end" class="secondary" font-size="9">0</text>
    <path d="M220 120 L277.9 120 L286.8 120 L294.6 120 L295.7 120 L300.2 120 L301.3 120 L304.7 120 L311.3 120 L337 120 L338.1 119.3 L344.8 119.3 L347 119.3 L348.1 119.3 L349.2 119.3 L350.3 119.3 L351.4 119.3 L352.6 119.3 L353.7 118.7 L354.8 118.7 L355.9 118.7 L358.1 118.7 L359.2 118.7 L360.4 118 L361.5 117.3 L362.6 117.3 L363.7 116.6 L364.8 116.6 L365.9 116.6 L367 116.6 L368.2 116.6 L369.3 116.6 L373.7 116.6 L374.8 116.6 L375.9 116.6 L378.2 116.6 L379.3 116.6 L381.5 116.6 L382.6 116.6 L383.7 116 L386 115.3 L388.2 115.3 L389.3 115.3 L392.7 112.6 L393.8 109.3 L394.9 107.2 L396 105.9 L397.1 105.2 L398.2 105.2 L399.3 104.6 L400.5 103.2 L401.6 102.6 L402.7 102.6 L403.8 102.6 L404.9 102.6 L406 102.6 L407.1 102.6 L408.3 102.6 L409.4 101.9 L410.5 101.9 L411.6 101.2 L412.7 99.9 L413.8 98.5 L414.9 97.2 L416.1 97.2 L417.2 97.2 L418.3 96.5 L419.4 96.5 L421.6 95.8 L422.7 95.2 L423.8 95.2 L425 95.2 L426.1 94.5 L427.2 93.8 L428.3 93.8 L429.4 93.8 L430.5 93.8 L431.6 93.8 L432.8 93.8 L433.9 93.8 L435 93.8 L436.1 93.2 L437.2 93.2 L438.3 93.2 L439.4 92.5 L440.6 92.5 L441.7 92.5 L442.8 92.5 L443.9 92.5 L445 92.5 L446.1 91.8 L447.2 91.8 L448.4 91.8 L449.5 91.8 L450.6 91.8 L451.7 91.8 L452.8 91.8 L453.9 91.8 L455 91.8 L456.2 91.8 L458.4 91.8 L459.5 91.8 L460.6 91.8 L461.7 91.8 L462.8 91.8 L463.9 91.1 L465.1 91.1 L466.2 90.5 L467.3 90.5 L468.4 89.8 L469.5 89.8 L470.6 89.8 L471.7 89.8 L472.9 89.1 L474 89.1 L475.1 88.5 L476.2 88.5 L479.5 87.8 L480.7 87.8 L481.8 87.8 L482.9 87.8 L485.1 87.8 L486.2 87.1 L487.3 87.1 L488.5 87.1 L489.6 87.1 L490.7 86.4 L491.8 86.4 L492.9 86.4 L494 85.8 L495.1 85.8 L496.3 85.1 L497.4 85.1 L498.5 85.1 L499.6 85.1 L500.7 84.4 L501.8 84.4 L502.9 84.4 L504.1 84.4 L505.2 84.4 L506.3 84.4 L507.4 84.4 L508.5 84.4 L509.6 84.4 L511.8 83.8 L513 83.8 L514.1 83.8 L515.2 83.8 L516.3 83.8 L517.4 83.8 L519.6 83.8 L521.9 83.1 L523 82.4 L524.1 81.7 L525.2 81.7 L526.3 81.7 L527.4 81.7 L528.6 81.7 L529.7 81.7 L530.8 80.4 L531.9 80.4 L533 79.7 L534.1 79.7 L535.2 79.1 L536.4 79.1 L537.5 78.4 L538.6 78.4 L539.7 78.4 L540.8 78.4 L541.9 77.7 L543 77.7 L544.2 77.7 L545.3 77 L546.4 77 L547.5 77 L548.6 76.4 L549.7 75.7 L550.8 75 L551.9 73.7 L553.1 72.3 L554.2 71.7 L555.3 71.7 L556.4 71 L557.5 71 L558.6 71 L559.7 70.3 L560.9 69.7 L562 68.3 L563.1 67 L564.2 66.3 L565.3 66.3 L566.4 66.3 L567.5 65.6 L568.7 64.3 L569.8 64.3 L570.9 63.6 L572 62.3 L573.1 62.3 L574.2 62.3 L575.3 62.3 L576.5 61.6 L577.6 60.9 L578.7 60.9 L579.8 60.9 L580.9 58.9 L582 58.9 L583.1 58.3 L584.3 57.6 L585.4 56.9 L586.5 56.9 L587.6 56.2 L588.7 56.2 L589.8 56.2 L590.9 56.2 L592.1 56.2 L593.2 55.6 L594.3 55.6 L595.4 55.6 L596.5 55.6 L597.6 54.2 L598.7 54.2 L599.8 53.6 L601 53.6 L602.1 53.6 L603.2 53.6 L604.3 53.6 L605.4 53.6 L606.5 52.9 L607.6 52.2 L608.8 52.2 L609.9 52.2 L611 52.2 L612.1 52.2 L613.2 50.9 L614.3 50.9 L615.4 50.9 L616.6 50.9 L617.7 50.9 L618.8 50.2 L619.9 49.5 L621 48.9 L622.1 48.9 L623.2 48.2 L624.4 48.2 L625.5 48.2 L626.6 48.2 L627.7 48.2 L628.8 48.2 L629.9 48.2 L631 48.2 L632.2 48.2 L633.3 48.2 L634.4 48.2 L635.5 48.2 L636.6 48.2 L637.7 48.2 L638.8 48.2 L639.9 48.2 L641.1 47.5 L642.2 47.5 L643.3 47.5 L644.4 47.5 L645.5 46.8 L646.6 46.8 L647.7 45.5 L648.9 45.5 L650 45.5 L651.1 45.5 L652.2 44.8 L653.3 44.8 L654.4 44.8 L655.5 44.8 L656.7 44.8 L657.8 44.2 L658.9 42.1 L660 42.1 L661.1 41.5 L662.2 41.5 L663.3 40.8 L664.5 40.8 L665.6 40.8 L666.7 40.8 L667.8 40.8 L668.9 40.8 L670 40.8 L671.1 40.8 L672.3 40.8 L673.4 40.1 L674.5 39.5 L675.6 39.5 L676.7 39.5 L677.8 39.5 L678.9 39.5 L680.1 38.8 L681.2 38.8 L682.3 38.8 L683.4 38.1 L684.5 38.1 L685.6 38.1 L686.7 38.1 L687.8 38.1 L689 38.1 L690.1 38.1 L691.2 38.1 L692.3 38.1 L693.4 38.1 L694.5 38.1 L695.6 38.1 L696.8 38.1 L697.9 38.1 L699 38.1 L700.1 38.1 L701.2 38.1 L702.3 38.1 L703.4 38.1 L704.6 38.1 L705.7 38.1 L706.8 38.1 L707.9 38.1 L709 38.1 L710.1 38.1 L711.2 38.1 L712.4 38.1 L713.5 38.1 L714.6 38.1 L715.7 38.1 L716.8 38.1 L717.9 38.1 L721.3 38.1 L722.4 38.1 L724.6 38.1 L725.7 37.4 L727.9 37.4 L729.1 36.8 L730.2 36.1 L731.3 36.1 L732.4 36.1 L733.5 36.1 L734.6 36.1 L735.7 36.1 L736.9 35.4 L738 34.8 L740.2 34.8 L741.3 33.4 L742.4 33.4 L743.5 32.8 L744.7 32.8 L745.8 31.4 L746.9 31.4 L748 31.4 L750.2 31.4 L751.3 31.4 L752.5 31.4 L753.6 31.4 L754.7 30.7 L756.9 30.7 L758 30.7 L759.1 30.1 L760.3 29.4 L761.4 28.7 L762.5 28.7 L763.6 28.7 L764.7 28.7 L765.8 28.7 L766.9 28.7 L768.1 28.7 L769.2 27.4 L770.3 27.4 L771.4 27.4 L772.5 27.4 L773.6 27.4 L774.7 27.4 L775.8 26.7 L777 26.7 L778.1 26.7 L779.2 26.7 L780.3 26.7 L781.4 26.7 L782.5 26 L783.6 26 L784.8 26 L785.9 26 L787 26 L788.1 26 L789.2 26 L790.3 26 L791.4 26 L792.6 24.7 L793.7 24 L794.8 24 L795.9 23.4 L798.1 23.4 L799.2 23.4 L800.4 23.4 L801.5 23.4 L802.6 22.7 L803.7 22.7 L804.8 22.7 L805.9 22.7 L808.2 22.7 L810.4 22.7 L811.5 22.7 L812.6 22.7 L814.8 22.7 L815.9 22.7 L817.1 22.7 L818.2 22.7 L819.3 22 L821.5 22 L822.6 22 L826 22 L827.1 22 L828.2 22 L829.3 22 L830.4 22 L831.5 22 L832.7 22 L833.8 22 L834.9 20 L836 20.7 L836 120 L220 120 Z" fill="url(#fill-forks)"/>
    <path d="M220 120 L277.9 120 L286.8 120 L294.6 120 L295.7 120 L300.2 120 L301.3 120 L304.7 120 L311.3 120 L337 120 L338.1 119.3 L344.8 119.3 L347 119.3 L348.1 119.3 L349.2 119.3 L350.3 119.3 L351.4 119.3 L352.6 119.3 L353.7 118.7 L354.8 118.7 L355.9 118.7 L358.1 118.7 L359.2 118.7 L360.4 118 L361.5 117.3 L362.6 117.3 L363.7 116.6 L364.8 116.6 L365.9 116.6 L367 116.6 L368.2 116.6 L369.3 116.6 L373.7 116.6 L374.8 116.6 L375.9 116.6 L378.2 116.6 L379.3 116.6 L381.5 116.6 L382.6 116.6 L383.7 116 L386 115.3 L388.2 115.3 L389.3 115.3 L392.7 112.6 L393.8 109.3 L394.9 107.2 L396 105.9 L397.1 105.2 L398.2 105.2 L399.3 104.6 L400.5 103.2 L401.6 102.6 L402.7 102.6 L403.8 102.6 L404.9 102.6 L406 102.6 L407.1 102.6 L408.3 102.6 L409.4 101.9 L410.5 101.9 L411.6 101.2 L412.7 99.9 L413.8 98.5 L414.9 97.2 L416.1 97.2 L417.2 97.2 L418.3 96.5 L419.4 96.5 L421.6 95.8 L422.7 95.2 L423.8 95.2 L425 95.2 L426.1 94.5 L427.2 93.8 L428.3 93.8 L429.4 93.8 L430.5 93.8 L431.6 93.8 L432.8 93.8 L433.9 93.8 L435 93.8 L436.1 93.2 L437.2 93.2 L438.3 93.2 L439.4 92.5 L440.6 92.5 L441.7 92.5 L442.8 92.5 L443.9 92.5 L445 92.5 L446.1 91.8 L447.2 91.8 L448.4 91.8 L449.5 91.8 L450.6 91.8 L451.7 91.8 L452.8 91.8 L453.9 91.8 L455 91.8 L456.2 91.8 L458.4 91.8 L459.5 91.8 L460.6 91.8 L461.7 91.8 L462.8 91.8 L463.9 91.1 L465.1 91.1 L466.2 90.5 L467.3 90.5 L468.4 89.8 L469.5 89.8 L470.6 89.8 L471.7 89.8 L472.9 89.1 L474 89.1 L475.1 88.5 L476.2 88.5 L479.5 87.8 L480.7 87.8 L481.8 87.8 L482.9 87.8 L485.1 87.8 L486.2 87.1 L487.3 87.1 L488.5 87.1 L489.6 87.1 L490.7 86.4 L491.8 86.4 L492.9 86.4 L494 85.8 L495.1 85.8 L496.3 85.1 L497.4 85.1 L498.5 85.1 L499.6 85.1 L500.7 84.4 L501.8 84.4 L502.9 84.4 L504.1 84.4 L505.2 84.4 L506.3 84.4 L507.4 84.4 L508.5 84.4 L509.6 84.4 L511.8 83.8 L513 83.8 L514.1 83.8 L515.2 83.8 L516.3 83.8 L517.4 83.8 L519.6 83.8 L521.9 83.1 L523 82.4 L524.1 81.7 L525.2 81.7 L526.3 81.7 L527.4 81.7 L528.6 81.7 L529.7 81.7 L530.8 80.4 L531.9 80.4 L533 79.7 L534.1 79.7 L535.2 79.1 L536.4 79.1 L537.5 78.4 L538.6 78.4 L539.7 78.4 L540.8 78.4 L541.9 77.7 L543 77.7 L544.2 77.7 L545.3 77 L546.4 77 L547.5 77 L548.6 76.4 L549.7 75.7 L550.8 75 L551.9 73.7 L553.1 72.3 L554.2 71.7 L555.3 71.7 L556.4 71 L557.5 71 L558.6 71 L559.7 70.3 L560.9 69.7 L562 68.3 L563.1 67 L564.2 66.3 L565.3 66.3 L566.4 66.3 L567.5 65.6 L568.7 64.3 L569.8 64.3 L570.9 63.6 L572 62.3 L573.1 62.3 L574.2 62.3 L575.3 62.3 L576.5 61.6 L577.6 60.9 L578.7 60.9 L579.8 60.9 L580.9 58.9 L582 58.9 L583.1 58.3 L584.3 57.6 L585.4 56.9 L586.5 56.9 L587.6 56.2 L588.7 56.2 L589.8 56.2 L590.9 56.2 L592.1 56.2 L593.2 55.6 L594.3 55.6 L595.4 55.6 L596.5 55.6 L597.6 54.2 L598.7 54.2 L599.8 53.6 L601 53.6 L602.1 53.6 L603.2 53.6 L604.3 53.6 L605.4 53.6 L606.5 52.9 L607.6 52.2 L608.8 52.2 L609.9 52.2 L611 52.2 L612.1 52.2 L613.2 50.9 L614.3 50.9 L615.4 50.9 L616.6 50.9 L617.7 50.9 L618.8 50.2 L619.9 49.5 L621 48.9 L622.1 48.9 L623.2 48.2 L624.4 48.2 L625.5 48.2 L626.6 48.2 L627.7 48.2 L628.8 48.2 L629.9 48.2 L631 48.2 L632.2 48.2 L633.3 48.2 L634.4 48.2 L635.5 48.2 L636.6 48.2 L637.7 48.2 L638.8 48.2 L639.9 48.2 L641.1 47.5 L642.2 47.5 L643.3 47.5 L644.4 47.5 L645.5 46.8 L646.6 46.8 L647.7 45.5 L648.9 45.5 L650 45.5 L651.1 45.5 L652.2 44.8 L653.3 44.8 L654.4 44.8 L655.5 44.8 L656.7 44.8 L657.8 44.2 L658.9 42.1 L660 42.1 L661.1 41.5 L662.2 41.5 L663.3 40.8 L664.5 40.8 L665.6 40.8 L666.7 40.8 L667.8 40.8 L668.9 40.8 L670 40.8 L671.1 40.8 L672.3 40.8 L673.4 40.1 L674.5 39.5 L675.6 39.5 L676.7 39.5 L677.8 39.5 L678.9 39.5 L680.1 38.8 L681.2 38.8 L682.3 38.8 L683.4 38.1 L684.5 38.1 L685.6 38.1 L686.7 38.1 L687.8 38.1 L689 38.1 L690.1 38.1 L691.2 38.1 L692.3 38.1 L693.4 38.1 L694.5 38.1 L695.6 38.1 L696.8 38.1 L697.9 38.1 L699 38.1 L700.1 38.1 L701.2 38.1 L702.3 38.1 L703.4 38.1 L704.6 38.1 L705.7 38.1 L706.8 38.1 L707.9 38.1 L709 38.1 L710.1 38.1 L711.2 38.1 L712.4 38.1 L713.5 38.1 L714.6 38.1 L715.7 38.1 L716.8 38.1 L717.9 38.1 L721.3 38.1 L722.4 38.1 L724.6 38.1 L725.7 37.4 L727.9 37.4 L729.1 36.8 L730.2 36.1 L731.3 36.1 L732.4 36.1 L733.5 36.1 L734.6 36.1 L735.7 36.1 L736.9 35.4 L738 34.8 L740.2 34.8 L741.3 33.4 L742.4 33.4 L743.5 32.8 L744.7 32.8 L745.8 31.4 L746.9 31.4 L748 31.4 L750.2 31.4 L751.3 31.4 L752.5 31.4 L753.6 31.4 L754.7 30.7 L756.9 30.7 L758 30.7 L759.1 30.1 L760.3 29.4 L761.4 28.7 L762.5 28.7 L763.6 28.7 L764.7 28.7 L765.8 28.7 L766.9 28.7 L768.1 28.7 L769.2 27.4 L770.3 27.4 L771.4 27.4 L772.5 27.4 L773.6 27.4 L774.7 27.4 L775.8 26.7 L777 26.7 L778.1 26.7 L779.2 26.7 L780.3 26.7 L781.4 26.7 L782.5 26 L783.6 26 L784.8 26 L785.9 26 L787 26 L788.1 26 L789.2 26 L790.3 26 L791.4 26 L792.6 24.7 L793.7 24 L794.8 24 L795.9 23.4 L798.1 23.4 L799.2 23.4 L800.4 23.4 L801.5 23.4 L802.6 22.7 L803.7 22.7 L804.8 22.7 L805.9 22.7 L808.2 22.7 L810.4 22.7 L811.5 22.7 L812.6 22.7 L814.8 22.7 L815.9 22.7 L817.1 22.7 L818.2 22.7 L819.3 22 L821.5 22 L822.6 22 L826 22 L827.1 22 L828.2 22 L829.3 22 L830.4 22 L831.5 22 L832.7 22 L833.8 22 L834.9 20 L836 20.7" fill="none" stroke="#06b6d4" stroke-width="3" stroke-linecap="round" stroke-linejoin="round"/>
    <circle cx="836" cy="20.7" r="5" fill="#06b6d4" stroke="#fff" stroke-width="2"/>
    <text x="220" y="143" text-anchor="start" class="secondary" font-size="9">Jan 15, 2025</text><text x="528" y="143" text-anchor="middle" class="secondary" font-size="9">Oct 18, 2025</text><text x="836" y="143" text-anchor="end" class="secondary" font-size="9">Jul 22, 2026</text>
  </g>
    <text x="30" y="543" class="secondary" font-size="11">Updated Jul 22, 2026</text>
    <a href="https://github.com/MacRimi/repo-growth" target="_blank" aria-label="Open the Repo Growth project">
      <text x="886" y="543" fill="#8b5cf6" text-anchor="end" font-size="13" font-weight="700">Generated by Repo Growth ↗</text>
    </a>
  </g>
</svg>
