<?xml version="1.0" encoding="UTF-8"?>
<svg xmlns="http://www.w3.org/2000/svg" width="1000" height="957" viewBox="0 0 1000 957" role="img" aria-labelledby="title desc">
  <title id="title">ProxMenux growth for MacRimi/ProxMenux</title>
  <desc id="desc">Repository growth dashboard showing stars, forks, git clones over time.</desc>
  <defs>
    <linearGradient id="background" x1="0" y1="0" x2="1" y2="1">
      <stop offset="0" stop-color="#fafafa"/><stop offset="1" stop-color="#f4f4f5"/>
    </linearGradient>
    <linearGradient id="fill-stars" x1="0" y1="0" x2="0" y2="1"><stop offset="0" stop-color="#8b5cf6" stop-opacity=".24"/><stop offset="1" stop-color="#8b5cf6" stop-opacity="0"/></linearGradient><linearGradient id="fill-forks" x1="0" y1="0" x2="0" y2="1"><stop offset="0" stop-color="#06b6d4" stop-opacity=".24"/><stop offset="1" stop-color="#06b6d4" stop-opacity="0"/></linearGradient><linearGradient id="fill-clones" x1="0" y1="0" x2="0" y2="1"><stop offset="0" stop-color="#f59e0b" stop-opacity=".24"/><stop offset="1" stop-color="#f59e0b" stop-opacity="0"/></linearGradient>
    <filter id="shadow" x="-10%" y="-10%" width="120%" height="130%"><feDropShadow dx="0" dy="8" stdDeviation="14" flood-color="#18181b" flood-opacity=".08"/></filter>
    <style>
      :root { color-scheme: light dark; }
      .bg { fill: url(#background); }
      .surface { fill: #ffffff; stroke: #e4e4e7; }
      .panel { fill: #ffffff; stroke: #e4e4e7; }
      .primary { fill: #18181b; }
      .secondary { fill: #71717a; }
      .grid { stroke: #e4e4e7; }
      text { font-family: Inter, ui-sans-serif, system-ui, -apple-system, BlinkMacSystemFont, "Segoe UI", sans-serif; }
      @media (prefers-color-scheme: dark) {
        .bg { fill: #09090b; }
        .surface, .panel { fill: #111113; stroke: #27272a; }
        .primary { fill: #fafafa; }
        .secondary { fill: #a1a1aa; }
        .grid { stroke: #27272a; }
      }
    </style>
  </defs>
  <rect class="bg" width="1000" height="957" rx="28"/>
  <g transform="translate(42 38)">
    <rect x="0" y="0" width="916" height="881" rx="22" class="surface" filter="url(#shadow)"/>
    <text x="30" y="45" class="primary" font-size="26" font-weight="750" letter-spacing="-.5">ProxMenux growth</text>
    <text x="30" y="70" class="secondary" font-size="14">MacRimi/ProxMenux · Jan 15, 2025 – Sep 29, 2026</text>
    <g transform="translate(740 25)"><rect width="146" height="30" rx="15" fill="#8b5cf6" fill-opacity=".12"/><circle cx="17" cy="15" r="4" fill="#8b5cf6"/><text x="30" y="20" fill="#8b5cf6" font-size="11" font-weight="700" letter-spacing="1">LOCAL HISTORY</text></g>
    <g transform="translate(30 92)">
    <rect width="272" height="86" rx="16" class="panel"/>
    <rect x="16" y="17" width="6" height="52" rx="3" fill="#8b5cf6"/>
    <text x="38" y="34" class="secondary" font-size="12" font-weight="650" letter-spacing=".3">STARS</text>
    <text x="38" y="64" class="primary" font-size="27" font-weight="760" letter-spacing="-.5">3,052</text>
    <text x="246" y="63" text-anchor="end" fill="#8b5cf6" font-size="11" font-weight="650">+3,051 tracked</text>
  </g><g transform="translate(322 92)">
    <rect width="272" height="86" rx="16" class="panel"/>
    <rect x="16" y="17" width="6" height="52" rx="3" fill="#06b6d4"/>
    <text x="38" y="34" class="secondary" font-size="12" font-weight="650" letter-spacing=".3">FORKS</text>
    <text x="38" y="64" class="primary" font-size="27" font-weight="760" letter-spacing="-.5">157</text>
    <text x="246" y="63" text-anchor="end" fill="#06b6d4" font-size="11" font-weight="650">+157 tracked</text>
  </g><g transform="translate(614 92)">
    <rect width="272" height="86" rx="16" class="panel"/>
    <rect x="16" y="17" width="6" height="52" rx="3" fill="#f59e0b"/>
    <text x="38" y="34" class="secondary" font-size="12" font-weight="650" letter-spacing=".3">GIT CLONES</text>
    <text x="38" y="64" class="primary" font-size="27" font-weight="760" letter-spacing="-.5">36.9K</text>
    <text x="246" y="63" text-anchor="end" fill="#f59e0b" font-size="11" font-weight="650">+36.5K tracked</text>
  </g>
    <g transform="translate(30 197)">
    <rect width="856" height="201" rx="16" class="panel"/>
    <circle cx="20" cy="27" r="5" fill="#8b5cf6"/>
    <text x="34" y="31" class="primary" font-size="14" font-weight="700">Stars</text>
    <text x="20" y="62" class="primary" font-size="20" font-weight="750">3,052</text>
    <text x="20" y="83" class="secondary" font-size="11">range 1–3,052</text>
    <line x1="220" x2="836" y1="20" y2="20" class="grid" stroke-width="1" stroke-dasharray="3 6"/><text x="210" y="24" text-anchor="end" class="secondary" font-size="9">3,052</text><line x1="220" x2="836" y1="95" y2="95" class="grid" stroke-width="1" stroke-dasharray="3 6"/><text x="210" y="99" text-anchor="end" class="secondary" font-size="9">1,527</text><line x1="220" x2="836" y1="170" y2="170" class="grid" stroke-width="1" stroke-dasharray="3 6"/><text x="210" y="174" text-anchor="end" class="secondary" font-size="9">1</text>
    <path d="M220 170 L271.5 169.9 L279.4 169.9 L286.4 169.8 L287.3 169.8 L291.3 169.7 L292.3 169.7 L295.3 169.6 L301.2 169.6 L324 169.4 L325 169.3 L330.9 169.2 L332.9 169.1 L333.9 169.1 L334.9 169 L335.9 168.2 L336.9 167.1 L337.9 167.1 L338.8 166.9 L339.8 166.8 L340.8 166.7 L342.8 166.6 L343.8 166.5 L344.8 166.3 L345.8 166.3 L346.8 165.5 L347.8 164.5 L348.7 164 L349.7 163.6 L350.7 163.6 L351.7 163.5 L352.7 163.3 L356.7 163.2 L357.7 163 L358.6 162.9 L360.6 162.7 L361.6 162.6 L363.6 162.5 L364.6 162.4 L365.6 162.3 L367.6 162.2 L369.5 162.2 L370.5 162 L373.5 158.2 L374.5 154.9 L375.5 153.5 L376.5 151.7 L377.5 150 L378.5 148.9 L379.4 147.7 L380.4 146.8 L381.4 146.5 L382.4 146.1 L383.4 145.7 L384.4 145.4 L385.4 145.2 L386.4 144.7 L387.4 144.4 L388.4 143.8 L389.4 143.3 L390.3 142.8 L391.3 142.2 L392.3 141.8 L393.3 141.7 L394.3 141.3 L395.3 141 L396.3 140.6 L397.3 140.5 L399.3 140.2 L400.2 139.9 L401.2 139.7 L402.2 139.6 L403.2 139.4 L404.2 139.3 L405.2 139.2 L406.2 138.9 L407.2 138.6 L408.2 138.4 L409.2 138 L410.1 137.8 L411.1 137.7 L412.1 137.5 L413.1 137.4 L414.1 137.2 L415.1 137 L416.1 136.8 L417.1 136.6 L418.1 136.5 L419.1 136.3 L420.1 136.2 L421 136 L422 135.9 L423 135.8 L424 135.5 L425 135.1 L426 134.7 L427 134.6 L428 134.3 L429 134 L430 133.8 L431.9 133.5 L432.9 133.3 L433.9 133.1 L434.9 133 L435.9 132.6 L436.9 132.4 L437.9 132.3 L438.9 132.2 L439.9 132.1 L440.8 132 L441.8 131.9 L442.8 131.8 L443.8 131.6 L444.8 131.4 L445.8 131.3 L446.8 131.2 L447.8 131.1 L450.8 130.7 L451.7 130.7 L452.7 130.5 L453.7 130.3 L455.7 130.2 L456.7 129.8 L457.7 129.7 L458.7 129.3 L459.7 128.9 L460.7 128.6 L461.6 128.6 L462.6 128.5 L463.6 128.3 L464.6 128.1 L465.6 127.9 L466.6 127.6 L467.6 127.5 L468.6 127.3 L469.6 126.8 L470.6 126.5 L471.5 126.4 L472.5 126.1 L473.5 125.6 L474.5 125.1 L475.5 124.9 L476.5 124.5 L477.5 124.3 L479.5 124.1 L480.5 124 L481.5 123.8 L482.4 123.5 L483.4 123.2 L484.4 122.9 L486.4 122.5 L488.4 122.2 L489.4 122 L490.4 121.7 L491.4 121.6 L492.3 121.4 L493.3 121.3 L494.3 121.2 L495.3 121 L496.3 121 L497.3 120.8 L498.3 120.5 L499.3 120.4 L500.3 120.2 L501.3 120.1 L502.3 119.7 L503.2 119.5 L504.2 119.3 L505.2 118.9 L506.2 118.4 L507.2 117.9 L508.2 116.8 L509.2 115.7 L510.2 115 L511.2 114.3 L512.2 113.7 L513.1 112.2 L514.1 108.3 L515.1 105.8 L516.1 104.4 L517.1 103.9 L518.1 103.2 L519.1 102.6 L520.1 100.7 L521.1 98.9 L522.1 97.3 L523 96.7 L524 95.4 L525 94.8 L526 94.1 L527 93.4 L528 92.6 L529 92 L530 90.8 L531 90.5 L532 89.3 L533 89.1 L533.9 88.9 L534.9 88.4 L535.9 87.8 L536.9 87.3 L537.9 86.9 L538.9 86.6 L539.9 86.1 L540.9 85.5 L541.9 85 L542.9 82.2 L543.8 81 L544.8 80.2 L545.8 79.4 L546.8 78.9 L547.8 78.4 L548.8 77.9 L549.8 77.3 L550.8 77 L551.8 76.7 L552.8 76.5 L553.7 76.3 L554.7 75.8 L555.7 75.6 L556.7 74.9 L557.7 74.7 L558.7 74.5 L559.7 74.2 L560.7 73.9 L561.7 73.5 L562.7 73.2 L563.7 72.4 L564.6 72.1 L565.6 71.7 L566.6 71.6 L567.6 71.3 L568.6 70.9 L569.6 70.8 L570.6 70.4 L571.6 70 L572.6 69.8 L573.6 69.6 L574.5 69.2 L575.5 69 L576.5 68.7 L577.5 68.6 L578.5 68.3 L579.5 67.9 L580.5 67.6 L581.5 67.5 L582.5 66.7 L583.5 66 L584.5 65.7 L585.4 65.4 L586.4 65.1 L587.4 64.9 L588.4 64.6 L589.4 64.3 L590.4 64.1 L591.4 64 L592.4 63.8 L593.4 63.6 L594.4 62.9 L595.3 62.6 L596.3 62.2 L597.3 61.7 L598.3 61.5 L599.3 61.1 L600.3 60.8 L601.3 60.7 L602.3 60.6 L603.3 60.4 L604.3 60.1 L605.2 60 L606.2 59.8 L607.2 59.5 L608.2 57.5 L609.2 56.7 L610.2 55.8 L611.2 55.3 L612.2 55 L613.2 54.4 L614.2 53.8 L615.2 53.4 L616.1 52.9 L617.1 52.5 L618.1 52.4 L619.1 52 L620.1 51.6 L621.1 51.4 L622.1 51.2 L623.1 51 L624.1 50.7 L625.1 50.3 L626 49.9 L627 49.9 L628 49.6 L629 49.3 L630 49.2 L631 49.1 L632 49 L633 48.9 L634 48.8 L635 48.7 L635.9 48.6 L636.9 48.4 L637.9 48.3 L638.9 48.3 L639.9 48.1 L640.9 47.9 L641.9 47.6 L642.9 47.5 L643.9 47.4 L644.9 47.3 L645.9 46.8 L646.8 46.6 L647.8 46.3 L648.8 46.2 L649.8 45.8 L650.8 45.7 L651.8 45.6 L652.8 45.5 L653.8 45.3 L654.8 45 L655.8 44.8 L656.7 44.7 L657.7 44.5 L658.7 44.4 L659.7 44.3 L660.7 44.1 L661.7 44 L662.7 43.9 L665.7 43.8 L666.6 43.6 L668.6 43.5 L669.6 43.4 L671.6 43.3 L672.6 43.2 L673.6 42.9 L674.6 42.7 L675.6 42.5 L676.6 42.3 L677.5 42.2 L678.5 41.9 L679.5 41.8 L680.5 41.7 L682.5 41.5 L683.5 41.5 L684.5 41.4 L685.5 41.4 L686.5 41.3 L687.4 41.2 L688.4 41.1 L689.4 41 L691.4 40.9 L692.4 40.7 L693.4 40.6 L694.4 40.5 L695.4 40.2 L697.4 40.2 L698.3 40.1 L699.3 39.8 L700.3 39.7 L701.3 39.5 L702.3 39.3 L703.3 39.3 L704.3 39.1 L705.3 39 L706.3 38.8 L707.3 38.6 L708.2 38.3 L709.2 38.2 L710.2 38.2 L711.2 38 L712.2 37.8 L713.2 37.8 L714.2 37.6 L715.2 37.6 L716.2 37.5 L717.2 37.4 L718.1 37.2 L719.1 37.1 L720.1 36.9 L721.1 36.9 L722.1 36.8 L723.1 36.7 L724.1 36.6 L725.1 36.5 L726.1 36.3 L727.1 36.3 L728.1 36.2 L729 36.2 L730 36.1 L731 35.9 L732 35.9 L734 35.8 L735 35.7 L736 35.6 L737 35.4 L738 35.4 L738.9 35.3 L739.9 35.2 L740.9 35.1 L742.9 34.9 L744.9 34.8 L745.9 34.7 L746.9 34.6 L748.8 34.5 L749.8 34.4 L750.8 34.3 L751.8 34.1 L752.8 34.1 L754.8 33.9 L755.8 33.8 L758.8 33.7 L759.7 33.4 L760.7 33.4 L761.7 33.3 L762.7 33.2 L763.7 33.1 L764.7 33.1 L765.7 32.6 L766.7 31.8 L767.7 31.8 L768.7 31.6 L769.6 31.5 L770.6 31.4 L771.6 31.3 L772.6 31.3 L773.6 31.3 L774.6 31.1 L775.6 31.1 L776.6 31 L777.6 30.9 L778.6 30.8 L779.5 30.8 L780.5 30.7 L781.5 30.6 L782.5 30.6 L783.5 30.5 L784.5 30.3 L785.5 30.2 L786.5 30.1 L787.5 30 L788.5 29.9 L789.5 29.8 L790.4 29.6 L791.4 29.6 L792.4 29.5 L793.4 29.3 L794.4 29.2 L795.4 29.2 L796.4 29.1 L797.4 29 L798.4 28.8 L799.4 28.5 L800.3 27.5 L801.3 27.2 L802.3 26.8 L803.3 26.8 L804.3 26.7 L805.3 26.6 L806.3 26.5 L807.3 26.4 L808.3 26.2 L809.3 26.2 L810.3 26.1 L811.2 26 L812.2 25.3 L813.2 24.8 L814.2 24.6 L815.2 24.6 L816.2 24.5 L817.2 24.5 L818.2 24.3 L819.2 24.2 L820.2 24 L821.1 23.9 L822.1 23.8 L823.1 23.8 L824.1 23.8 L825.1 23.6 L826.1 23.5 L827.1 23.5 L828.1 23.3 L829.1 23.2 L830.1 23.1 L831 23 L832 22.9 L833 22.8 L834 22.2 L835 20.5 L836 20 L836 170 L220 170 Z" fill="url(#fill-stars)"/>
    <path d="M220 170 L271.5 169.9 L279.4 169.9 L286.4 169.8 L287.3 169.8 L291.3 169.7 L292.3 169.7 L295.3 169.6 L301.2 169.6 L324 169.4 L325 169.3 L330.9 169.2 L332.9 169.1 L333.9 169.1 L334.9 169 L335.9 168.2 L336.9 167.1 L337.9 167.1 L338.8 166.9 L339.8 166.8 L340.8 166.7 L342.8 166.6 L343.8 166.5 L344.8 166.3 L345.8 166.3 L346.8 165.5 L347.8 164.5 L348.7 164 L349.7 163.6 L350.7 163.6 L351.7 163.5 L352.7 163.3 L356.7 163.2 L357.7 163 L358.6 162.9 L360.6 162.7 L361.6 162.6 L363.6 162.5 L364.6 162.4 L365.6 162.3 L367.6 162.2 L369.5 162.2 L370.5 162 L373.5 158.2 L374.5 154.9 L375.5 153.5 L376.5 151.7 L377.5 150 L378.5 148.9 L379.4 147.7 L380.4 146.8 L381.4 146.5 L382.4 146.1 L383.4 145.7 L384.4 145.4 L385.4 145.2 L386.4 144.7 L387.4 144.4 L388.4 143.8 L389.4 143.3 L390.3 142.8 L391.3 142.2 L392.3 141.8 L393.3 141.7 L394.3 141.3 L395.3 141 L396.3 140.6 L397.3 140.5 L399.3 140.2 L400.2 139.9 L401.2 139.7 L402.2 139.6 L403.2 139.4 L404.2 139.3 L405.2 139.2 L406.2 138.9 L407.2 138.6 L408.2 138.4 L409.2 138 L410.1 137.8 L411.1 137.7 L412.1 137.5 L413.1 137.4 L414.1 137.2 L415.1 137 L416.1 136.8 L417.1 136.6 L418.1 136.5 L419.1 136.3 L420.1 136.2 L421 136 L422 135.9 L423 135.8 L424 135.5 L425 135.1 L426 134.7 L427 134.6 L428 134.3 L429 134 L430 133.8 L431.9 133.5 L432.9 133.3 L433.9 133.1 L434.9 133 L435.9 132.6 L436.9 132.4 L437.9 132.3 L438.9 132.2 L439.9 132.1 L440.8 132 L441.8 131.9 L442.8 131.8 L443.8 131.6 L444.8 131.4 L445.8 131.3 L446.8 131.2 L447.8 131.1 L450.8 130.7 L451.7 130.7 L452.7 130.5 L453.7 130.3 L455.7 130.2 L456.7 129.8 L457.7 129.7 L458.7 129.3 L459.7 128.9 L460.7 128.6 L461.6 128.6 L462.6 128.5 L463.6 128.3 L464.6 128.1 L465.6 127.9 L466.6 127.6 L467.6 127.5 L468.6 127.3 L469.6 126.8 L470.6 126.5 L471.5 126.4 L472.5 126.1 L473.5 125.6 L474.5 125.1 L475.5 124.9 L476.5 124.5 L477.5 124.3 L479.5 124.1 L480.5 124 L481.5 123.8 L482.4 123.5 L483.4 123.2 L484.4 122.9 L486.4 122.5 L488.4 122.2 L489.4 122 L490.4 121.7 L491.4 121.6 L492.3 121.4 L493.3 121.3 L494.3 121.2 L495.3 121 L496.3 121 L497.3 120.8 L498.3 120.5 L499.3 120.4 L500.3 120.2 L501.3 120.1 L502.3 119.7 L503.2 119.5 L504.2 119.3 L505.2 118.9 L506.2 118.4 L507.2 117.9 L508.2 116.8 L509.2 115.7 L510.2 115 L511.2 114.3 L512.2 113.7 L513.1 112.2 L514.1 108.3 L515.1 105.8 L516.1 104.4 L517.1 103.9 L518.1 103.2 L519.1 102.6 L520.1 100.7 L521.1 98.9 L522.1 97.3 L523 96.7 L524 95.4 L525 94.8 L526 94.1 L527 93.4 L528 92.6 L529 92 L530 90.8 L531 90.5 L532 89.3 L533 89.1 L533.9 88.9 L534.9 88.4 L535.9 87.8 L536.9 87.3 L537.9 86.9 L538.9 86.6 L539.9 86.1 L540.9 85.5 L541.9 85 L542.9 82.2 L543.8 81 L544.8 80.2 L545.8 79.4 L546.8 78.9 L547.8 78.4 L548.8 77.9 L549.8 77.3 L550.8 77 L551.8 76.7 L552.8 76.5 L553.7 76.3 L554.7 75.8 L555.7 75.6 L556.7 74.9 L557.7 74.7 L558.7 74.5 L559.7 74.2 L560.7 73.9 L561.7 73.5 L562.7 73.2 L563.7 72.4 L564.6 72.1 L565.6 71.7 L566.6 71.6 L567.6 71.3 L568.6 70.9 L569.6 70.8 L570.6 70.4 L571.6 70 L572.6 69.8 L573.6 69.6 L574.5 69.2 L575.5 69 L576.5 68.7 L577.5 68.6 L578.5 68.3 L579.5 67.9 L580.5 67.6 L581.5 67.5 L582.5 66.7 L583.5 66 L584.5 65.7 L585.4 65.4 L586.4 65.1 L587.4 64.9 L588.4 64.6 L589.4 64.3 L590.4 64.1 L591.4 64 L592.4 63.8 L593.4 63.6 L594.4 62.9 L595.3 62.6 L596.3 62.2 L597.3 61.7 L598.3 61.5 L599.3 61.1 L600.3 60.8 L601.3 60.7 L602.3 60.6 L603.3 60.4 L604.3 60.1 L605.2 60 L606.2 59.8 L607.2 59.5 L608.2 57.5 L609.2 56.7 L610.2 55.8 L611.2 55.3 L612.2 55 L613.2 54.4 L614.2 53.8 L615.2 53.4 L616.1 52.9 L617.1 52.5 L618.1 52.4 L619.1 52 L620.1 51.6 L621.1 51.4 L622.1 51.2 L623.1 51 L624.1 50.7 L625.1 50.3 L626 49.9 L627 49.9 L628 49.6 L629 49.3 L630 49.2 L631 49.1 L632 49 L633 48.9 L634 48.8 L635 48.7 L635.9 48.6 L636.9 48.4 L637.9 48.3 L638.9 48.3 L639.9 48.1 L640.9 47.9 L641.9 47.6 L642.9 47.5 L643.9 47.4 L644.9 47.3 L645.9 46.8 L646.8 46.6 L647.8 46.3 L648.8 46.2 L649.8 45.8 L650.8 45.7 L651.8 45.6 L652.8 45.5 L653.8 45.3 L654.8 45 L655.8 44.8 L656.7 44.7 L657.7 44.5 L658.7 44.4 L659.7 44.3 L660.7 44.1 L661.7 44 L662.7 43.9 L665.7 43.8 L666.6 43.6 L668.6 43.5 L669.6 43.4 L671.6 43.3 L672.6 43.2 L673.6 42.9 L674.6 42.7 L675.6 42.5 L676.6 42.3 L677.5 42.2 L678.5 41.9 L679.5 41.8 L680.5 41.7 L682.5 41.5 L683.5 41.5 L684.5 41.4 L685.5 41.4 L686.5 41.3 L687.4 41.2 L688.4 41.1 L689.4 41 L691.4 40.9 L692.4 40.7 L693.4 40.6 L694.4 40.5 L695.4 40.2 L697.4 40.2 L698.3 40.1 L699.3 39.8 L700.3 39.7 L701.3 39.5 L702.3 39.3 L703.3 39.3 L704.3 39.1 L705.3 39 L706.3 38.8 L707.3 38.6 L708.2 38.3 L709.2 38.2 L710.2 38.2 L711.2 38 L712.2 37.8 L713.2 37.8 L714.2 37.6 L715.2 37.6 L716.2 37.5 L717.2 37.4 L718.1 37.2 L719.1 37.1 L720.1 36.9 L721.1 36.9 L722.1 36.8 L723.1 36.7 L724.1 36.6 L725.1 36.5 L726.1 36.3 L727.1 36.3 L728.1 36.2 L729 36.2 L730 36.1 L731 35.9 L732 35.9 L734 35.8 L735 35.7 L736 35.6 L737 35.4 L738 35.4 L738.9 35.3 L739.9 35.2 L740.9 35.1 L742.9 34.9 L744.9 34.8 L745.9 34.7 L746.9 34.6 L748.8 34.5 L749.8 34.4 L750.8 34.3 L751.8 34.1 L752.8 34.1 L754.8 33.9 L755.8 33.8 L758.8 33.7 L759.7 33.4 L760.7 33.4 L761.7 33.3 L762.7 33.2 L763.7 33.1 L764.7 33.1 L765.7 32.6 L766.7 31.8 L767.7 31.8 L768.7 31.6 L769.6 31.5 L770.6 31.4 L771.6 31.3 L772.6 31.3 L773.6 31.3 L774.6 31.1 L775.6 31.1 L776.6 31 L777.6 30.9 L778.6 30.8 L779.5 30.8 L780.5 30.7 L781.5 30.6 L782.5 30.6 L783.5 30.5 L784.5 30.3 L785.5 30.2 L786.5 30.1 L787.5 30 L788.5 29.9 L789.5 29.8 L790.4 29.6 L791.4 29.6 L792.4 29.5 L793.4 29.3 L794.4 29.2 L795.4 29.2 L796.4 29.1 L797.4 29 L798.4 28.8 L799.4 28.5 L800.3 27.5 L801.3 27.2 L802.3 26.8 L803.3 26.8 L804.3 26.7 L805.3 26.6 L806.3 26.5 L807.3 26.4 L808.3 26.2 L809.3 26.2 L810.3 26.1 L811.2 26 L812.2 25.3 L813.2 24.8 L814.2 24.6 L815.2 24.6 L816.2 24.5 L817.2 24.5 L818.2 24.3 L819.2 24.2 L820.2 24 L821.1 23.9 L822.1 23.8 L823.1 23.8 L824.1 23.8 L825.1 23.6 L826.1 23.5 L827.1 23.5 L828.1 23.3 L829.1 23.2 L830.1 23.1 L831 23 L832 22.9 L833 22.8 L834 22.2 L835 20.5 L836 20" fill="none" stroke="#8b5cf6" stroke-width="3" stroke-linecap="round" stroke-linejoin="round"/>
    <circle cx="836" cy="20" r="5" fill="#8b5cf6" stroke="#fff" stroke-width="2"/>
    <text x="220" y="194" text-anchor="start" class="secondary" font-size="9">Jan 15, 2025</text><text x="528" y="194" text-anchor="middle" class="secondary" font-size="9">Nov 22, 2025</text><text x="836" y="194" text-anchor="end" class="secondary" font-size="9">Sep 29, 2026</text>
  </g><g transform="translate(30 414)">
    <rect width="856" height="201" rx="16" class="panel"/>
    <circle cx="20" cy="27" r="5" fill="#06b6d4"/>
    <text x="34" y="31" class="primary" font-size="14" font-weight="700">Forks</text>
    <text x="20" y="62" class="primary" font-size="20" font-weight="750">157</text>
    <text x="20" y="83" class="secondary" font-size="11">range 0–157</text>
    <line x1="220" x2="836" y1="20" y2="20" class="grid" stroke-width="1" stroke-dasharray="3 6"/><text x="210" y="24" text-anchor="end" class="secondary" font-size="9">157</text><line x1="220" x2="836" y1="95" y2="95" class="grid" stroke-width="1" stroke-dasharray="3 6"/><text x="210" y="99" text-anchor="end" class="secondary" font-size="9">79</text><line x1="220" x2="836" y1="170" y2="170" class="grid" stroke-width="1" stroke-dasharray="3 6"/><text x="210" y="174" text-anchor="end" class="secondary" font-size="9">0</text>
    <path d="M220 170 L271.5 170 L279.4 170 L286.4 170 L287.3 170 L291.3 170 L292.3 170 L295.3 170 L301.2 170 L324 170 L325 169 L330.9 169 L332.9 169 L333.9 169 L334.9 169 L335.9 169 L336.9 169 L337.9 169 L338.8 168.1 L339.8 168.1 L340.8 168.1 L342.8 168.1 L343.8 168.1 L344.8 167.1 L345.8 166.2 L346.8 166.2 L347.8 165.2 L348.7 165.2 L349.7 165.2 L350.7 165.2 L351.7 165.2 L352.7 165.2 L356.7 165.2 L357.7 165.2 L358.6 165.2 L360.6 165.2 L361.6 165.2 L363.6 165.2 L364.6 165.2 L365.6 164.3 L367.6 163.3 L369.5 163.3 L370.5 163.3 L373.5 159.5 L374.5 154.7 L375.5 151.8 L376.5 149.9 L377.5 149 L378.5 149 L379.4 148 L380.4 146.1 L381.4 145.2 L382.4 145.2 L383.4 145.2 L384.4 145.2 L385.4 145.2 L386.4 145.2 L387.4 145.2 L388.4 144.2 L389.4 144.2 L390.3 143.2 L391.3 141.3 L392.3 139.4 L393.3 137.5 L394.3 137.5 L395.3 137.5 L396.3 136.6 L397.3 136.6 L399.3 135.6 L400.2 134.6 L401.2 134.6 L402.2 134.6 L403.2 133.7 L404.2 132.7 L405.2 132.7 L406.2 132.7 L407.2 132.7 L408.2 132.7 L409.2 132.7 L410.1 132.7 L411.1 132.7 L412.1 131.8 L413.1 131.8 L414.1 131.8 L415.1 130.8 L416.1 130.8 L417.1 130.8 L418.1 130.8 L419.1 130.8 L420.1 130.8 L421 129.9 L422 129.9 L423 129.9 L424 129.9 L425 129.9 L426 129.9 L427 129.9 L428 129.9 L429 129.9 L430 129.9 L431.9 129.9 L432.9 129.9 L433.9 129.9 L434.9 129.9 L435.9 129.9 L436.9 128.9 L437.9 128.9 L438.9 128 L439.9 128 L440.8 127 L441.8 127 L442.8 127 L443.8 127 L444.8 126.1 L445.8 126.1 L446.8 125.1 L447.8 125.1 L450.8 124.1 L451.7 124.1 L452.7 124.1 L453.7 124.1 L455.7 124.1 L456.7 123.2 L457.7 123.2 L458.7 123.2 L459.7 123.2 L460.7 122.2 L461.6 122.2 L462.6 122.2 L463.6 121.3 L464.6 121.3 L465.6 120.3 L466.6 120.3 L467.6 120.3 L468.6 120.3 L469.6 119.4 L470.6 119.4 L471.5 119.4 L472.5 119.4 L473.5 119.4 L474.5 119.4 L475.5 119.4 L476.5 119.4 L477.5 119.4 L479.5 118.4 L480.5 118.4 L481.5 118.4 L482.4 118.4 L483.4 118.4 L484.4 118.4 L486.4 118.4 L488.4 117.5 L489.4 116.5 L490.4 115.5 L491.4 115.5 L492.3 115.5 L493.3 115.5 L494.3 115.5 L495.3 115.5 L496.3 113.6 L497.3 113.6 L498.3 112.7 L499.3 112.7 L500.3 111.7 L501.3 111.7 L502.3 110.8 L503.2 110.8 L504.2 110.8 L505.2 110.8 L506.2 109.8 L507.2 109.8 L508.2 109.8 L509.2 108.9 L510.2 108.9 L511.2 108.9 L512.2 107.9 L513.1 106.9 L514.1 106 L515.1 104.1 L516.1 102.2 L517.1 101.2 L518.1 101.2 L519.1 100.3 L520.1 100.3 L521.1 100.3 L522.1 99.3 L523 98.3 L524 96.4 L525 94.5 L526 93.6 L527 93.6 L528 93.6 L529 92.6 L530 90.7 L531 90.7 L532 89.7 L533 87.8 L533.9 87.8 L534.9 87.8 L535.9 87.8 L536.9 86.9 L537.9 85.9 L538.9 85.9 L539.9 85.9 L540.9 83.1 L541.9 83.1 L542.9 82.1 L543.8 81.1 L544.8 80.2 L545.8 80.2 L546.8 79.2 L547.8 79.2 L548.8 79.2 L549.8 79.2 L550.8 79.2 L551.8 78.3 L552.8 78.3 L553.7 78.3 L554.7 78.3 L555.7 76.4 L556.7 76.4 L557.7 75.4 L558.7 75.4 L559.7 75.4 L560.7 75.4 L561.7 75.4 L562.7 75.4 L563.7 74.5 L564.6 73.5 L565.6 73.5 L566.6 73.5 L567.6 73.5 L568.6 73.5 L569.6 71.6 L570.6 71.6 L571.6 71.6 L572.6 71.6 L573.6 71.6 L574.5 70.6 L575.5 69.7 L576.5 68.7 L577.5 68.7 L578.5 67.8 L579.5 67.8 L580.5 67.8 L581.5 67.8 L582.5 67.8 L583.5 67.8 L584.5 67.8 L585.4 67.8 L586.4 67.8 L587.4 67.8 L588.4 67.8 L589.4 67.8 L590.4 67.8 L591.4 67.8 L592.4 67.8 L593.4 67.8 L594.4 66.8 L595.3 66.8 L596.3 66.8 L597.3 66.8 L598.3 65.9 L599.3 65.9 L600.3 63.9 L601.3 63.9 L602.3 63.9 L603.3 63.9 L604.3 63 L605.2 63 L606.2 63 L607.2 63 L608.2 63 L609.2 62 L610.2 59.2 L611.2 59.2 L612.2 58.2 L613.2 58.2 L614.2 57.3 L615.2 57.3 L616.1 57.3 L617.1 57.3 L618.1 57.3 L619.1 57.3 L620.1 57.3 L621.1 57.3 L622.1 57.3 L623.1 56.3 L624.1 55.4 L625.1 55.4 L626 55.4 L627 55.4 L628 55.4 L629 54.4 L630 54.4 L631 54.4 L632 53.4 L633 53.4 L634 53.4 L635 53.4 L635.9 53.4 L636.9 53.4 L637.9 53.4 L638.9 53.4 L639.9 53.4 L640.9 53.4 L641.9 53.4 L642.9 53.4 L643.9 53.4 L644.9 53.4 L645.9 53.4 L646.8 53.4 L647.8 53.4 L648.8 53.4 L649.8 53.4 L650.8 53.4 L651.8 53.4 L652.8 53.4 L653.8 53.4 L654.8 53.4 L655.8 53.4 L656.7 53.4 L657.7 53.4 L658.7 53.4 L659.7 53.4 L660.7 53.4 L661.7 53.4 L662.7 53.4 L665.7 53.4 L666.6 53.4 L668.6 53.4 L669.6 52.5 L671.6 52.5 L672.6 51.5 L673.6 50.6 L674.6 50.6 L675.6 50.6 L676.6 50.6 L677.5 50.6 L678.5 50.6 L679.5 49.6 L680.5 48.7 L682.5 48.7 L683.5 46.8 L684.5 46.8 L685.5 45.8 L686.5 45.8 L687.4 43.9 L688.4 43.9 L689.4 43.9 L691.4 43.9 L692.4 43.9 L693.4 43.9 L694.4 43.9 L695.4 42.9 L697.4 42.9 L698.3 42.9 L699.3 42 L700.3 41 L701.3 40.1 L702.3 40.1 L703.3 40.1 L704.3 40.1 L705.3 40.1 L706.3 40.1 L707.3 40.1 L708.2 38.2 L709.2 38.2 L710.2 38.2 L711.2 38.2 L712.2 38.2 L713.2 38.2 L714.2 37.2 L715.2 37.2 L716.2 37.2 L717.2 37.2 L718.1 37.2 L719.1 37.2 L720.1 36.2 L721.1 36.2 L722.1 36.2 L723.1 36.2 L724.1 36.2 L725.1 36.2 L726.1 36.2 L727.1 36.2 L728.1 36.2 L729 34.3 L730 33.4 L731 33.4 L732 32.4 L734 32.4 L735 32.4 L736 32.4 L737 32.4 L738 31.5 L738.9 31.5 L739.9 31.5 L740.9 31.5 L742.9 31.5 L744.9 31.5 L745.9 31.5 L746.9 31.5 L748.8 31.5 L749.8 31.5 L750.8 31.5 L751.8 31.5 L752.8 30.5 L754.8 30.5 L755.8 30.5 L758.8 30.5 L759.7 30.5 L760.7 30.5 L761.7 30.5 L762.7 30.5 L763.7 30.5 L764.7 30.5 L765.7 30.5 L766.7 27.6 L767.7 28.6 L768.7 27.6 L769.6 27.6 L770.6 26.7 L771.6 26.7 L772.6 26.7 L773.6 27.6 L774.6 27.6 L775.6 27.6 L776.6 27.6 L777.6 26.7 L778.6 26.7 L779.5 25.7 L780.5 25.7 L781.5 25.7 L782.5 25.7 L783.5 25.7 L784.5 25.7 L785.5 24.8 L786.5 24.8 L787.5 24.8 L788.5 24.8 L789.5 23.8 L790.4 24.8 L791.4 24.8 L792.4 24.8 L793.4 23.8 L794.4 23.8 L795.4 23.8 L796.4 23.8 L797.4 23.8 L798.4 23.8 L799.4 23.8 L800.3 23.8 L801.3 23.8 L802.3 23.8 L803.3 23.8 L804.3 23.8 L805.3 24.8 L806.3 24.8 L807.3 24.8 L808.3 24.8 L809.3 24.8 L810.3 24.8 L811.2 24.8 L812.2 24.8 L813.2 24.8 L814.2 24.8 L815.2 23.8 L816.2 23.8 L817.2 22.9 L818.2 22.9 L819.2 22.9 L820.2 22.9 L821.1 22.9 L822.1 21.9 L823.1 21.9 L824.1 21.9 L825.1 21.9 L826.1 21.9 L827.1 21 L828.1 21 L829.1 21 L830.1 21 L831 21 L832 21 L833 21 L834 21 L835 21 L836 20 L836 170 L220 170 Z" fill="url(#fill-forks)"/>
    <path d="M220 170 L271.5 170 L279.4 170 L286.4 170 L287.3 170 L291.3 170 L292.3 170 L295.3 170 L301.2 170 L324 170 L325 169 L330.9 169 L332.9 169 L333.9 169 L334.9 169 L335.9 169 L336.9 169 L337.9 169 L338.8 168.1 L339.8 168.1 L340.8 168.1 L342.8 168.1 L343.8 168.1 L344.8 167.1 L345.8 166.2 L346.8 166.2 L347.8 165.2 L348.7 165.2 L349.7 165.2 L350.7 165.2 L351.7 165.2 L352.7 165.2 L356.7 165.2 L357.7 165.2 L358.6 165.2 L360.6 165.2 L361.6 165.2 L363.6 165.2 L364.6 165.2 L365.6 164.3 L367.6 163.3 L369.5 163.3 L370.5 163.3 L373.5 159.5 L374.5 154.7 L375.5 151.8 L376.5 149.9 L377.5 149 L378.5 149 L379.4 148 L380.4 146.1 L381.4 145.2 L382.4 145.2 L383.4 145.2 L384.4 145.2 L385.4 145.2 L386.4 145.2 L387.4 145.2 L388.4 144.2 L389.4 144.2 L390.3 143.2 L391.3 141.3 L392.3 139.4 L393.3 137.5 L394.3 137.5 L395.3 137.5 L396.3 136.6 L397.3 136.6 L399.3 135.6 L400.2 134.6 L401.2 134.6 L402.2 134.6 L403.2 133.7 L404.2 132.7 L405.2 132.7 L406.2 132.7 L407.2 132.7 L408.2 132.7 L409.2 132.7 L410.1 132.7 L411.1 132.7 L412.1 131.8 L413.1 131.8 L414.1 131.8 L415.1 130.8 L416.1 130.8 L417.1 130.8 L418.1 130.8 L419.1 130.8 L420.1 130.8 L421 129.9 L422 129.9 L423 129.9 L424 129.9 L425 129.9 L426 129.9 L427 129.9 L428 129.9 L429 129.9 L430 129.9 L431.9 129.9 L432.9 129.9 L433.9 129.9 L434.9 129.9 L435.9 129.9 L436.9 128.9 L437.9 128.9 L438.9 128 L439.9 128 L440.8 127 L441.8 127 L442.8 127 L443.8 127 L444.8 126.1 L445.8 126.1 L446.8 125.1 L447.8 125.1 L450.8 124.1 L451.7 124.1 L452.7 124.1 L453.7 124.1 L455.7 124.1 L456.7 123.2 L457.7 123.2 L458.7 123.2 L459.7 123.2 L460.7 122.2 L461.6 122.2 L462.6 122.2 L463.6 121.3 L464.6 121.3 L465.6 120.3 L466.6 120.3 L467.6 120.3 L468.6 120.3 L469.6 119.4 L470.6 119.4 L471.5 119.4 L472.5 119.4 L473.5 119.4 L474.5 119.4 L475.5 119.4 L476.5 119.4 L477.5 119.4 L479.5 118.4 L480.5 118.4 L481.5 118.4 L482.4 118.4 L483.4 118.4 L484.4 118.4 L486.4 118.4 L488.4 117.5 L489.4 116.5 L490.4 115.5 L491.4 115.5 L492.3 115.5 L493.3 115.5 L494.3 115.5 L495.3 115.5 L496.3 113.6 L497.3 113.6 L498.3 112.7 L499.3 112.7 L500.3 111.7 L501.3 111.7 L502.3 110.8 L503.2 110.8 L504.2 110.8 L505.2 110.8 L506.2 109.8 L507.2 109.8 L508.2 109.8 L509.2 108.9 L510.2 108.9 L511.2 108.9 L512.2 107.9 L513.1 106.9 L514.1 106 L515.1 104.1 L516.1 102.2 L517.1 101.2 L518.1 101.2 L519.1 100.3 L520.1 100.3 L521.1 100.3 L522.1 99.3 L523 98.3 L524 96.4 L525 94.5 L526 93.6 L527 93.6 L528 93.6 L529 92.6 L530 90.7 L531 90.7 L532 89.7 L533 87.8 L533.9 87.8 L534.9 87.8 L535.9 87.8 L536.9 86.9 L537.9 85.9 L538.9 85.9 L539.9 85.9 L540.9 83.1 L541.9 83.1 L542.9 82.1 L543.8 81.1 L544.8 80.2 L545.8 80.2 L546.8 79.2 L547.8 79.2 L548.8 79.2 L549.8 79.2 L550.8 79.2 L551.8 78.3 L552.8 78.3 L553.7 78.3 L554.7 78.3 L555.7 76.4 L556.7 76.4 L557.7 75.4 L558.7 75.4 L559.7 75.4 L560.7 75.4 L561.7 75.4 L562.7 75.4 L563.7 74.5 L564.6 73.5 L565.6 73.5 L566.6 73.5 L567.6 73.5 L568.6 73.5 L569.6 71.6 L570.6 71.6 L571.6 71.6 L572.6 71.6 L573.6 71.6 L574.5 70.6 L575.5 69.7 L576.5 68.7 L577.5 68.7 L578.5 67.8 L579.5 67.8 L580.5 67.8 L581.5 67.8 L582.5 67.8 L583.5 67.8 L584.5 67.8 L585.4 67.8 L586.4 67.8 L587.4 67.8 L588.4 67.8 L589.4 67.8 L590.4 67.8 L591.4 67.8 L592.4 67.8 L593.4 67.8 L594.4 66.8 L595.3 66.8 L596.3 66.8 L597.3 66.8 L598.3 65.9 L599.3 65.9 L600.3 63.9 L601.3 63.9 L602.3 63.9 L603.3 63.9 L604.3 63 L605.2 63 L606.2 63 L607.2 63 L608.2 63 L609.2 62 L610.2 59.2 L611.2 59.2 L612.2 58.2 L613.2 58.2 L614.2 57.3 L615.2 57.3 L616.1 57.3 L617.1 57.3 L618.1 57.3 L619.1 57.3 L620.1 57.3 L621.1 57.3 L622.1 57.3 L623.1 56.3 L624.1 55.4 L625.1 55.4 L626 55.4 L627 55.4 L628 55.4 L629 54.4 L630 54.4 L631 54.4 L632 53.4 L633 53.4 L634 53.4 L635 53.4 L635.9 53.4 L636.9 53.4 L637.9 53.4 L638.9 53.4 L639.9 53.4 L640.9 53.4 L641.9 53.4 L642.9 53.4 L643.9 53.4 L644.9 53.4 L645.9 53.4 L646.8 53.4 L647.8 53.4 L648.8 53.4 L649.8 53.4 L650.8 53.4 L651.8 53.4 L652.8 53.4 L653.8 53.4 L654.8 53.4 L655.8 53.4 L656.7 53.4 L657.7 53.4 L658.7 53.4 L659.7 53.4 L660.7 53.4 L661.7 53.4 L662.7 53.4 L665.7 53.4 L666.6 53.4 L668.6 53.4 L669.6 52.5 L671.6 52.5 L672.6 51.5 L673.6 50.6 L674.6 50.6 L675.6 50.6 L676.6 50.6 L677.5 50.6 L678.5 50.6 L679.5 49.6 L680.5 48.7 L682.5 48.7 L683.5 46.8 L684.5 46.8 L685.5 45.8 L686.5 45.8 L687.4 43.9 L688.4 43.9 L689.4 43.9 L691.4 43.9 L692.4 43.9 L693.4 43.9 L694.4 43.9 L695.4 42.9 L697.4 42.9 L698.3 42.9 L699.3 42 L700.3 41 L701.3 40.1 L702.3 40.1 L703.3 40.1 L704.3 40.1 L705.3 40.1 L706.3 40.1 L707.3 40.1 L708.2 38.2 L709.2 38.2 L710.2 38.2 L711.2 38.2 L712.2 38.2 L713.2 38.2 L714.2 37.2 L715.2 37.2 L716.2 37.2 L717.2 37.2 L718.1 37.2 L719.1 37.2 L720.1 36.2 L721.1 36.2 L722.1 36.2 L723.1 36.2 L724.1 36.2 L725.1 36.2 L726.1 36.2 L727.1 36.2 L728.1 36.2 L729 34.3 L730 33.4 L731 33.4 L732 32.4 L734 32.4 L735 32.4 L736 32.4 L737 32.4 L738 31.5 L738.9 31.5 L739.9 31.5 L740.9 31.5 L742.9 31.5 L744.9 31.5 L745.9 31.5 L746.9 31.5 L748.8 31.5 L749.8 31.5 L750.8 31.5 L751.8 31.5 L752.8 30.5 L754.8 30.5 L755.8 30.5 L758.8 30.5 L759.7 30.5 L760.7 30.5 L761.7 30.5 L762.7 30.5 L763.7 30.5 L764.7 30.5 L765.7 30.5 L766.7 27.6 L767.7 28.6 L768.7 27.6 L769.6 27.6 L770.6 26.7 L771.6 26.7 L772.6 26.7 L773.6 27.6 L774.6 27.6 L775.6 27.6 L776.6 27.6 L777.6 26.7 L778.6 26.7 L779.5 25.7 L780.5 25.7 L781.5 25.7 L782.5 25.7 L783.5 25.7 L784.5 25.7 L785.5 24.8 L786.5 24.8 L787.5 24.8 L788.5 24.8 L789.5 23.8 L790.4 24.8 L791.4 24.8 L792.4 24.8 L793.4 23.8 L794.4 23.8 L795.4 23.8 L796.4 23.8 L797.4 23.8 L798.4 23.8 L799.4 23.8 L800.3 23.8 L801.3 23.8 L802.3 23.8 L803.3 23.8 L804.3 23.8 L805.3 24.8 L806.3 24.8 L807.3 24.8 L808.3 24.8 L809.3 24.8 L810.3 24.8 L811.2 24.8 L812.2 24.8 L813.2 24.8 L814.2 24.8 L815.2 23.8 L816.2 23.8 L817.2 22.9 L818.2 22.9 L819.2 22.9 L820.2 22.9 L821.1 22.9 L822.1 21.9 L823.1 21.9 L824.1 21.9 L825.1 21.9 L826.1 21.9 L827.1 21 L828.1 21 L829.1 21 L830.1 21 L831 21 L832 21 L833 21 L834 21 L835 21 L836 20" fill="none" stroke="#06b6d4" stroke-width="3" stroke-linecap="round" stroke-linejoin="round"/>
    <circle cx="836" cy="20" r="5" fill="#06b6d4" stroke="#fff" stroke-width="2"/>
    <text x="220" y="194" text-anchor="start" class="secondary" font-size="9">Jan 15, 2025</text><text x="528" y="194" text-anchor="middle" class="secondary" font-size="9">Nov 22, 2025</text><text x="836" y="194" text-anchor="end" class="secondary" font-size="9">Sep 29, 2026</text>
  </g><g transform="translate(30 631)">
    <rect width="856" height="201" rx="16" class="panel"/>
    <circle cx="20" cy="27" r="5" fill="#f59e0b"/>
    <text x="34" y="31" class="primary" font-size="14" font-weight="700">Git clones</text>
    <text x="20" y="62" class="primary" font-size="20" font-weight="750">36.9K</text>
    <text x="20" y="83" class="secondary" font-size="11">range 448–36.9K</text>
    <line x1="220" x2="836" y1="20" y2="20" class="grid" stroke-width="1" stroke-dasharray="3 6"/><text x="210" y="24" text-anchor="end" class="secondary" font-size="9">36.9K</text><line x1="220" x2="836" y1="95" y2="95" class="grid" stroke-width="1" stroke-dasharray="3 6"/><text x="210" y="99" text-anchor="end" class="secondary" font-size="9">18.7K</text><line x1="220" x2="836" y1="170" y2="170" class="grid" stroke-width="1" stroke-dasharray="3 6"/><text x="210" y="174" text-anchor="end" class="secondary" font-size="9">448</text>
    <path d="M220 170 L230.6 168.1 L241.2 166.2 L251.9 164.3 L262.5 162.7 L273.1 161.2 L283.7 159.7 L294.3 158.2 L305 156.6 L315.6 155.1 L326.2 153.5 L336.8 151.9 L347.4 150.3 L358.1 107.3 L368.7 106 L379.3 104.4 L389.9 102.7 L400.6 101.3 L411.2 99.9 L421.8 98.3 L432.4 96.7 L443 94.9 L453.7 93.1 L464.3 91.6 L474.9 89.9 L485.5 88.2 L496.1 86.9 L506.8 85.3 L517.4 84.1 L528 82.7 L538.6 80.5 L549.2 76.1 L559.9 70 L570.5 66.1 L581.1 63.1 L591.7 59.5 L602.3 56.8 L613 54.3 L623.6 51.8 L634.2 49.6 L644.8 46.9 L655.4 45.1 L666.1 43.1 L676.7 40.6 L687.3 38.7 L697.9 36 L708.6 32.4 L719.2 30.7 L729.8 27.8 L740.4 26.2 L751 24.2 L761.7 21.8 L772.3 20 L782.9 20 L793.5 20 L804.1 20 L814.8 20 L825.4 20 L836 20 L836 170 L220 170 Z" fill="url(#fill-clones)"/>
    <path d="M220 170 L230.6 168.1 L241.2 166.2 L251.9 164.3 L262.5 162.7 L273.1 161.2 L283.7 159.7 L294.3 158.2 L305 156.6 L315.6 155.1 L326.2 153.5 L336.8 151.9 L347.4 150.3 L358.1 107.3 L368.7 106 L379.3 104.4 L389.9 102.7 L400.6 101.3 L411.2 99.9 L421.8 98.3 L432.4 96.7 L443 94.9 L453.7 93.1 L464.3 91.6 L474.9 89.9 L485.5 88.2 L496.1 86.9 L506.8 85.3 L517.4 84.1 L528 82.7 L538.6 80.5 L549.2 76.1 L559.9 70 L570.5 66.1 L581.1 63.1 L591.7 59.5 L602.3 56.8 L613 54.3 L623.6 51.8 L634.2 49.6 L644.8 46.9 L655.4 45.1 L666.1 43.1 L676.7 40.6 L687.3 38.7 L697.9 36 L708.6 32.4 L719.2 30.7 L729.8 27.8 L740.4 26.2 L751 24.2 L761.7 21.8 L772.3 20 L782.9 20 L793.5 20 L804.1 20 L814.8 20 L825.4 20 L836 20" fill="none" stroke="#f59e0b" stroke-width="3" stroke-linecap="round" stroke-linejoin="round"/>
    <circle cx="836" cy="20" r="5" fill="#f59e0b" stroke="#fff" stroke-width="2"/>
    <text x="220" y="194" text-anchor="start" class="secondary" font-size="9">Aug 2, 2026</text><text x="528" y="194" text-anchor="middle" class="secondary" font-size="9">Aug 31, 2026</text><text x="836" y="194" text-anchor="end" class="secondary" font-size="9">Sep 29, 2026</text>
  </g>
    <text x="30" y="862" class="secondary" font-size="11">Updated Sep 29, 2026</text>
    <a href="https://github.com/MacRimi/repo-growth" target="_blank" aria-label="Open the Repo Growth project">
      <text x="886" y="862" fill="#8b5cf6" text-anchor="end" font-size="13" font-weight="700">Generated by Repo Growth ↗</text>
    </a>
  </g>
</svg>
