<?xml version="1.0" encoding="UTF-8"?>
<svg xmlns="http://www.w3.org/2000/svg" width="1000" height="740" viewBox="0 0 1000 740" role="img" aria-labelledby="title desc">
  <title id="title">ProxMenux growth for MacRimi/ProxMenux</title>
  <desc id="desc">Repository growth dashboard showing stars, forks over time.</desc>
  <defs>
    <linearGradient id="background" x1="0" y1="0" x2="1" y2="1">
      <stop offset="0" stop-color="#fafafa"/><stop offset="1" stop-color="#f4f4f5"/>
    </linearGradient>
    <linearGradient id="fill-stars" x1="0" y1="0" x2="0" y2="1"><stop offset="0" stop-color="#8b5cf6" stop-opacity=".24"/><stop offset="1" stop-color="#8b5cf6" stop-opacity="0"/></linearGradient><linearGradient id="fill-forks" x1="0" y1="0" x2="0" y2="1"><stop offset="0" stop-color="#06b6d4" stop-opacity=".24"/><stop offset="1" stop-color="#06b6d4" stop-opacity="0"/></linearGradient>
    <filter id="shadow" x="-10%" y="-10%" width="120%" height="130%"><feDropShadow dx="0" dy="8" stdDeviation="14" flood-color="#18181b" flood-opacity=".08"/></filter>
    <style>
      :root { color-scheme: light dark; }
      .bg { fill: url(#background); }
      .surface { fill: #ffffff; stroke: #e4e4e7; }
      .panel { fill: #ffffff; stroke: #e4e4e7; }
      .primary { fill: #18181b; }
      .secondary { fill: #71717a; }
      .grid { stroke: #e4e4e7; }
      text { font-family: Inter, ui-sans-serif, system-ui, -apple-system, BlinkMacSystemFont, "Segoe UI", sans-serif; }
      @media (prefers-color-scheme: dark) {
        .bg { fill: #09090b; }
        .surface, .panel { fill: #111113; stroke: #27272a; }
        .primary { fill: #fafafa; }
        .secondary { fill: #a1a1aa; }
        .grid { stroke: #27272a; }
      }
    </style>
  </defs>
  <rect class="bg" width="1000" height="740" rx="28"/>
  <g transform="translate(42 38)">
    <rect x="0" y="0" width="916" height="664" rx="22" class="surface" filter="url(#shadow)"/>
    <text x="30" y="45" class="primary" font-size="26" font-weight="750" letter-spacing="-.5">ProxMenux growth</text>
    <text x="30" y="70" class="secondary" font-size="14">MacRimi/ProxMenux · Jan 15, 2025 – Jul 24, 2026</text>
    <g transform="translate(740 25)"><rect width="146" height="30" rx="15" fill="#8b5cf6" fill-opacity=".12"/><circle cx="17" cy="15" r="4" fill="#8b5cf6"/><text x="30" y="20" fill="#8b5cf6" font-size="11" font-weight="700" letter-spacing="1">LOCAL HISTORY</text></g>
    <g transform="translate(30 92)">
    <rect width="418" height="86" rx="16" class="panel"/>
    <rect x="16" y="17" width="6" height="52" rx="3" fill="#8b5cf6"/>
    <text x="38" y="34" class="secondary" font-size="12" font-weight="650" letter-spacing=".3">STARS</text>
    <text x="38" y="64" class="primary" font-size="27" font-weight="760" letter-spacing="-.5">2,818</text>
    <text x="392" y="63" text-anchor="end" fill="#8b5cf6" font-size="11" font-weight="650">+2,817 tracked</text>
  </g><g transform="translate(468 92)">
    <rect width="418" height="86" rx="16" class="panel"/>
    <rect x="16" y="17" width="6" height="52" rx="3" fill="#06b6d4"/>
    <text x="38" y="34" class="secondary" font-size="12" font-weight="650" letter-spacing=".3">FORKS</text>
    <text x="38" y="64" class="primary" font-size="27" font-weight="760" letter-spacing="-.5">149</text>
    <text x="392" y="63" text-anchor="end" fill="#06b6d4" font-size="11" font-weight="650">+149 tracked</text>
  </g>
    <g transform="translate(30 197)">
    <rect width="856" height="201" rx="16" class="panel"/>
    <circle cx="20" cy="27" r="5" fill="#8b5cf6"/>
    <text x="34" y="31" class="primary" font-size="14" font-weight="700">Stars</text>
    <text x="20" y="62" class="primary" font-size="20" font-weight="750">2,818</text>
    <text x="20" y="83" class="secondary" font-size="11">range 1–2,818</text>
    <line x1="220" x2="836" y1="20" y2="20" class="grid" stroke-width="1" stroke-dasharray="3 6"/><text x="210" y="24" text-anchor="end" class="secondary" font-size="9">2,818</text><line x1="220" x2="836" y1="95" y2="95" class="grid" stroke-width="1" stroke-dasharray="3 6"/><text x="210" y="99" text-anchor="end" class="secondary" font-size="9">1,410</text><line x1="220" x2="836" y1="170" y2="170" class="grid" stroke-width="1" stroke-dasharray="3 6"/><text x="210" y="174" text-anchor="end" class="secondary" font-size="9">1</text>
    <path d="M220 170 L277.7 169.9 L286.6 169.8 L294.4 169.8 L295.5 169.7 L299.9 169.7 L301 169.6 L304.4 169.6 L311 169.5 L336.5 169.3 L337.7 169.2 L344.3 169.1 L346.5 169 L347.6 169 L348.7 168.9 L349.9 168 L351 166.9 L352.1 166.8 L353.2 166.6 L354.3 166.5 L355.4 166.4 L357.6 166.3 L358.7 166.2 L359.8 166 L361 166 L362.1 165.2 L363.2 164 L364.3 163.5 L365.4 163.1 L366.5 163 L367.6 162.9 L368.7 162.7 L373.2 162.6 L374.3 162.4 L375.4 162.3 L377.6 162.1 L378.7 162 L380.9 161.9 L382 161.8 L383.2 161.7 L385.4 161.6 L387.6 161.5 L388.7 161.3 L392 157.2 L393.1 153.7 L394.3 152.1 L395.4 150.1 L396.5 148.4 L397.6 147.1 L398.7 145.9 L399.8 144.9 L400.9 144.5 L402 144.1 L403.1 143.6 L404.2 143.3 L405.4 143.1 L406.5 142.6 L407.6 142.3 L408.7 141.6 L409.8 141 L410.9 140.6 L412 139.9 L413.1 139.4 L414.2 139.3 L415.3 139 L416.5 138.6 L417.6 138.2 L418.7 138 L420.9 137.7 L422 137.4 L423.1 137.2 L424.2 137.1 L425.3 136.9 L426.4 136.7 L427.6 136.6 L428.7 136.3 L429.8 136 L430.9 135.8 L432 135.3 L433.1 135.2 L434.2 135.1 L435.3 134.8 L436.4 134.6 L437.5 134.4 L438.7 134.3 L439.8 134.1 L440.9 133.8 L442 133.7 L443.1 133.5 L444.2 133.4 L445.3 133.2 L446.4 133 L447.5 133 L448.6 132.7 L449.8 132.2 L450.9 131.8 L452 131.7 L453.1 131.3 L454.2 131 L455.3 130.8 L457.5 130.5 L458.6 130.2 L459.7 130.1 L460.9 129.9 L462 129.5 L463.1 129.3 L464.2 129.2 L465.3 129.1 L466.4 129 L467.5 128.8 L468.6 128.8 L469.7 128.6 L470.8 128.4 L471.9 128.1 L473.1 128 L474.2 128 L475.3 127.8 L478.6 127.5 L479.7 127.4 L480.8 127.2 L481.9 127 L484.2 126.9 L485.3 126.4 L486.4 126.3 L487.5 125.9 L488.6 125.5 L489.7 125.2 L490.8 125.1 L491.9 125 L493 124.8 L494.1 124.6 L495.3 124.4 L496.4 124.1 L497.5 123.9 L498.6 123.7 L499.7 123.2 L500.8 122.9 L501.9 122.8 L503 122.4 L504.1 121.9 L505.2 121.3 L506.4 121.2 L507.5 120.7 L508.6 120.5 L510.8 120.3 L511.9 120.2 L513 120 L514.1 119.6 L515.2 119.3 L516.3 119 L518.6 118.6 L520.8 118.2 L521.9 118 L523 117.7 L524.1 117.6 L525.2 117.4 L526.3 117.2 L527.4 117.2 L528.6 116.9 L529.7 116.9 L530.8 116.8 L531.9 116.4 L533 116.3 L534.1 116.1 L535.2 116 L536.3 115.5 L537.4 115.3 L538.5 115.1 L539.7 114.7 L540.8 114.1 L541.9 113.6 L543 112.4 L544.1 111.2 L545.2 110.4 L546.3 109.7 L547.4 109 L548.5 107.4 L549.6 103.2 L550.8 100.5 L551.9 98.9 L553 98.4 L554.1 97.6 L555.2 97 L556.3 94.9 L557.4 92.9 L558.5 91.2 L559.6 90.6 L560.7 89.2 L561.9 88.6 L563 87.8 L564.1 87 L565.2 86.2 L566.3 85.5 L567.4 84.2 L568.5 83.8 L569.6 82.6 L570.7 82.4 L571.8 82.1 L573 81.6 L574.1 81 L575.2 80.4 L576.3 80 L577.4 79.6 L578.5 79.1 L579.6 78.5 L580.7 78 L581.8 75 L582.9 73.6 L584.1 72.7 L585.2 71.9 L586.3 71.4 L587.4 70.7 L588.5 70.2 L589.6 69.6 L590.7 69.3 L591.8 69 L592.9 68.8 L594 68.5 L595.1 68 L596.3 67.7 L597.4 67 L598.5 66.8 L599.6 66.5 L600.7 66.2 L601.8 66 L602.9 65.5 L604 65.2 L605.1 64.2 L606.2 63.9 L607.4 63.6 L608.5 63.5 L609.6 63.1 L610.7 62.7 L611.8 62.5 L612.9 62.1 L614 61.7 L615.1 61.5 L616.2 61.2 L617.3 60.8 L618.5 60.6 L619.6 60.3 L620.7 60.2 L621.8 59.8 L622.9 59.4 L624 59.1 L625.1 59 L626.2 58.1 L627.3 57.3 L628.4 57 L629.6 56.7 L630.7 56.4 L631.8 56.2 L632.9 55.8 L634 55.5 L635.1 55.4 L636.2 55.2 L637.3 55 L638.4 54.7 L639.5 54 L640.7 53.7 L641.8 53.2 L642.9 52.7 L644 52.5 L645.1 52.1 L646.2 51.7 L647.3 51.6 L648.4 51.5 L649.5 51.3 L650.6 50.9 L651.8 50.9 L652.9 50.7 L654 50.3 L655.1 48.2 L656.2 47.3 L657.3 46.3 L658.4 45.8 L659.5 45.4 L660.6 44.8 L661.7 44.1 L662.9 43.7 L664 43.2 L665.1 42.8 L666.2 42.7 L667.3 42.2 L668.4 41.8 L669.5 41.6 L670.6 41.4 L671.7 41.1 L672.8 40.8 L674 40.4 L675.1 40 L676.2 39.9 L677.3 39.6 L678.4 39.3 L679.5 39.2 L680.6 39.1 L681.7 38.9 L682.8 38.8 L683.9 38.7 L685.1 38.6 L686.2 38.5 L687.3 38.3 L688.4 38.2 L689.5 38.2 L690.6 37.9 L691.7 37.7 L692.8 37.4 L693.9 37.4 L695 37.2 L696.2 37.1 L697.3 36.6 L698.4 36.4 L699.5 36 L700.6 35.9 L701.7 35.5 L702.8 35.3 L703.9 35.2 L705 35.1 L706.1 34.9 L707.3 34.6 L708.4 34.4 L709.5 34.3 L710.6 34.1 L711.7 34 L712.8 33.8 L713.9 33.7 L715 33.5 L716.1 33.5 L719.5 33.4 L720.6 33.1 L722.8 33 L723.9 32.9 L726.1 32.8 L727.2 32.7 L728.3 32.3 L729.4 32.1 L730.6 31.9 L731.7 31.7 L732.8 31.6 L733.9 31.2 L735 31.2 L736.1 31.1 L738.3 30.9 L739.4 30.9 L740.5 30.8 L741.7 30.8 L742.8 30.6 L743.9 30.5 L745 30.4 L746.1 30.3 L748.3 30.2 L749.4 30 L750.5 29.9 L751.6 29.7 L752.8 29.4 L755 29.4 L756.1 29.3 L757.2 29 L758.3 28.8 L759.4 28.7 L760.5 28.5 L761.6 28.4 L762.7 28.3 L763.9 28.1 L765 27.9 L766.1 27.7 L767.2 27.4 L768.3 27.3 L769.4 27.2 L770.5 27 L771.6 26.9 L772.7 26.8 L773.8 26.7 L775 26.6 L776.1 26.5 L777.2 26.4 L778.3 26.2 L779.4 26 L780.5 25.9 L781.6 25.8 L782.7 25.7 L783.8 25.6 L784.9 25.5 L786.1 25.4 L787.2 25.2 L788.3 25.2 L789.4 25.1 L790.5 25.1 L791.6 25 L792.7 24.7 L793.8 24.7 L796 24.6 L797.2 24.5 L798.3 24.4 L799.4 24.3 L800.5 24.3 L801.6 24.1 L802.7 24 L803.8 23.9 L806 23.7 L808.3 23.6 L809.4 23.5 L810.5 23.3 L812.7 23.2 L813.8 23.1 L814.9 23 L816 22.8 L817.1 22.8 L819.4 22.6 L820.5 22.4 L823.8 22.4 L824.9 22.1 L826 22 L827.1 21.9 L828.2 21.9 L829.3 21.8 L830.5 21.7 L831.6 21.2 L832.7 20.4 L833.8 20.3 L834.9 20.1 L836 20 L836 170 L220 170 Z" fill="url(#fill-stars)"/>
    <path d="M220 170 L277.7 169.9 L286.6 169.8 L294.4 169.8 L295.5 169.7 L299.9 169.7 L301 169.6 L304.4 169.6 L311 169.5 L336.5 169.3 L337.7 169.2 L344.3 169.1 L346.5 169 L347.6 169 L348.7 168.9 L349.9 168 L351 166.9 L352.1 166.8 L353.2 166.6 L354.3 166.5 L355.4 166.4 L357.6 166.3 L358.7 166.2 L359.8 166 L361 166 L362.1 165.2 L363.2 164 L364.3 163.5 L365.4 163.1 L366.5 163 L367.6 162.9 L368.7 162.7 L373.2 162.6 L374.3 162.4 L375.4 162.3 L377.6 162.1 L378.7 162 L380.9 161.9 L382 161.8 L383.2 161.7 L385.4 161.6 L387.6 161.5 L388.7 161.3 L392 157.2 L393.1 153.7 L394.3 152.1 L395.4 150.1 L396.5 148.4 L397.6 147.1 L398.7 145.9 L399.8 144.9 L400.9 144.5 L402 144.1 L403.1 143.6 L404.2 143.3 L405.4 143.1 L406.5 142.6 L407.6 142.3 L408.7 141.6 L409.8 141 L410.9 140.6 L412 139.9 L413.1 139.4 L414.2 139.3 L415.3 139 L416.5 138.6 L417.6 138.2 L418.7 138 L420.9 137.7 L422 137.4 L423.1 137.2 L424.2 137.1 L425.3 136.9 L426.4 136.7 L427.6 136.6 L428.7 136.3 L429.8 136 L430.9 135.8 L432 135.3 L433.1 135.2 L434.2 135.1 L435.3 134.8 L436.4 134.6 L437.5 134.4 L438.7 134.3 L439.8 134.1 L440.9 133.8 L442 133.7 L443.1 133.5 L444.2 133.4 L445.3 133.2 L446.4 133 L447.5 133 L448.6 132.7 L449.8 132.2 L450.9 131.8 L452 131.7 L453.1 131.3 L454.2 131 L455.3 130.8 L457.5 130.5 L458.6 130.2 L459.7 130.1 L460.9 129.9 L462 129.5 L463.1 129.3 L464.2 129.2 L465.3 129.1 L466.4 129 L467.5 128.8 L468.6 128.8 L469.7 128.6 L470.8 128.4 L471.9 128.1 L473.1 128 L474.2 128 L475.3 127.8 L478.6 127.5 L479.7 127.4 L480.8 127.2 L481.9 127 L484.2 126.9 L485.3 126.4 L486.4 126.3 L487.5 125.9 L488.6 125.5 L489.7 125.2 L490.8 125.1 L491.9 125 L493 124.8 L494.1 124.6 L495.3 124.4 L496.4 124.1 L497.5 123.9 L498.6 123.7 L499.7 123.2 L500.8 122.9 L501.9 122.8 L503 122.4 L504.1 121.9 L505.2 121.3 L506.4 121.2 L507.5 120.7 L508.6 120.5 L510.8 120.3 L511.9 120.2 L513 120 L514.1 119.6 L515.2 119.3 L516.3 119 L518.6 118.6 L520.8 118.2 L521.9 118 L523 117.7 L524.1 117.6 L525.2 117.4 L526.3 117.2 L527.4 117.2 L528.6 116.9 L529.7 116.9 L530.8 116.8 L531.9 116.4 L533 116.3 L534.1 116.1 L535.2 116 L536.3 115.5 L537.4 115.3 L538.5 115.1 L539.7 114.7 L540.8 114.1 L541.9 113.6 L543 112.4 L544.1 111.2 L545.2 110.4 L546.3 109.7 L547.4 109 L548.5 107.4 L549.6 103.2 L550.8 100.5 L551.9 98.9 L553 98.4 L554.1 97.6 L555.2 97 L556.3 94.9 L557.4 92.9 L558.5 91.2 L559.6 90.6 L560.7 89.2 L561.9 88.6 L563 87.8 L564.1 87 L565.2 86.2 L566.3 85.5 L567.4 84.2 L568.5 83.8 L569.6 82.6 L570.7 82.4 L571.8 82.1 L573 81.6 L574.1 81 L575.2 80.4 L576.3 80 L577.4 79.6 L578.5 79.1 L579.6 78.5 L580.7 78 L581.8 75 L582.9 73.6 L584.1 72.7 L585.2 71.9 L586.3 71.4 L587.4 70.7 L588.5 70.2 L589.6 69.6 L590.7 69.3 L591.8 69 L592.9 68.8 L594 68.5 L595.1 68 L596.3 67.7 L597.4 67 L598.5 66.8 L599.6 66.5 L600.7 66.2 L601.8 66 L602.9 65.5 L604 65.2 L605.1 64.2 L606.2 63.9 L607.4 63.6 L608.5 63.5 L609.6 63.1 L610.7 62.7 L611.8 62.5 L612.9 62.1 L614 61.7 L615.1 61.5 L616.2 61.2 L617.3 60.8 L618.5 60.6 L619.6 60.3 L620.7 60.2 L621.8 59.8 L622.9 59.4 L624 59.1 L625.1 59 L626.2 58.1 L627.3 57.3 L628.4 57 L629.6 56.7 L630.7 56.4 L631.8 56.2 L632.9 55.8 L634 55.5 L635.1 55.4 L636.2 55.2 L637.3 55 L638.4 54.7 L639.5 54 L640.7 53.7 L641.8 53.2 L642.9 52.7 L644 52.5 L645.1 52.1 L646.2 51.7 L647.3 51.6 L648.4 51.5 L649.5 51.3 L650.6 50.9 L651.8 50.9 L652.9 50.7 L654 50.3 L655.1 48.2 L656.2 47.3 L657.3 46.3 L658.4 45.8 L659.5 45.4 L660.6 44.8 L661.7 44.1 L662.9 43.7 L664 43.2 L665.1 42.8 L666.2 42.7 L667.3 42.2 L668.4 41.8 L669.5 41.6 L670.6 41.4 L671.7 41.1 L672.8 40.8 L674 40.4 L675.1 40 L676.2 39.9 L677.3 39.6 L678.4 39.3 L679.5 39.2 L680.6 39.1 L681.7 38.9 L682.8 38.8 L683.9 38.7 L685.1 38.6 L686.2 38.5 L687.3 38.3 L688.4 38.2 L689.5 38.2 L690.6 37.9 L691.7 37.7 L692.8 37.4 L693.9 37.4 L695 37.2 L696.2 37.1 L697.3 36.6 L698.4 36.4 L699.5 36 L700.6 35.9 L701.7 35.5 L702.8 35.3 L703.9 35.2 L705 35.1 L706.1 34.9 L707.3 34.6 L708.4 34.4 L709.5 34.3 L710.6 34.1 L711.7 34 L712.8 33.8 L713.9 33.7 L715 33.5 L716.1 33.5 L719.5 33.4 L720.6 33.1 L722.8 33 L723.9 32.9 L726.1 32.8 L727.2 32.7 L728.3 32.3 L729.4 32.1 L730.6 31.9 L731.7 31.7 L732.8 31.6 L733.9 31.2 L735 31.2 L736.1 31.1 L738.3 30.9 L739.4 30.9 L740.5 30.8 L741.7 30.8 L742.8 30.6 L743.9 30.5 L745 30.4 L746.1 30.3 L748.3 30.2 L749.4 30 L750.5 29.9 L751.6 29.7 L752.8 29.4 L755 29.4 L756.1 29.3 L757.2 29 L758.3 28.8 L759.4 28.7 L760.5 28.5 L761.6 28.4 L762.7 28.3 L763.9 28.1 L765 27.9 L766.1 27.7 L767.2 27.4 L768.3 27.3 L769.4 27.2 L770.5 27 L771.6 26.9 L772.7 26.8 L773.8 26.7 L775 26.6 L776.1 26.5 L777.2 26.4 L778.3 26.2 L779.4 26 L780.5 25.9 L781.6 25.8 L782.7 25.7 L783.8 25.6 L784.9 25.5 L786.1 25.4 L787.2 25.2 L788.3 25.2 L789.4 25.1 L790.5 25.1 L791.6 25 L792.7 24.7 L793.8 24.7 L796 24.6 L797.2 24.5 L798.3 24.4 L799.4 24.3 L800.5 24.3 L801.6 24.1 L802.7 24 L803.8 23.9 L806 23.7 L808.3 23.6 L809.4 23.5 L810.5 23.3 L812.7 23.2 L813.8 23.1 L814.9 23 L816 22.8 L817.1 22.8 L819.4 22.6 L820.5 22.4 L823.8 22.4 L824.9 22.1 L826 22 L827.1 21.9 L828.2 21.9 L829.3 21.8 L830.5 21.7 L831.6 21.2 L832.7 20.4 L833.8 20.3 L834.9 20.1 L836 20" fill="none" stroke="#8b5cf6" stroke-width="3" stroke-linecap="round" stroke-linejoin="round"/>
    <circle cx="836" cy="20" r="5" fill="#8b5cf6" stroke="#fff" stroke-width="2"/>
    <text x="220" y="194" text-anchor="start" class="secondary" font-size="9">Jan 15, 2025</text><text x="528" y="194" text-anchor="middle" class="secondary" font-size="9">Oct 19, 2025</text><text x="836" y="194" text-anchor="end" class="secondary" font-size="9">Jul 24, 2026</text>
  </g><g transform="translate(30 414)">
    <rect width="856" height="201" rx="16" class="panel"/>
    <circle cx="20" cy="27" r="5" fill="#06b6d4"/>
    <text x="34" y="31" class="primary" font-size="14" font-weight="700">Forks</text>
    <text x="20" y="62" class="primary" font-size="20" font-weight="750">149</text>
    <text x="20" y="83" class="secondary" font-size="11">range 0–149</text>
    <line x1="220" x2="836" y1="20" y2="20" class="grid" stroke-width="1" stroke-dasharray="3 6"/><text x="210" y="24" text-anchor="end" class="secondary" font-size="9">149</text><line x1="220" x2="836" y1="95" y2="95" class="grid" stroke-width="1" stroke-dasharray="3 6"/><text x="210" y="99" text-anchor="end" class="secondary" font-size="9">75</text><line x1="220" x2="836" y1="170" y2="170" class="grid" stroke-width="1" stroke-dasharray="3 6"/><text x="210" y="174" text-anchor="end" class="secondary" font-size="9">0</text>
    <path d="M220 170 L277.7 170 L286.6 170 L294.4 170 L295.5 170 L299.9 170 L301 170 L304.4 170 L311 170 L336.5 170 L337.7 169 L344.3 169 L346.5 169 L347.6 169 L348.7 169 L349.9 169 L351 169 L352.1 169 L353.2 168 L354.3 168 L355.4 168 L357.6 168 L358.7 168 L359.8 167 L361 166 L362.1 166 L363.2 165 L364.3 165 L365.4 165 L366.5 165 L367.6 165 L368.7 165 L373.2 165 L374.3 165 L375.4 165 L377.6 165 L378.7 165 L380.9 165 L382 165 L383.2 164 L385.4 163 L387.6 163 L388.7 163 L392 158.9 L393.1 153.9 L394.3 150.9 L395.4 148.9 L396.5 147.9 L397.6 147.9 L398.7 146.8 L399.8 144.8 L400.9 143.8 L402 143.8 L403.1 143.8 L404.2 143.8 L405.4 143.8 L406.5 143.8 L407.6 143.8 L408.7 142.8 L409.8 142.8 L410.9 141.8 L412 139.8 L413.1 137.8 L414.2 135.8 L415.3 135.8 L416.5 135.8 L417.6 134.8 L418.7 134.8 L420.9 133.8 L422 132.8 L423.1 132.8 L424.2 132.8 L425.3 131.7 L426.4 130.7 L427.6 130.7 L428.7 130.7 L429.8 130.7 L430.9 130.7 L432 130.7 L433.1 130.7 L434.2 130.7 L435.3 129.7 L436.4 129.7 L437.5 129.7 L438.7 128.7 L439.8 128.7 L440.9 128.7 L442 128.7 L443.1 128.7 L444.2 128.7 L445.3 127.7 L446.4 127.7 L447.5 127.7 L448.6 127.7 L449.8 127.7 L450.9 127.7 L452 127.7 L453.1 127.7 L454.2 127.7 L455.3 127.7 L457.5 127.7 L458.6 127.7 L459.7 127.7 L460.9 127.7 L462 127.7 L463.1 126.7 L464.2 126.7 L465.3 125.7 L466.4 125.7 L467.5 124.7 L468.6 124.7 L469.7 124.7 L470.8 124.7 L471.9 123.7 L473.1 123.7 L474.2 122.7 L475.3 122.7 L478.6 121.7 L479.7 121.7 L480.8 121.7 L481.9 121.7 L484.2 121.7 L485.3 120.7 L486.4 120.7 L487.5 120.7 L488.6 120.7 L489.7 119.7 L490.8 119.7 L491.9 119.7 L493 118.7 L494.1 118.7 L495.3 117.7 L496.4 117.7 L497.5 117.7 L498.6 117.7 L499.7 116.6 L500.8 116.6 L501.9 116.6 L503 116.6 L504.1 116.6 L505.2 116.6 L506.4 116.6 L507.5 116.6 L508.6 116.6 L510.8 115.6 L511.9 115.6 L513 115.6 L514.1 115.6 L515.2 115.6 L516.3 115.6 L518.6 115.6 L520.8 114.6 L521.9 113.6 L523 112.6 L524.1 112.6 L525.2 112.6 L526.3 112.6 L527.4 112.6 L528.6 112.6 L529.7 110.6 L530.8 110.6 L531.9 109.6 L533 109.6 L534.1 108.6 L535.2 108.6 L536.3 107.6 L537.4 107.6 L538.5 107.6 L539.7 107.6 L540.8 106.6 L541.9 106.6 L543 106.6 L544.1 105.6 L545.2 105.6 L546.3 105.6 L547.4 104.6 L548.5 103.6 L549.6 102.6 L550.8 100.5 L551.9 98.5 L553 97.5 L554.1 97.5 L555.2 96.5 L556.3 96.5 L557.4 96.5 L558.5 95.5 L559.6 94.5 L560.7 92.5 L561.9 90.5 L563 89.5 L564.1 89.5 L565.2 89.5 L566.3 88.5 L567.4 86.4 L568.5 86.4 L569.6 85.4 L570.7 83.4 L571.8 83.4 L573 83.4 L574.1 83.4 L575.2 82.4 L576.3 81.4 L577.4 81.4 L578.5 81.4 L579.6 78.4 L580.7 78.4 L581.8 77.4 L582.9 76.4 L584.1 75.4 L585.2 75.4 L586.3 74.4 L587.4 74.4 L588.5 74.4 L589.6 74.4 L590.7 74.4 L591.8 73.4 L592.9 73.4 L594 73.4 L595.1 73.4 L596.3 71.3 L597.4 71.3 L598.5 70.3 L599.6 70.3 L600.7 70.3 L601.8 70.3 L602.9 70.3 L604 70.3 L605.1 69.3 L606.2 68.3 L607.4 68.3 L608.5 68.3 L609.6 68.3 L610.7 68.3 L611.8 66.3 L612.9 66.3 L614 66.3 L615.1 66.3 L616.2 66.3 L617.3 65.3 L618.5 64.3 L619.6 63.3 L620.7 63.3 L621.8 62.3 L622.9 62.3 L624 62.3 L625.1 62.3 L626.2 62.3 L627.3 62.3 L628.4 62.3 L629.6 62.3 L630.7 62.3 L631.8 62.3 L632.9 62.3 L634 62.3 L635.1 62.3 L636.2 62.3 L637.3 62.3 L638.4 62.3 L639.5 61.3 L640.7 61.3 L641.8 61.3 L642.9 61.3 L644 60.3 L645.1 60.3 L646.2 58.3 L647.3 58.3 L648.4 58.3 L649.5 58.3 L650.6 57.2 L651.8 57.2 L652.9 57.2 L654 57.2 L655.1 57.2 L656.2 56.2 L657.3 53.2 L658.4 53.2 L659.5 52.2 L660.6 52.2 L661.7 51.2 L662.9 51.2 L664 51.2 L665.1 51.2 L666.2 51.2 L667.3 51.2 L668.4 51.2 L669.5 51.2 L670.6 51.2 L671.7 50.2 L672.8 49.2 L674 49.2 L675.1 49.2 L676.2 49.2 L677.3 49.2 L678.4 48.2 L679.5 48.2 L680.6 48.2 L681.7 47.2 L682.8 47.2 L683.9 47.2 L685.1 47.2 L686.2 47.2 L687.3 47.2 L688.4 47.2 L689.5 47.2 L690.6 47.2 L691.7 47.2 L692.8 47.2 L693.9 47.2 L695 47.2 L696.2 47.2 L697.3 47.2 L698.4 47.2 L699.5 47.2 L700.6 47.2 L701.7 47.2 L702.8 47.2 L703.9 47.2 L705 47.2 L706.1 47.2 L707.3 47.2 L708.4 47.2 L709.5 47.2 L710.6 47.2 L711.7 47.2 L712.8 47.2 L713.9 47.2 L715 47.2 L716.1 47.2 L719.5 47.2 L720.6 47.2 L722.8 47.2 L723.9 46.2 L726.1 46.2 L727.2 45.2 L728.3 44.2 L729.4 44.2 L730.6 44.2 L731.7 44.2 L732.8 44.2 L733.9 44.2 L735 43.2 L736.1 42.1 L738.3 42.1 L739.4 40.1 L740.5 40.1 L741.7 39.1 L742.8 39.1 L743.9 37.1 L745 37.1 L746.1 37.1 L748.3 37.1 L749.4 37.1 L750.5 37.1 L751.6 37.1 L752.8 36.1 L755 36.1 L756.1 36.1 L757.2 35.1 L758.3 34.1 L759.4 33.1 L760.5 33.1 L761.6 33.1 L762.7 33.1 L763.9 33.1 L765 33.1 L766.1 33.1 L767.2 31.1 L768.3 31.1 L769.4 31.1 L770.5 31.1 L771.6 31.1 L772.7 31.1 L773.8 30.1 L775 30.1 L776.1 30.1 L777.2 30.1 L778.3 30.1 L779.4 30.1 L780.5 29.1 L781.6 29.1 L782.7 29.1 L783.8 29.1 L784.9 29.1 L786.1 29.1 L787.2 29.1 L788.3 29.1 L789.4 29.1 L790.5 27 L791.6 26 L792.7 26 L793.8 25 L796 25 L797.2 25 L798.3 25 L799.4 25 L800.5 24 L801.6 24 L802.7 24 L803.8 24 L806 24 L808.3 24 L809.4 24 L810.5 24 L812.7 24 L813.8 24 L814.9 24 L816 24 L817.1 23 L819.4 23 L820.5 23 L823.8 23 L824.9 23 L826 23 L827.1 23 L828.2 23 L829.3 23 L830.5 23 L831.6 23 L832.7 20 L833.8 21 L834.9 20 L836 20 L836 170 L220 170 Z" fill="url(#fill-forks)"/>
    <path d="M220 170 L277.7 170 L286.6 170 L294.4 170 L295.5 170 L299.9 170 L301 170 L304.4 170 L311 170 L336.5 170 L337.7 169 L344.3 169 L346.5 169 L347.6 169 L348.7 169 L349.9 169 L351 169 L352.1 169 L353.2 168 L354.3 168 L355.4 168 L357.6 168 L358.7 168 L359.8 167 L361 166 L362.1 166 L363.2 165 L364.3 165 L365.4 165 L366.5 165 L367.6 165 L368.7 165 L373.2 165 L374.3 165 L375.4 165 L377.6 165 L378.7 165 L380.9 165 L382 165 L383.2 164 L385.4 163 L387.6 163 L388.7 163 L392 158.9 L393.1 153.9 L394.3 150.9 L395.4 148.9 L396.5 147.9 L397.6 147.9 L398.7 146.8 L399.8 144.8 L400.9 143.8 L402 143.8 L403.1 143.8 L404.2 143.8 L405.4 143.8 L406.5 143.8 L407.6 143.8 L408.7 142.8 L409.8 142.8 L410.9 141.8 L412 139.8 L413.1 137.8 L414.2 135.8 L415.3 135.8 L416.5 135.8 L417.6 134.8 L418.7 134.8 L420.9 133.8 L422 132.8 L423.1 132.8 L424.2 132.8 L425.3 131.7 L426.4 130.7 L427.6 130.7 L428.7 130.7 L429.8 130.7 L430.9 130.7 L432 130.7 L433.1 130.7 L434.2 130.7 L435.3 129.7 L436.4 129.7 L437.5 129.7 L438.7 128.7 L439.8 128.7 L440.9 128.7 L442 128.7 L443.1 128.7 L444.2 128.7 L445.3 127.7 L446.4 127.7 L447.5 127.7 L448.6 127.7 L449.8 127.7 L450.9 127.7 L452 127.7 L453.1 127.7 L454.2 127.7 L455.3 127.7 L457.5 127.7 L458.6 127.7 L459.7 127.7 L460.9 127.7 L462 127.7 L463.1 126.7 L464.2 126.7 L465.3 125.7 L466.4 125.7 L467.5 124.7 L468.6 124.7 L469.7 124.7 L470.8 124.7 L471.9 123.7 L473.1 123.7 L474.2 122.7 L475.3 122.7 L478.6 121.7 L479.7 121.7 L480.8 121.7 L481.9 121.7 L484.2 121.7 L485.3 120.7 L486.4 120.7 L487.5 120.7 L488.6 120.7 L489.7 119.7 L490.8 119.7 L491.9 119.7 L493 118.7 L494.1 118.7 L495.3 117.7 L496.4 117.7 L497.5 117.7 L498.6 117.7 L499.7 116.6 L500.8 116.6 L501.9 116.6 L503 116.6 L504.1 116.6 L505.2 116.6 L506.4 116.6 L507.5 116.6 L508.6 116.6 L510.8 115.6 L511.9 115.6 L513 115.6 L514.1 115.6 L515.2 115.6 L516.3 115.6 L518.6 115.6 L520.8 114.6 L521.9 113.6 L523 112.6 L524.1 112.6 L525.2 112.6 L526.3 112.6 L527.4 112.6 L528.6 112.6 L529.7 110.6 L530.8 110.6 L531.9 109.6 L533 109.6 L534.1 108.6 L535.2 108.6 L536.3 107.6 L537.4 107.6 L538.5 107.6 L539.7 107.6 L540.8 106.6 L541.9 106.6 L543 106.6 L544.1 105.6 L545.2 105.6 L546.3 105.6 L547.4 104.6 L548.5 103.6 L549.6 102.6 L550.8 100.5 L551.9 98.5 L553 97.5 L554.1 97.5 L555.2 96.5 L556.3 96.5 L557.4 96.5 L558.5 95.5 L559.6 94.5 L560.7 92.5 L561.9 90.5 L563 89.5 L564.1 89.5 L565.2 89.5 L566.3 88.5 L567.4 86.4 L568.5 86.4 L569.6 85.4 L570.7 83.4 L571.8 83.4 L573 83.4 L574.1 83.4 L575.2 82.4 L576.3 81.4 L577.4 81.4 L578.5 81.4 L579.6 78.4 L580.7 78.4 L581.8 77.4 L582.9 76.4 L584.1 75.4 L585.2 75.4 L586.3 74.4 L587.4 74.4 L588.5 74.4 L589.6 74.4 L590.7 74.4 L591.8 73.4 L592.9 73.4 L594 73.4 L595.1 73.4 L596.3 71.3 L597.4 71.3 L598.5 70.3 L599.6 70.3 L600.7 70.3 L601.8 70.3 L602.9 70.3 L604 70.3 L605.1 69.3 L606.2 68.3 L607.4 68.3 L608.5 68.3 L609.6 68.3 L610.7 68.3 L611.8 66.3 L612.9 66.3 L614 66.3 L615.1 66.3 L616.2 66.3 L617.3 65.3 L618.5 64.3 L619.6 63.3 L620.7 63.3 L621.8 62.3 L622.9 62.3 L624 62.3 L625.1 62.3 L626.2 62.3 L627.3 62.3 L628.4 62.3 L629.6 62.3 L630.7 62.3 L631.8 62.3 L632.9 62.3 L634 62.3 L635.1 62.3 L636.2 62.3 L637.3 62.3 L638.4 62.3 L639.5 61.3 L640.7 61.3 L641.8 61.3 L642.9 61.3 L644 60.3 L645.1 60.3 L646.2 58.3 L647.3 58.3 L648.4 58.3 L649.5 58.3 L650.6 57.2 L651.8 57.2 L652.9 57.2 L654 57.2 L655.1 57.2 L656.2 56.2 L657.3 53.2 L658.4 53.2 L659.5 52.2 L660.6 52.2 L661.7 51.2 L662.9 51.2 L664 51.2 L665.1 51.2 L666.2 51.2 L667.3 51.2 L668.4 51.2 L669.5 51.2 L670.6 51.2 L671.7 50.2 L672.8 49.2 L674 49.2 L675.1 49.2 L676.2 49.2 L677.3 49.2 L678.4 48.2 L679.5 48.2 L680.6 48.2 L681.7 47.2 L682.8 47.2 L683.9 47.2 L685.1 47.2 L686.2 47.2 L687.3 47.2 L688.4 47.2 L689.5 47.2 L690.6 47.2 L691.7 47.2 L692.8 47.2 L693.9 47.2 L695 47.2 L696.2 47.2 L697.3 47.2 L698.4 47.2 L699.5 47.2 L700.6 47.2 L701.7 47.2 L702.8 47.2 L703.9 47.2 L705 47.2 L706.1 47.2 L707.3 47.2 L708.4 47.2 L709.5 47.2 L710.6 47.2 L711.7 47.2 L712.8 47.2 L713.9 47.2 L715 47.2 L716.1 47.2 L719.5 47.2 L720.6 47.2 L722.8 47.2 L723.9 46.2 L726.1 46.2 L727.2 45.2 L728.3 44.2 L729.4 44.2 L730.6 44.2 L731.7 44.2 L732.8 44.2 L733.9 44.2 L735 43.2 L736.1 42.1 L738.3 42.1 L739.4 40.1 L740.5 40.1 L741.7 39.1 L742.8 39.1 L743.9 37.1 L745 37.1 L746.1 37.1 L748.3 37.1 L749.4 37.1 L750.5 37.1 L751.6 37.1 L752.8 36.1 L755 36.1 L756.1 36.1 L757.2 35.1 L758.3 34.1 L759.4 33.1 L760.5 33.1 L761.6 33.1 L762.7 33.1 L763.9 33.1 L765 33.1 L766.1 33.1 L767.2 31.1 L768.3 31.1 L769.4 31.1 L770.5 31.1 L771.6 31.1 L772.7 31.1 L773.8 30.1 L775 30.1 L776.1 30.1 L777.2 30.1 L778.3 30.1 L779.4 30.1 L780.5 29.1 L781.6 29.1 L782.7 29.1 L783.8 29.1 L784.9 29.1 L786.1 29.1 L787.2 29.1 L788.3 29.1 L789.4 29.1 L790.5 27 L791.6 26 L792.7 26 L793.8 25 L796 25 L797.2 25 L798.3 25 L799.4 25 L800.5 24 L801.6 24 L802.7 24 L803.8 24 L806 24 L808.3 24 L809.4 24 L810.5 24 L812.7 24 L813.8 24 L814.9 24 L816 24 L817.1 23 L819.4 23 L820.5 23 L823.8 23 L824.9 23 L826 23 L827.1 23 L828.2 23 L829.3 23 L830.5 23 L831.6 23 L832.7 20 L833.8 21 L834.9 20 L836 20" fill="none" stroke="#06b6d4" stroke-width="3" stroke-linecap="round" stroke-linejoin="round"/>
    <circle cx="836" cy="20" r="5" fill="#06b6d4" stroke="#fff" stroke-width="2"/>
    <text x="220" y="194" text-anchor="start" class="secondary" font-size="9">Jan 15, 2025</text><text x="528" y="194" text-anchor="middle" class="secondary" font-size="9">Oct 19, 2025</text><text x="836" y="194" text-anchor="end" class="secondary" font-size="9">Jul 24, 2026</text>
  </g>
    <text x="30" y="645" class="secondary" font-size="11">Updated Jul 24, 2026</text>
    <a href="https://github.com/MacRimi/repo-growth" target="_blank" aria-label="Open the Repo Growth project">
      <text x="886" y="645" fill="#8b5cf6" text-anchor="end" font-size="13" font-weight="700">Generated by Repo Growth ↗</text>
    </a>
  </g>
</svg>
