<?xml version="1.0" encoding="UTF-8"?>
<svg xmlns="http://www.w3.org/2000/svg" width="1000" height="740" viewBox="0 0 1000 740" role="img" aria-labelledby="title desc">
  <title id="title">ProxMenux growth for MacRimi/ProxMenux</title>
  <desc id="desc">Repository growth dashboard showing stars, forks over time.</desc>
  <defs>
    <linearGradient id="background" x1="0" y1="0" x2="1" y2="1">
      <stop offset="0" stop-color="#fafafa"/><stop offset="1" stop-color="#f4f4f5"/>
    </linearGradient>
    <linearGradient id="fill-stars" x1="0" y1="0" x2="0" y2="1"><stop offset="0" stop-color="#8b5cf6" stop-opacity=".24"/><stop offset="1" stop-color="#8b5cf6" stop-opacity="0"/></linearGradient><linearGradient id="fill-forks" x1="0" y1="0" x2="0" y2="1"><stop offset="0" stop-color="#06b6d4" stop-opacity=".24"/><stop offset="1" stop-color="#06b6d4" stop-opacity="0"/></linearGradient>
    <filter id="shadow" x="-10%" y="-10%" width="120%" height="130%"><feDropShadow dx="0" dy="8" stdDeviation="14" flood-color="#18181b" flood-opacity=".08"/></filter>
    <style>
      :root { color-scheme: light dark; }
      .bg { fill: url(#background); }
      .surface { fill: #ffffff; stroke: #e4e4e7; }
      .panel { fill: #ffffff; stroke: #e4e4e7; }
      .primary { fill: #18181b; }
      .secondary { fill: #71717a; }
      .grid { stroke: #e4e4e7; }
      text { font-family: Inter, ui-sans-serif, system-ui, -apple-system, BlinkMacSystemFont, "Segoe UI", sans-serif; }
      @media (prefers-color-scheme: dark) {
        .bg { fill: #09090b; }
        .surface, .panel { fill: #111113; stroke: #27272a; }
        .primary { fill: #fafafa; }
        .secondary { fill: #a1a1aa; }
        .grid { stroke: #27272a; }
      }
    </style>
  </defs>
  <rect class="bg" width="1000" height="740" rx="28"/>
  <g transform="translate(42 38)">
    <rect x="0" y="0" width="916" height="664" rx="22" class="surface" filter="url(#shadow)"/>
    <text x="30" y="45" class="primary" font-size="26" font-weight="750" letter-spacing="-.5">ProxMenux growth</text>
    <text x="30" y="70" class="secondary" font-size="14">MacRimi/ProxMenux · Jan 15, 2025 – Aug 7, 2026</text>
    <g transform="translate(740 25)"><rect width="146" height="30" rx="15" fill="#8b5cf6" fill-opacity=".12"/><circle cx="17" cy="15" r="4" fill="#8b5cf6"/><text x="30" y="20" fill="#8b5cf6" font-size="11" font-weight="700" letter-spacing="1">LOCAL HISTORY</text></g>
    <g transform="translate(30 92)">
    <rect width="418" height="86" rx="16" class="panel"/>
    <rect x="16" y="17" width="6" height="52" rx="3" fill="#8b5cf6"/>
    <text x="38" y="34" class="secondary" font-size="12" font-weight="650" letter-spacing=".3">STARS</text>
    <text x="38" y="64" class="primary" font-size="27" font-weight="760" letter-spacing="-.5">2,839</text>
    <text x="392" y="63" text-anchor="end" fill="#8b5cf6" font-size="11" font-weight="650">+2,838 tracked</text>
  </g><g transform="translate(468 92)">
    <rect width="418" height="86" rx="16" class="panel"/>
    <rect x="16" y="17" width="6" height="52" rx="3" fill="#06b6d4"/>
    <text x="38" y="34" class="secondary" font-size="12" font-weight="650" letter-spacing=".3">FORKS</text>
    <text x="38" y="64" class="primary" font-size="27" font-weight="760" letter-spacing="-.5">151</text>
    <text x="392" y="63" text-anchor="end" fill="#06b6d4" font-size="11" font-weight="650">+151 tracked</text>
  </g>
    <g transform="translate(30 197)">
    <rect width="856" height="201" rx="16" class="panel"/>
    <circle cx="20" cy="27" r="5" fill="#8b5cf6"/>
    <text x="34" y="31" class="primary" font-size="14" font-weight="700">Stars</text>
    <text x="20" y="62" class="primary" font-size="20" font-weight="750">2,839</text>
    <text x="20" y="83" class="secondary" font-size="11">range 1–2,839</text>
    <line x1="220" x2="836" y1="20" y2="20" class="grid" stroke-width="1" stroke-dasharray="3 6"/><text x="210" y="24" text-anchor="end" class="secondary" font-size="9">2,839</text><line x1="220" x2="836" y1="95" y2="95" class="grid" stroke-width="1" stroke-dasharray="3 6"/><text x="210" y="99" text-anchor="end" class="secondary" font-size="9">1,420</text><line x1="220" x2="836" y1="170" y2="170" class="grid" stroke-width="1" stroke-dasharray="3 6"/><text x="210" y="174" text-anchor="end" class="secondary" font-size="9">1</text>
    <path d="M220 170 L276.3 169.9 L285 169.8 L292.5 169.8 L293.6 169.7 L297.9 169.7 L299 169.6 L302.3 169.6 L308.8 169.5 L333.7 169.3 L334.8 169.2 L341.3 169.2 L343.4 169 L344.5 169 L345.6 168.9 L346.7 168 L347.7 166.9 L348.8 166.8 L349.9 166.7 L351 166.6 L352.1 166.4 L354.2 166.3 L355.3 166.2 L356.4 166 L357.5 166 L358.6 165.2 L359.7 164.1 L360.7 163.5 L361.8 163.1 L362.9 163.1 L364 163 L365.1 162.8 L369.4 162.7 L370.5 162.4 L371.6 162.3 L373.7 162.2 L374.8 162.1 L377 162 L378.1 161.9 L379.1 161.8 L381.3 161.6 L383.5 161.6 L384.6 161.4 L387.8 157.3 L388.9 153.8 L390 152.2 L391.1 150.3 L392.1 148.5 L393.2 147.3 L394.3 146.1 L395.4 145.1 L396.5 144.7 L397.5 144.3 L398.6 143.8 L399.7 143.5 L400.8 143.3 L401.9 142.8 L403 142.5 L404 141.8 L405.1 141.2 L406.2 140.8 L407.3 140.1 L408.4 139.7 L409.5 139.6 L410.5 139.2 L411.6 138.9 L412.7 138.4 L413.8 138.2 L416 137.9 L417 137.6 L418.1 137.4 L419.2 137.3 L420.3 137.1 L421.4 137 L422.4 136.9 L423.5 136.6 L424.6 136.3 L425.7 136 L426.8 135.6 L427.9 135.4 L428.9 135.3 L430 135.1 L431.1 134.9 L432.2 134.7 L433.3 134.5 L434.4 134.3 L435.4 134.1 L436.5 134 L437.6 133.7 L438.7 133.6 L439.8 133.5 L440.9 133.3 L441.9 133.3 L443 132.9 L444.1 132.5 L445.2 132.1 L446.3 131.9 L447.3 131.6 L448.4 131.3 L449.5 131 L451.7 130.8 L452.8 130.5 L453.8 130.4 L454.9 130.2 L456 129.8 L457.1 129.6 L458.2 129.5 L459.3 129.4 L460.3 129.3 L461.4 129.1 L462.5 129.1 L463.6 128.9 L464.7 128.7 L465.8 128.5 L466.8 128.4 L467.9 128.3 L469 128.1 L472.2 127.8 L473.3 127.7 L474.4 127.5 L475.5 127.3 L477.7 127.2 L478.7 126.8 L479.8 126.7 L480.9 126.2 L482 125.8 L483.1 125.5 L484.2 125.4 L485.2 125.3 L486.3 125.1 L487.4 124.9 L488.5 124.7 L489.6 124.4 L490.7 124.3 L491.7 124.1 L492.8 123.5 L493.9 123.3 L495 123.2 L496.1 122.8 L497.1 122.3 L498.2 121.7 L499.3 121.5 L500.4 121.1 L501.5 120.9 L503.6 120.6 L504.7 120.5 L505.8 120.4 L506.9 120 L508 119.7 L509.1 119.4 L511.2 118.9 L513.4 118.6 L514.5 118.4 L515.6 118.1 L516.6 118 L517.7 117.8 L518.8 117.6 L519.9 117.6 L521 117.3 L522 117.3 L523.1 117.1 L524.2 116.8 L525.3 116.7 L526.4 116.5 L527.5 116.4 L528.5 115.9 L529.6 115.7 L530.7 115.5 L531.8 115.1 L532.9 114.6 L534 114 L535 112.8 L536.1 111.6 L537.2 110.9 L538.3 110.1 L539.4 109.5 L540.4 107.9 L541.5 103.7 L542.6 101 L543.7 99.4 L544.8 99 L545.9 98.2 L546.9 97.5 L548 95.5 L549.1 93.5 L550.2 91.8 L551.3 91.2 L552.4 89.8 L553.4 89.2 L554.5 88.4 L555.6 87.6 L556.7 86.8 L557.8 86.2 L558.9 84.9 L559.9 84.5 L561 83.3 L562.1 83.1 L563.2 82.8 L564.3 82.3 L565.3 81.6 L566.4 81 L567.5 80.6 L568.6 80.3 L569.7 79.8 L570.8 79.1 L571.8 78.7 L572.9 75.7 L574 74.3 L575.1 73.4 L576.2 72.6 L577.3 72.1 L578.3 71.5 L579.4 71 L580.5 70.4 L581.6 70 L582.7 69.7 L583.8 69.5 L584.8 69.3 L585.9 68.7 L587 68.5 L588.1 67.8 L589.2 67.6 L590.2 67.3 L591.3 67 L592.4 66.7 L593.5 66.2 L594.6 65.9 L595.7 65 L596.7 64.7 L597.8 64.3 L598.9 64.2 L600 63.9 L601.1 63.5 L602.2 63.3 L603.2 62.9 L604.3 62.5 L605.4 62.3 L606.5 62 L607.6 61.6 L608.7 61.4 L609.7 61.1 L610.8 61 L611.9 60.6 L613 60.2 L614.1 60 L615.1 59.8 L616.2 58.9 L617.3 58.2 L618.4 57.8 L619.5 57.6 L620.6 57.3 L621.6 57.1 L622.7 56.7 L623.8 56.4 L624.9 56.2 L626 56 L627.1 55.8 L628.1 55.6 L629.2 54.8 L630.3 54.6 L631.4 54.1 L632.5 53.6 L633.6 53.4 L634.6 52.9 L635.7 52.6 L636.8 52.5 L637.9 52.3 L639 52.1 L640 51.8 L641.1 51.8 L642.2 51.6 L643.3 51.2 L644.4 49.1 L645.5 48.2 L646.5 47.2 L647.6 46.7 L648.7 46.3 L649.8 45.7 L650.9 45.1 L652 44.6 L653 44.1 L654.1 43.7 L655.2 43.6 L656.3 43.1 L657.4 42.7 L658.5 42.5 L659.5 42.3 L660.6 42.1 L661.7 41.7 L662.8 41.4 L663.9 40.9 L664.9 40.9 L666 40.6 L667.1 40.2 L668.2 40.1 L669.3 40 L670.4 39.9 L671.4 39.8 L672.5 39.7 L673.6 39.6 L674.7 39.5 L675.8 39.3 L676.9 39.2 L677.9 39.1 L679 38.9 L680.1 38.7 L681.2 38.4 L682.3 38.3 L683.4 38.2 L684.4 38.1 L685.5 37.6 L686.6 37.4 L687.7 37 L688.8 36.9 L689.8 36.5 L690.9 36.3 L692 36.2 L693.1 36.1 L694.2 35.9 L695.3 35.6 L696.3 35.4 L697.4 35.3 L698.5 35.1 L699.6 35 L700.7 34.9 L701.8 34.7 L702.8 34.5 L703.9 34.5 L707.2 34.4 L708.3 34.1 L710.4 34 L711.5 33.9 L713.7 33.8 L714.7 33.7 L715.8 33.3 L716.9 33.2 L718 32.9 L719.1 32.7 L720.2 32.6 L721.2 32.3 L722.3 32.2 L723.4 32.1 L725.6 31.9 L726.7 31.9 L727.7 31.8 L728.8 31.8 L729.9 31.6 L731 31.6 L732.1 31.5 L733.2 31.3 L735.3 31.2 L736.4 31 L737.5 30.9 L738.6 30.8 L739.6 30.5 L741.8 30.4 L742.9 30.3 L744 30 L745.1 29.9 L746.1 29.7 L747.2 29.5 L748.3 29.5 L749.4 29.3 L750.5 29.2 L751.6 28.9 L752.6 28.7 L753.7 28.5 L754.8 28.4 L755.9 28.3 L757 28.1 L758.1 27.9 L759.1 27.9 L760.2 27.7 L761.3 27.7 L762.4 27.6 L763.5 27.5 L764.5 27.2 L765.6 27.1 L766.7 26.9 L767.8 26.9 L768.9 26.8 L770 26.7 L771 26.6 L772.1 26.5 L773.2 26.3 L774.3 26.2 L775.4 26.2 L776.5 26.1 L777.5 26 L778.6 25.8 L779.7 25.8 L781.9 25.7 L783 25.6 L784 25.5 L785.1 25.3 L786.2 25.3 L787.3 25.2 L788.4 25.1 L789.4 25 L791.6 24.8 L793.8 24.7 L794.9 24.6 L795.9 24.4 L798.1 24.3 L799.2 24.2 L800.3 24.1 L801.4 23.9 L802.4 23.9 L804.6 23.6 L805.7 23.5 L808.9 23.5 L810 23.2 L811.1 23.1 L812.2 23 L813.3 23 L814.3 22.9 L815.4 22.8 L816.5 22.3 L817.6 21.5 L818.7 21.4 L819.8 21.2 L820.8 21.1 L821.9 21 L823 20.9 L824.1 20.9 L825.2 20.8 L826.3 20.7 L827.3 20.7 L828.4 20.6 L829.5 20.4 L830.6 20.4 L831.7 20.3 L832.8 20.2 L833.8 20.2 L834.9 20.2 L836 20 L836 170 L220 170 Z" fill="url(#fill-stars)"/>
    <path d="M220 170 L276.3 169.9 L285 169.8 L292.5 169.8 L293.6 169.7 L297.9 169.7 L299 169.6 L302.3 169.6 L308.8 169.5 L333.7 169.3 L334.8 169.2 L341.3 169.2 L343.4 169 L344.5 169 L345.6 168.9 L346.7 168 L347.7 166.9 L348.8 166.8 L349.9 166.7 L351 166.6 L352.1 166.4 L354.2 166.3 L355.3 166.2 L356.4 166 L357.5 166 L358.6 165.2 L359.7 164.1 L360.7 163.5 L361.8 163.1 L362.9 163.1 L364 163 L365.1 162.8 L369.4 162.7 L370.5 162.4 L371.6 162.3 L373.7 162.2 L374.8 162.1 L377 162 L378.1 161.9 L379.1 161.8 L381.3 161.6 L383.5 161.6 L384.6 161.4 L387.8 157.3 L388.9 153.8 L390 152.2 L391.1 150.3 L392.1 148.5 L393.2 147.3 L394.3 146.1 L395.4 145.1 L396.5 144.7 L397.5 144.3 L398.6 143.8 L399.7 143.5 L400.8 143.3 L401.9 142.8 L403 142.5 L404 141.8 L405.1 141.2 L406.2 140.8 L407.3 140.1 L408.4 139.7 L409.5 139.6 L410.5 139.2 L411.6 138.9 L412.7 138.4 L413.8 138.2 L416 137.9 L417 137.6 L418.1 137.4 L419.2 137.3 L420.3 137.1 L421.4 137 L422.4 136.9 L423.5 136.6 L424.6 136.3 L425.7 136 L426.8 135.6 L427.9 135.4 L428.9 135.3 L430 135.1 L431.1 134.9 L432.2 134.7 L433.3 134.5 L434.4 134.3 L435.4 134.1 L436.5 134 L437.6 133.7 L438.7 133.6 L439.8 133.5 L440.9 133.3 L441.9 133.3 L443 132.9 L444.1 132.5 L445.2 132.1 L446.3 131.9 L447.3 131.6 L448.4 131.3 L449.5 131 L451.7 130.8 L452.8 130.5 L453.8 130.4 L454.9 130.2 L456 129.8 L457.1 129.6 L458.2 129.5 L459.3 129.4 L460.3 129.3 L461.4 129.1 L462.5 129.1 L463.6 128.9 L464.7 128.7 L465.8 128.5 L466.8 128.4 L467.9 128.3 L469 128.1 L472.2 127.8 L473.3 127.7 L474.4 127.5 L475.5 127.3 L477.7 127.2 L478.7 126.8 L479.8 126.7 L480.9 126.2 L482 125.8 L483.1 125.5 L484.2 125.4 L485.2 125.3 L486.3 125.1 L487.4 124.9 L488.5 124.7 L489.6 124.4 L490.7 124.3 L491.7 124.1 L492.8 123.5 L493.9 123.3 L495 123.2 L496.1 122.8 L497.1 122.3 L498.2 121.7 L499.3 121.5 L500.4 121.1 L501.5 120.9 L503.6 120.6 L504.7 120.5 L505.8 120.4 L506.9 120 L508 119.7 L509.1 119.4 L511.2 118.9 L513.4 118.6 L514.5 118.4 L515.6 118.1 L516.6 118 L517.7 117.8 L518.8 117.6 L519.9 117.6 L521 117.3 L522 117.3 L523.1 117.1 L524.2 116.8 L525.3 116.7 L526.4 116.5 L527.5 116.4 L528.5 115.9 L529.6 115.7 L530.7 115.5 L531.8 115.1 L532.9 114.6 L534 114 L535 112.8 L536.1 111.6 L537.2 110.9 L538.3 110.1 L539.4 109.5 L540.4 107.9 L541.5 103.7 L542.6 101 L543.7 99.4 L544.8 99 L545.9 98.2 L546.9 97.5 L548 95.5 L549.1 93.5 L550.2 91.8 L551.3 91.2 L552.4 89.8 L553.4 89.2 L554.5 88.4 L555.6 87.6 L556.7 86.8 L557.8 86.2 L558.9 84.9 L559.9 84.5 L561 83.3 L562.1 83.1 L563.2 82.8 L564.3 82.3 L565.3 81.6 L566.4 81 L567.5 80.6 L568.6 80.3 L569.7 79.8 L570.8 79.1 L571.8 78.7 L572.9 75.7 L574 74.3 L575.1 73.4 L576.2 72.6 L577.3 72.1 L578.3 71.5 L579.4 71 L580.5 70.4 L581.6 70 L582.7 69.7 L583.8 69.5 L584.8 69.3 L585.9 68.7 L587 68.5 L588.1 67.8 L589.2 67.6 L590.2 67.3 L591.3 67 L592.4 66.7 L593.5 66.2 L594.6 65.9 L595.7 65 L596.7 64.7 L597.8 64.3 L598.9 64.2 L600 63.9 L601.1 63.5 L602.2 63.3 L603.2 62.9 L604.3 62.5 L605.4 62.3 L606.5 62 L607.6 61.6 L608.7 61.4 L609.7 61.1 L610.8 61 L611.9 60.6 L613 60.2 L614.1 60 L615.1 59.8 L616.2 58.9 L617.3 58.2 L618.4 57.8 L619.5 57.6 L620.6 57.3 L621.6 57.1 L622.7 56.7 L623.8 56.4 L624.9 56.2 L626 56 L627.1 55.8 L628.1 55.6 L629.2 54.8 L630.3 54.6 L631.4 54.1 L632.5 53.6 L633.6 53.4 L634.6 52.9 L635.7 52.6 L636.8 52.5 L637.9 52.3 L639 52.1 L640 51.8 L641.1 51.8 L642.2 51.6 L643.3 51.2 L644.4 49.1 L645.5 48.2 L646.5 47.2 L647.6 46.7 L648.7 46.3 L649.8 45.7 L650.9 45.1 L652 44.6 L653 44.1 L654.1 43.7 L655.2 43.6 L656.3 43.1 L657.4 42.7 L658.5 42.5 L659.5 42.3 L660.6 42.1 L661.7 41.7 L662.8 41.4 L663.9 40.9 L664.9 40.9 L666 40.6 L667.1 40.2 L668.2 40.1 L669.3 40 L670.4 39.9 L671.4 39.8 L672.5 39.7 L673.6 39.6 L674.7 39.5 L675.8 39.3 L676.9 39.2 L677.9 39.1 L679 38.9 L680.1 38.7 L681.2 38.4 L682.3 38.3 L683.4 38.2 L684.4 38.1 L685.5 37.6 L686.6 37.4 L687.7 37 L688.8 36.9 L689.8 36.5 L690.9 36.3 L692 36.2 L693.1 36.1 L694.2 35.9 L695.3 35.6 L696.3 35.4 L697.4 35.3 L698.5 35.1 L699.6 35 L700.7 34.9 L701.8 34.7 L702.8 34.5 L703.9 34.5 L707.2 34.4 L708.3 34.1 L710.4 34 L711.5 33.9 L713.7 33.8 L714.7 33.7 L715.8 33.3 L716.9 33.2 L718 32.9 L719.1 32.7 L720.2 32.6 L721.2 32.3 L722.3 32.2 L723.4 32.1 L725.6 31.9 L726.7 31.9 L727.7 31.8 L728.8 31.8 L729.9 31.6 L731 31.6 L732.1 31.5 L733.2 31.3 L735.3 31.2 L736.4 31 L737.5 30.9 L738.6 30.8 L739.6 30.5 L741.8 30.4 L742.9 30.3 L744 30 L745.1 29.9 L746.1 29.7 L747.2 29.5 L748.3 29.5 L749.4 29.3 L750.5 29.2 L751.6 28.9 L752.6 28.7 L753.7 28.5 L754.8 28.4 L755.9 28.3 L757 28.1 L758.1 27.9 L759.1 27.9 L760.2 27.7 L761.3 27.7 L762.4 27.6 L763.5 27.5 L764.5 27.2 L765.6 27.1 L766.7 26.9 L767.8 26.9 L768.9 26.8 L770 26.7 L771 26.6 L772.1 26.5 L773.2 26.3 L774.3 26.2 L775.4 26.2 L776.5 26.1 L777.5 26 L778.6 25.8 L779.7 25.8 L781.9 25.7 L783 25.6 L784 25.5 L785.1 25.3 L786.2 25.3 L787.3 25.2 L788.4 25.1 L789.4 25 L791.6 24.8 L793.8 24.7 L794.9 24.6 L795.9 24.4 L798.1 24.3 L799.2 24.2 L800.3 24.1 L801.4 23.9 L802.4 23.9 L804.6 23.6 L805.7 23.5 L808.9 23.5 L810 23.2 L811.1 23.1 L812.2 23 L813.3 23 L814.3 22.9 L815.4 22.8 L816.5 22.3 L817.6 21.5 L818.7 21.4 L819.8 21.2 L820.8 21.1 L821.9 21 L823 20.9 L824.1 20.9 L825.2 20.8 L826.3 20.7 L827.3 20.7 L828.4 20.6 L829.5 20.4 L830.6 20.4 L831.7 20.3 L832.8 20.2 L833.8 20.2 L834.9 20.2 L836 20" fill="none" stroke="#8b5cf6" stroke-width="3" stroke-linecap="round" stroke-linejoin="round"/>
    <circle cx="836" cy="20" r="5" fill="#8b5cf6" stroke="#fff" stroke-width="2"/>
    <text x="220" y="194" text-anchor="start" class="secondary" font-size="9">Jan 15, 2025</text><text x="528" y="194" text-anchor="middle" class="secondary" font-size="9">Oct 26, 2025</text><text x="836" y="194" text-anchor="end" class="secondary" font-size="9">Aug 7, 2026</text>
  </g><g transform="translate(30 414)">
    <rect width="856" height="201" rx="16" class="panel"/>
    <circle cx="20" cy="27" r="5" fill="#06b6d4"/>
    <text x="34" y="31" class="primary" font-size="14" font-weight="700">Forks</text>
    <text x="20" y="62" class="primary" font-size="20" font-weight="750">151</text>
    <text x="20" y="83" class="secondary" font-size="11">range 0–151</text>
    <line x1="220" x2="836" y1="20" y2="20" class="grid" stroke-width="1" stroke-dasharray="3 6"/><text x="210" y="24" text-anchor="end" class="secondary" font-size="9">151</text><line x1="220" x2="836" y1="95" y2="95" class="grid" stroke-width="1" stroke-dasharray="3 6"/><text x="210" y="99" text-anchor="end" class="secondary" font-size="9">76</text><line x1="220" x2="836" y1="170" y2="170" class="grid" stroke-width="1" stroke-dasharray="3 6"/><text x="210" y="174" text-anchor="end" class="secondary" font-size="9">0</text>
    <path d="M220 170 L276.3 170 L285 170 L292.5 170 L293.6 170 L297.9 170 L299 170 L302.3 170 L308.8 170 L333.7 170 L334.8 169 L341.3 169 L343.4 169 L344.5 169 L345.6 169 L346.7 169 L347.7 169 L348.8 169 L349.9 168 L351 168 L352.1 168 L354.2 168 L355.3 168 L356.4 167 L357.5 166 L358.6 166 L359.7 165 L360.7 165 L361.8 165 L362.9 165 L364 165 L365.1 165 L369.4 165 L370.5 165 L371.6 165 L373.7 165 L374.8 165 L377 165 L378.1 165 L379.1 164 L381.3 163 L383.5 163 L384.6 163 L387.8 159.1 L388.9 154.1 L390 151.1 L391.1 149.1 L392.1 148.1 L393.2 148.1 L394.3 147.2 L395.4 145.2 L396.5 144.2 L397.5 144.2 L398.6 144.2 L399.7 144.2 L400.8 144.2 L401.9 144.2 L403 144.2 L404 143.2 L405.1 143.2 L406.2 142.2 L407.3 140.2 L408.4 138.2 L409.5 136.2 L410.5 136.2 L411.6 136.2 L412.7 135.2 L413.8 135.2 L416 134.2 L417 133.2 L418.1 133.2 L419.2 133.2 L420.3 132.3 L421.4 131.3 L422.4 131.3 L423.5 131.3 L424.6 131.3 L425.7 131.3 L426.8 131.3 L427.9 131.3 L428.9 131.3 L430 130.3 L431.1 130.3 L432.2 130.3 L433.3 129.3 L434.4 129.3 L435.4 129.3 L436.5 129.3 L437.6 129.3 L438.7 129.3 L439.8 128.3 L440.9 128.3 L441.9 128.3 L443 128.3 L444.1 128.3 L445.2 128.3 L446.3 128.3 L447.3 128.3 L448.4 128.3 L449.5 128.3 L451.7 128.3 L452.8 128.3 L453.8 128.3 L454.9 128.3 L456 128.3 L457.1 127.3 L458.2 127.3 L459.3 126.3 L460.3 126.3 L461.4 125.3 L462.5 125.3 L463.6 125.3 L464.7 125.3 L465.8 124.3 L466.8 124.3 L467.9 123.3 L469 123.3 L472.2 122.3 L473.3 122.3 L474.4 122.3 L475.5 122.3 L477.7 122.3 L478.7 121.3 L479.8 121.3 L480.9 121.3 L482 121.3 L483.1 120.3 L484.2 120.3 L485.2 120.3 L486.3 119.3 L487.4 119.3 L488.5 118.3 L489.6 118.3 L490.7 118.3 L491.7 118.3 L492.8 117.4 L493.9 117.4 L495 117.4 L496.1 117.4 L497.1 117.4 L498.2 117.4 L499.3 117.4 L500.4 117.4 L501.5 117.4 L503.6 116.4 L504.7 116.4 L505.8 116.4 L506.9 116.4 L508 116.4 L509.1 116.4 L511.2 116.4 L513.4 115.4 L514.5 114.4 L515.6 113.4 L516.6 113.4 L517.7 113.4 L518.8 113.4 L519.9 113.4 L521 113.4 L522 111.4 L523.1 111.4 L524.2 110.4 L525.3 110.4 L526.4 109.4 L527.5 109.4 L528.5 108.4 L529.6 108.4 L530.7 108.4 L531.8 108.4 L532.9 107.4 L534 107.4 L535 107.4 L536.1 106.4 L537.2 106.4 L538.3 106.4 L539.4 105.4 L540.4 104.4 L541.5 103.4 L542.6 101.5 L543.7 99.5 L544.8 98.5 L545.9 98.5 L546.9 97.5 L548 97.5 L549.1 97.5 L550.2 96.5 L551.3 95.5 L552.4 93.5 L553.4 91.5 L554.5 90.5 L555.6 90.5 L556.7 90.5 L557.8 89.5 L558.9 87.5 L559.9 87.5 L561 86.6 L562.1 84.6 L563.2 84.6 L564.3 84.6 L565.3 84.6 L566.4 83.6 L567.5 82.6 L568.6 82.6 L569.7 82.6 L570.8 79.6 L571.8 79.6 L572.9 78.6 L574 77.6 L575.1 76.6 L576.2 76.6 L577.3 75.6 L578.3 75.6 L579.4 75.6 L580.5 75.6 L581.6 75.6 L582.7 74.6 L583.8 74.6 L584.8 74.6 L585.9 74.6 L587 72.6 L588.1 72.6 L589.2 71.7 L590.2 71.7 L591.3 71.7 L592.4 71.7 L593.5 71.7 L594.6 71.7 L595.7 70.7 L596.7 69.7 L597.8 69.7 L598.9 69.7 L600 69.7 L601.1 69.7 L602.2 67.7 L603.2 67.7 L604.3 67.7 L605.4 67.7 L606.5 67.7 L607.6 66.7 L608.7 65.7 L609.7 64.7 L610.8 64.7 L611.9 63.7 L613 63.7 L614.1 63.7 L615.1 63.7 L616.2 63.7 L617.3 63.7 L618.4 63.7 L619.5 63.7 L620.6 63.7 L621.6 63.7 L622.7 63.7 L623.8 63.7 L624.9 63.7 L626 63.7 L627.1 63.7 L628.1 63.7 L629.2 62.7 L630.3 62.7 L631.4 62.7 L632.5 62.7 L633.6 61.7 L634.6 61.7 L635.7 59.7 L636.8 59.7 L637.9 59.7 L639 59.7 L640 58.7 L641.1 58.7 L642.2 58.7 L643.3 58.7 L644.4 58.7 L645.5 57.7 L646.5 54.8 L647.6 54.8 L648.7 53.8 L649.8 53.8 L650.9 52.8 L652 52.8 L653 52.8 L654.1 52.8 L655.2 52.8 L656.3 52.8 L657.4 52.8 L658.5 52.8 L659.5 52.8 L660.6 51.8 L661.7 50.8 L662.8 50.8 L663.9 50.8 L664.9 50.8 L666 50.8 L667.1 49.8 L668.2 49.8 L669.3 49.8 L670.4 48.8 L671.4 48.8 L672.5 48.8 L673.6 48.8 L674.7 48.8 L675.8 48.8 L676.9 48.8 L677.9 48.8 L679 48.8 L680.1 48.8 L681.2 48.8 L682.3 48.8 L683.4 48.8 L684.4 48.8 L685.5 48.8 L686.6 48.8 L687.7 48.8 L688.8 48.8 L689.8 48.8 L690.9 48.8 L692 48.8 L693.1 48.8 L694.2 48.8 L695.3 48.8 L696.3 48.8 L697.4 48.8 L698.5 48.8 L699.6 48.8 L700.7 48.8 L701.8 48.8 L702.8 48.8 L703.9 48.8 L707.2 48.8 L708.3 48.8 L710.4 48.8 L711.5 47.8 L713.7 47.8 L714.7 46.8 L715.8 45.8 L716.9 45.8 L718 45.8 L719.1 45.8 L720.2 45.8 L721.2 45.8 L722.3 44.8 L723.4 43.8 L725.6 43.8 L726.7 41.9 L727.7 41.9 L728.8 40.9 L729.9 40.9 L731 38.9 L732.1 38.9 L733.2 38.9 L735.3 38.9 L736.4 38.9 L737.5 38.9 L738.6 38.9 L739.6 37.9 L741.8 37.9 L742.9 37.9 L744 36.9 L745.1 35.9 L746.1 34.9 L747.2 34.9 L748.3 34.9 L749.4 34.9 L750.5 34.9 L751.6 34.9 L752.6 34.9 L753.7 32.9 L754.8 32.9 L755.9 32.9 L757 32.9 L758.1 32.9 L759.1 32.9 L760.2 31.9 L761.3 31.9 L762.4 31.9 L763.5 31.9 L764.5 31.9 L765.6 31.9 L766.7 30.9 L767.8 30.9 L768.9 30.9 L770 30.9 L771 30.9 L772.1 30.9 L773.2 30.9 L774.3 30.9 L775.4 30.9 L776.5 28.9 L777.5 27.9 L778.6 27.9 L779.7 27 L781.9 27 L783 27 L784 27 L785.1 27 L786.2 26 L787.3 26 L788.4 26 L789.4 26 L791.6 26 L793.8 26 L794.9 26 L795.9 26 L798.1 26 L799.2 26 L800.3 26 L801.4 26 L802.4 25 L804.6 25 L805.7 25 L808.9 25 L810 25 L811.1 25 L812.2 25 L813.3 25 L814.3 25 L815.4 25 L816.5 25 L817.6 22 L818.7 23 L819.8 22 L820.8 22 L821.9 21 L823 21 L824.1 21 L825.2 22 L826.3 22 L827.3 22 L828.4 22 L829.5 21 L830.6 21 L831.7 20 L832.8 20 L833.8 20 L834.9 20 L836 20 L836 170 L220 170 Z" fill="url(#fill-forks)"/>
    <path d="M220 170 L276.3 170 L285 170 L292.5 170 L293.6 170 L297.9 170 L299 170 L302.3 170 L308.8 170 L333.7 170 L334.8 169 L341.3 169 L343.4 169 L344.5 169 L345.6 169 L346.7 169 L347.7 169 L348.8 169 L349.9 168 L351 168 L352.1 168 L354.2 168 L355.3 168 L356.4 167 L357.5 166 L358.6 166 L359.7 165 L360.7 165 L361.8 165 L362.9 165 L364 165 L365.1 165 L369.4 165 L370.5 165 L371.6 165 L373.7 165 L374.8 165 L377 165 L378.1 165 L379.1 164 L381.3 163 L383.5 163 L384.6 163 L387.8 159.1 L388.9 154.1 L390 151.1 L391.1 149.1 L392.1 148.1 L393.2 148.1 L394.3 147.2 L395.4 145.2 L396.5 144.2 L397.5 144.2 L398.6 144.2 L399.7 144.2 L400.8 144.2 L401.9 144.2 L403 144.2 L404 143.2 L405.1 143.2 L406.2 142.2 L407.3 140.2 L408.4 138.2 L409.5 136.2 L410.5 136.2 L411.6 136.2 L412.7 135.2 L413.8 135.2 L416 134.2 L417 133.2 L418.1 133.2 L419.2 133.2 L420.3 132.3 L421.4 131.3 L422.4 131.3 L423.5 131.3 L424.6 131.3 L425.7 131.3 L426.8 131.3 L427.9 131.3 L428.9 131.3 L430 130.3 L431.1 130.3 L432.2 130.3 L433.3 129.3 L434.4 129.3 L435.4 129.3 L436.5 129.3 L437.6 129.3 L438.7 129.3 L439.8 128.3 L440.9 128.3 L441.9 128.3 L443 128.3 L444.1 128.3 L445.2 128.3 L446.3 128.3 L447.3 128.3 L448.4 128.3 L449.5 128.3 L451.7 128.3 L452.8 128.3 L453.8 128.3 L454.9 128.3 L456 128.3 L457.1 127.3 L458.2 127.3 L459.3 126.3 L460.3 126.3 L461.4 125.3 L462.5 125.3 L463.6 125.3 L464.7 125.3 L465.8 124.3 L466.8 124.3 L467.9 123.3 L469 123.3 L472.2 122.3 L473.3 122.3 L474.4 122.3 L475.5 122.3 L477.7 122.3 L478.7 121.3 L479.8 121.3 L480.9 121.3 L482 121.3 L483.1 120.3 L484.2 120.3 L485.2 120.3 L486.3 119.3 L487.4 119.3 L488.5 118.3 L489.6 118.3 L490.7 118.3 L491.7 118.3 L492.8 117.4 L493.9 117.4 L495 117.4 L496.1 117.4 L497.1 117.4 L498.2 117.4 L499.3 117.4 L500.4 117.4 L501.5 117.4 L503.6 116.4 L504.7 116.4 L505.8 116.4 L506.9 116.4 L508 116.4 L509.1 116.4 L511.2 116.4 L513.4 115.4 L514.5 114.4 L515.6 113.4 L516.6 113.4 L517.7 113.4 L518.8 113.4 L519.9 113.4 L521 113.4 L522 111.4 L523.1 111.4 L524.2 110.4 L525.3 110.4 L526.4 109.4 L527.5 109.4 L528.5 108.4 L529.6 108.4 L530.7 108.4 L531.8 108.4 L532.9 107.4 L534 107.4 L535 107.4 L536.1 106.4 L537.2 106.4 L538.3 106.4 L539.4 105.4 L540.4 104.4 L541.5 103.4 L542.6 101.5 L543.7 99.5 L544.8 98.5 L545.9 98.5 L546.9 97.5 L548 97.5 L549.1 97.5 L550.2 96.5 L551.3 95.5 L552.4 93.5 L553.4 91.5 L554.5 90.5 L555.6 90.5 L556.7 90.5 L557.8 89.5 L558.9 87.5 L559.9 87.5 L561 86.6 L562.1 84.6 L563.2 84.6 L564.3 84.6 L565.3 84.6 L566.4 83.6 L567.5 82.6 L568.6 82.6 L569.7 82.6 L570.8 79.6 L571.8 79.6 L572.9 78.6 L574 77.6 L575.1 76.6 L576.2 76.6 L577.3 75.6 L578.3 75.6 L579.4 75.6 L580.5 75.6 L581.6 75.6 L582.7 74.6 L583.8 74.6 L584.8 74.6 L585.9 74.6 L587 72.6 L588.1 72.6 L589.2 71.7 L590.2 71.7 L591.3 71.7 L592.4 71.7 L593.5 71.7 L594.6 71.7 L595.7 70.7 L596.7 69.7 L597.8 69.7 L598.9 69.7 L600 69.7 L601.1 69.7 L602.2 67.7 L603.2 67.7 L604.3 67.7 L605.4 67.7 L606.5 67.7 L607.6 66.7 L608.7 65.7 L609.7 64.7 L610.8 64.7 L611.9 63.7 L613 63.7 L614.1 63.7 L615.1 63.7 L616.2 63.7 L617.3 63.7 L618.4 63.7 L619.5 63.7 L620.6 63.7 L621.6 63.7 L622.7 63.7 L623.8 63.7 L624.9 63.7 L626 63.7 L627.1 63.7 L628.1 63.7 L629.2 62.7 L630.3 62.7 L631.4 62.7 L632.5 62.7 L633.6 61.7 L634.6 61.7 L635.7 59.7 L636.8 59.7 L637.9 59.7 L639 59.7 L640 58.7 L641.1 58.7 L642.2 58.7 L643.3 58.7 L644.4 58.7 L645.5 57.7 L646.5 54.8 L647.6 54.8 L648.7 53.8 L649.8 53.8 L650.9 52.8 L652 52.8 L653 52.8 L654.1 52.8 L655.2 52.8 L656.3 52.8 L657.4 52.8 L658.5 52.8 L659.5 52.8 L660.6 51.8 L661.7 50.8 L662.8 50.8 L663.9 50.8 L664.9 50.8 L666 50.8 L667.1 49.8 L668.2 49.8 L669.3 49.8 L670.4 48.8 L671.4 48.8 L672.5 48.8 L673.6 48.8 L674.7 48.8 L675.8 48.8 L676.9 48.8 L677.9 48.8 L679 48.8 L680.1 48.8 L681.2 48.8 L682.3 48.8 L683.4 48.8 L684.4 48.8 L685.5 48.8 L686.6 48.8 L687.7 48.8 L688.8 48.8 L689.8 48.8 L690.9 48.8 L692 48.8 L693.1 48.8 L694.2 48.8 L695.3 48.8 L696.3 48.8 L697.4 48.8 L698.5 48.8 L699.6 48.8 L700.7 48.8 L701.8 48.8 L702.8 48.8 L703.9 48.8 L707.2 48.8 L708.3 48.8 L710.4 48.8 L711.5 47.8 L713.7 47.8 L714.7 46.8 L715.8 45.8 L716.9 45.8 L718 45.8 L719.1 45.8 L720.2 45.8 L721.2 45.8 L722.3 44.8 L723.4 43.8 L725.6 43.8 L726.7 41.9 L727.7 41.9 L728.8 40.9 L729.9 40.9 L731 38.9 L732.1 38.9 L733.2 38.9 L735.3 38.9 L736.4 38.9 L737.5 38.9 L738.6 38.9 L739.6 37.9 L741.8 37.9 L742.9 37.9 L744 36.9 L745.1 35.9 L746.1 34.9 L747.2 34.9 L748.3 34.9 L749.4 34.9 L750.5 34.9 L751.6 34.9 L752.6 34.9 L753.7 32.9 L754.8 32.9 L755.9 32.9 L757 32.9 L758.1 32.9 L759.1 32.9 L760.2 31.9 L761.3 31.9 L762.4 31.9 L763.5 31.9 L764.5 31.9 L765.6 31.9 L766.7 30.9 L767.8 30.9 L768.9 30.9 L770 30.9 L771 30.9 L772.1 30.9 L773.2 30.9 L774.3 30.9 L775.4 30.9 L776.5 28.9 L777.5 27.9 L778.6 27.9 L779.7 27 L781.9 27 L783 27 L784 27 L785.1 27 L786.2 26 L787.3 26 L788.4 26 L789.4 26 L791.6 26 L793.8 26 L794.9 26 L795.9 26 L798.1 26 L799.2 26 L800.3 26 L801.4 26 L802.4 25 L804.6 25 L805.7 25 L808.9 25 L810 25 L811.1 25 L812.2 25 L813.3 25 L814.3 25 L815.4 25 L816.5 25 L817.6 22 L818.7 23 L819.8 22 L820.8 22 L821.9 21 L823 21 L824.1 21 L825.2 22 L826.3 22 L827.3 22 L828.4 22 L829.5 21 L830.6 21 L831.7 20 L832.8 20 L833.8 20 L834.9 20 L836 20" fill="none" stroke="#06b6d4" stroke-width="3" stroke-linecap="round" stroke-linejoin="round"/>
    <circle cx="836" cy="20" r="5" fill="#06b6d4" stroke="#fff" stroke-width="2"/>
    <text x="220" y="194" text-anchor="start" class="secondary" font-size="9">Jan 15, 2025</text><text x="528" y="194" text-anchor="middle" class="secondary" font-size="9">Oct 26, 2025</text><text x="836" y="194" text-anchor="end" class="secondary" font-size="9">Aug 7, 2026</text>
  </g>
    <text x="30" y="645" class="secondary" font-size="11">Updated Aug 7, 2026</text>
    <a href="https://github.com/MacRimi/repo-growth" target="_blank" aria-label="Open the Repo Growth project">
      <text x="886" y="645" fill="#8b5cf6" text-anchor="end" font-size="13" font-weight="700">Generated by Repo Growth ↗</text>
    </a>
  </g>
</svg>
