<?xml version="1.0" encoding="UTF-8"?>
<svg xmlns="http://www.w3.org/2000/svg" width="1000" height="957" viewBox="0 0 1000 957" role="img" aria-labelledby="title desc">
  <title id="title">ProxMenux growth for MacRimi/ProxMenux</title>
  <desc id="desc">Repository growth dashboard showing stars, forks, git clones over time.</desc>
  <defs>
    <linearGradient id="background" x1="0" y1="0" x2="1" y2="1">
      <stop offset="0" stop-color="#fafafa"/><stop offset="1" stop-color="#f4f4f5"/>
    </linearGradient>
    <linearGradient id="fill-stars" x1="0" y1="0" x2="0" y2="1"><stop offset="0" stop-color="#8b5cf6" stop-opacity=".24"/><stop offset="1" stop-color="#8b5cf6" stop-opacity="0"/></linearGradient><linearGradient id="fill-forks" x1="0" y1="0" x2="0" y2="1"><stop offset="0" stop-color="#06b6d4" stop-opacity=".24"/><stop offset="1" stop-color="#06b6d4" stop-opacity="0"/></linearGradient><linearGradient id="fill-clones" x1="0" y1="0" x2="0" y2="1"><stop offset="0" stop-color="#f59e0b" stop-opacity=".24"/><stop offset="1" stop-color="#f59e0b" stop-opacity="0"/></linearGradient>
    <filter id="shadow" x="-10%" y="-10%" width="120%" height="130%"><feDropShadow dx="0" dy="8" stdDeviation="14" flood-color="#18181b" flood-opacity=".08"/></filter>
    <style>
      :root { color-scheme: light dark; }
      .bg { fill: url(#background); }
      .surface { fill: #ffffff; stroke: #e4e4e7; }
      .panel { fill: #ffffff; stroke: #e4e4e7; }
      .primary { fill: #18181b; }
      .secondary { fill: #71717a; }
      .grid { stroke: #e4e4e7; }
      text { font-family: Inter, ui-sans-serif, system-ui, -apple-system, BlinkMacSystemFont, "Segoe UI", sans-serif; }
      @media (prefers-color-scheme: dark) {
        .bg { fill: #09090b; }
        .surface, .panel { fill: #111113; stroke: #27272a; }
        .primary { fill: #fafafa; }
        .secondary { fill: #a1a1aa; }
        .grid { stroke: #27272a; }
      }
    </style>
  </defs>
  <rect class="bg" width="1000" height="957" rx="28"/>
  <g transform="translate(42 38)">
    <rect x="0" y="0" width="916" height="881" rx="22" class="surface" filter="url(#shadow)"/>
    <text x="30" y="45" class="primary" font-size="26" font-weight="750" letter-spacing="-.5">ProxMenux growth</text>
    <text x="30" y="70" class="secondary" font-size="14">MacRimi/ProxMenux · Jan 15, 2025 – Aug 22, 2026</text>
    <g transform="translate(740 25)"><rect width="146" height="30" rx="15" fill="#8b5cf6" fill-opacity=".12"/><circle cx="17" cy="15" r="4" fill="#8b5cf6"/><text x="30" y="20" fill="#8b5cf6" font-size="11" font-weight="700" letter-spacing="1">LOCAL HISTORY</text></g>
    <g transform="translate(30 92)">
    <rect width="272" height="86" rx="16" class="panel"/>
    <rect x="16" y="17" width="6" height="52" rx="3" fill="#8b5cf6"/>
    <text x="38" y="34" class="secondary" font-size="12" font-weight="650" letter-spacing=".3">STARS</text>
    <text x="38" y="64" class="primary" font-size="27" font-weight="760" letter-spacing="-.5">2,872</text>
    <text x="246" y="63" text-anchor="end" fill="#8b5cf6" font-size="11" font-weight="650">+2,871 tracked</text>
  </g><g transform="translate(322 92)">
    <rect width="272" height="86" rx="16" class="panel"/>
    <rect x="16" y="17" width="6" height="52" rx="3" fill="#06b6d4"/>
    <text x="38" y="34" class="secondary" font-size="12" font-weight="650" letter-spacing=".3">FORKS</text>
    <text x="38" y="64" class="primary" font-size="27" font-weight="760" letter-spacing="-.5">153</text>
    <text x="246" y="63" text-anchor="end" fill="#06b6d4" font-size="11" font-weight="650">+153 tracked</text>
  </g><g transform="translate(614 92)">
    <rect width="272" height="86" rx="16" class="panel"/>
    <rect x="16" y="17" width="6" height="52" rx="3" fill="#f59e0b"/>
    <text x="38" y="34" class="secondary" font-size="12" font-weight="650" letter-spacing=".3">GIT CLONES</text>
    <text x="38" y="64" class="primary" font-size="27" font-weight="760" letter-spacing="-.5">17.5K</text>
    <text x="246" y="63" text-anchor="end" fill="#f59e0b" font-size="11" font-weight="650">+17.1K tracked</text>
  </g>
    <g transform="translate(30 197)">
    <rect width="856" height="201" rx="16" class="panel"/>
    <circle cx="20" cy="27" r="5" fill="#8b5cf6"/>
    <text x="34" y="31" class="primary" font-size="14" font-weight="700">Stars</text>
    <text x="20" y="62" class="primary" font-size="20" font-weight="750">2,872</text>
    <text x="20" y="83" class="secondary" font-size="11">range 1–2,872</text>
    <line x1="220" x2="836" y1="20" y2="20" class="grid" stroke-width="1" stroke-dasharray="3 6"/><text x="210" y="24" text-anchor="end" class="secondary" font-size="9">2,872</text><line x1="220" x2="836" y1="95" y2="95" class="grid" stroke-width="1" stroke-dasharray="3 6"/><text x="210" y="99" text-anchor="end" class="secondary" font-size="9">1,437</text><line x1="220" x2="836" y1="170" y2="170" class="grid" stroke-width="1" stroke-dasharray="3 6"/><text x="210" y="174" text-anchor="end" class="secondary" font-size="9">1</text>
    <path d="M220 170 L274.8 169.9 L283.3 169.8 L290.7 169.8 L291.7 169.7 L295.9 169.7 L297 169.6 L300.2 169.6 L306.5 169.5 L330.8 169.3 L331.8 169.2 L338.1 169.2 L340.2 169.1 L341.3 169 L342.4 168.9 L343.4 168.1 L344.5 167 L345.5 166.9 L346.6 166.7 L347.6 166.6 L348.7 166.4 L350.8 166.3 L351.8 166.2 L352.9 166.1 L354 166 L355 165.2 L356.1 164.1 L357.1 163.6 L358.2 163.2 L359.2 163.2 L360.3 163.1 L361.3 162.8 L365.6 162.7 L366.6 162.5 L367.7 162.4 L369.8 162.3 L370.8 162.2 L372.9 162.1 L374 162 L375.1 161.8 L377.2 161.7 L379.3 161.7 L380.3 161.5 L383.5 157.4 L384.5 154 L385.6 152.4 L386.7 150.5 L387.7 148.8 L388.8 147.5 L389.8 146.3 L390.9 145.4 L391.9 145 L393 144.6 L394 144.1 L395.1 143.8 L396.2 143.6 L397.2 143.1 L398.3 142.8 L399.3 142.2 L400.4 141.6 L401.4 141.1 L402.5 140.4 L403.5 140 L404.6 139.9 L405.6 139.5 L406.7 139.2 L407.8 138.8 L408.8 138.6 L410.9 138.3 L412 138 L413 137.8 L414.1 137.7 L415.1 137.5 L416.2 137.3 L417.2 137.2 L418.3 137 L419.4 136.7 L420.4 136.4 L421.5 136 L422.5 135.8 L423.6 135.7 L424.6 135.5 L425.7 135.3 L426.7 135.1 L427.8 134.9 L428.8 134.7 L429.9 134.5 L431 134.4 L432 134.2 L433.1 134.1 L434.1 133.9 L435.2 133.7 L436.2 133.7 L437.3 133.4 L438.3 132.9 L439.4 132.5 L440.5 132.4 L441.5 132 L442.6 131.8 L443.6 131.5 L445.7 131.2 L446.8 131 L447.8 130.8 L448.9 130.7 L449.9 130.3 L451 130 L452.1 129.9 L453.1 129.8 L454.2 129.8 L455.2 129.6 L456.3 129.6 L457.3 129.4 L458.4 129.1 L459.4 128.9 L460.5 128.8 L461.5 128.8 L462.6 128.6 L465.8 128.3 L466.8 128.2 L467.9 128 L468.9 127.8 L471 127.7 L472.1 127.3 L473.2 127.2 L474.2 126.7 L475.3 126.3 L476.3 126 L477.4 126 L478.4 125.9 L479.5 125.6 L480.5 125.4 L481.6 125.2 L482.6 125 L483.7 124.8 L484.8 124.6 L485.8 124.1 L486.9 123.8 L487.9 123.7 L489 123.3 L490 122.8 L491.1 122.2 L492.1 122.1 L493.2 121.7 L494.2 121.5 L496.4 121.2 L497.4 121.1 L498.5 120.9 L499.5 120.6 L500.6 120.3 L501.6 119.9 L503.7 119.5 L505.8 119.2 L506.9 119 L508 118.7 L509 118.6 L510.1 118.4 L511.1 118.2 L512.2 118.2 L513.2 117.9 L514.3 117.9 L515.3 117.8 L516.4 117.4 L517.5 117.3 L518.5 117.1 L519.6 117 L520.6 116.6 L521.7 116.3 L522.7 116.1 L523.8 115.7 L524.8 115.2 L525.9 114.6 L526.9 113.5 L528 112.3 L529.1 111.5 L530.1 110.8 L531.2 110.2 L532.2 108.6 L533.3 104.5 L534.3 101.8 L535.4 100.3 L536.4 99.8 L537.5 99 L538.5 98.4 L539.6 96.3 L540.7 94.4 L541.7 92.7 L542.8 92.1 L543.8 90.7 L544.9 90.1 L545.9 89.3 L547 88.5 L548 87.8 L549.1 87.1 L550.2 85.8 L551.2 85.5 L552.3 84.3 L553.3 84.1 L554.4 83.8 L555.4 83.3 L556.5 82.6 L557.5 82.1 L558.6 81.7 L559.6 81.3 L560.7 80.8 L561.8 80.2 L562.8 79.7 L563.9 76.7 L564.9 75.4 L566 74.5 L567 73.7 L568.1 73.2 L569.1 72.6 L570.2 72.1 L571.2 71.5 L572.3 71.1 L573.4 70.9 L574.4 70.7 L575.5 70.4 L576.5 69.9 L577.6 69.6 L578.6 69 L579.7 68.7 L580.7 68.5 L581.8 68.2 L582.8 67.9 L583.9 67.4 L585 67.1 L586 66.2 L587.1 65.9 L588.1 65.6 L589.2 65.5 L590.2 65.1 L591.3 64.7 L592.3 64.6 L593.4 64.1 L594.5 63.7 L595.5 63.5 L596.6 63.3 L597.6 62.9 L598.7 62.6 L599.7 62.4 L600.8 62.3 L601.8 61.9 L602.9 61.5 L603.9 61.2 L605 61.1 L606.1 60.2 L607.1 59.4 L608.2 59.1 L609.2 58.9 L610.3 58.6 L611.3 58.3 L612.4 58 L613.4 57.7 L614.5 57.5 L615.5 57.4 L616.6 57.1 L617.7 56.9 L618.7 56.2 L619.8 55.9 L620.8 55.4 L621.9 55 L622.9 54.7 L624 54.3 L625 54 L626.1 53.9 L627.2 53.7 L628.2 53.5 L629.3 53.2 L630.3 53.1 L631.4 52.9 L632.4 52.5 L633.5 50.5 L634.5 49.6 L635.6 48.6 L636.6 48.1 L637.7 47.7 L638.8 47.2 L639.8 46.5 L640.9 46.1 L641.9 45.5 L643 45.2 L644 45.1 L645.1 44.6 L646.1 44.2 L647.2 44 L648.2 43.8 L649.3 43.6 L650.4 43.2 L651.4 42.8 L652.5 42.4 L653.5 42.4 L654.6 42.1 L655.6 41.7 L656.7 41.6 L657.7 41.5 L658.8 41.4 L659.8 41.3 L660.9 41.2 L662 41.1 L663 41 L664.1 40.8 L665.1 40.7 L666.2 40.6 L667.2 40.4 L668.3 40.2 L669.3 39.9 L670.4 39.9 L671.5 39.7 L672.5 39.6 L673.6 39.1 L674.6 38.9 L675.7 38.5 L676.7 38.4 L677.8 38 L678.8 37.9 L679.9 37.8 L680.9 37.7 L682 37.5 L683.1 37.1 L684.1 37 L685.2 36.8 L686.2 36.7 L687.3 36.5 L688.3 36.4 L689.4 36.2 L690.4 36.1 L691.5 36 L694.7 35.9 L695.7 35.7 L697.8 35.6 L698.9 35.5 L701 35.4 L702 35.3 L703.1 34.9 L704.2 34.7 L705.2 34.5 L706.3 34.3 L707.3 34.2 L708.4 33.8 L709.4 33.8 L710.5 33.7 L712.6 33.5 L713.6 33.5 L714.7 33.4 L715.8 33.4 L716.8 33.2 L717.9 33.2 L718.9 33.1 L720 32.9 L722.1 32.8 L723.1 32.6 L724.2 32.5 L725.2 32.4 L726.3 32.1 L728.4 32 L729.5 31.9 L730.5 31.7 L731.6 31.5 L732.6 31.3 L733.7 31.1 L734.7 31.1 L735.8 30.9 L736.8 30.8 L737.9 30.6 L739 30.3 L740 30.1 L741.1 30 L742.1 29.9 L743.2 29.7 L744.2 29.6 L745.3 29.5 L746.3 29.4 L747.4 29.3 L748.5 29.2 L749.5 29.1 L750.6 28.9 L751.6 28.7 L752.7 28.6 L753.7 28.5 L754.8 28.4 L755.8 28.3 L756.9 28.3 L757.9 28.2 L759 27.9 L760.1 27.9 L761.1 27.8 L762.2 27.8 L763.2 27.7 L764.3 27.5 L765.3 27.5 L767.4 27.4 L768.5 27.3 L769.5 27.2 L770.6 27 L771.7 27 L772.7 26.8 L773.8 26.7 L774.8 26.6 L776.9 26.4 L779 26.4 L780.1 26.3 L781.2 26.1 L783.3 26 L784.3 25.9 L785.4 25.8 L786.4 25.6 L787.5 25.5 L789.6 25.3 L790.6 25.2 L793.8 25.2 L794.9 24.9 L795.9 24.8 L797 24.7 L798 24.6 L799.1 24.5 L800.1 24.5 L801.2 24 L802.2 23.2 L803.3 23.1 L804.4 22.9 L805.4 22.8 L806.5 22.7 L807.5 22.6 L808.6 22.6 L809.6 22.6 L810.7 22.4 L811.7 22.4 L812.8 22.3 L813.8 22.1 L814.9 22.1 L816 22 L817 21.9 L818.1 21.9 L819.1 21.9 L820.2 21.7 L821.2 21.6 L822.3 21.5 L823.3 21.3 L824.4 21.3 L825.5 21.1 L826.5 21 L827.6 20.8 L828.6 20.8 L829.7 20.7 L830.7 20.5 L831.8 20.4 L832.8 20.4 L833.9 20.3 L834.9 20.2 L836 20 L836 170 L220 170 Z" fill="url(#fill-stars)"/>
    <path d="M220 170 L274.8 169.9 L283.3 169.8 L290.7 169.8 L291.7 169.7 L295.9 169.7 L297 169.6 L300.2 169.6 L306.5 169.5 L330.8 169.3 L331.8 169.2 L338.1 169.2 L340.2 169.1 L341.3 169 L342.4 168.9 L343.4 168.1 L344.5 167 L345.5 166.9 L346.6 166.7 L347.6 166.6 L348.7 166.4 L350.8 166.3 L351.8 166.2 L352.9 166.1 L354 166 L355 165.2 L356.1 164.1 L357.1 163.6 L358.2 163.2 L359.2 163.2 L360.3 163.1 L361.3 162.8 L365.6 162.7 L366.6 162.5 L367.7 162.4 L369.8 162.3 L370.8 162.2 L372.9 162.1 L374 162 L375.1 161.8 L377.2 161.7 L379.3 161.7 L380.3 161.5 L383.5 157.4 L384.5 154 L385.6 152.4 L386.7 150.5 L387.7 148.8 L388.8 147.5 L389.8 146.3 L390.9 145.4 L391.9 145 L393 144.6 L394 144.1 L395.1 143.8 L396.2 143.6 L397.2 143.1 L398.3 142.8 L399.3 142.2 L400.4 141.6 L401.4 141.1 L402.5 140.4 L403.5 140 L404.6 139.9 L405.6 139.5 L406.7 139.2 L407.8 138.8 L408.8 138.6 L410.9 138.3 L412 138 L413 137.8 L414.1 137.7 L415.1 137.5 L416.2 137.3 L417.2 137.2 L418.3 137 L419.4 136.7 L420.4 136.4 L421.5 136 L422.5 135.8 L423.6 135.7 L424.6 135.5 L425.7 135.3 L426.7 135.1 L427.8 134.9 L428.8 134.7 L429.9 134.5 L431 134.4 L432 134.2 L433.1 134.1 L434.1 133.9 L435.2 133.7 L436.2 133.7 L437.3 133.4 L438.3 132.9 L439.4 132.5 L440.5 132.4 L441.5 132 L442.6 131.8 L443.6 131.5 L445.7 131.2 L446.8 131 L447.8 130.8 L448.9 130.7 L449.9 130.3 L451 130 L452.1 129.9 L453.1 129.8 L454.2 129.8 L455.2 129.6 L456.3 129.6 L457.3 129.4 L458.4 129.1 L459.4 128.9 L460.5 128.8 L461.5 128.8 L462.6 128.6 L465.8 128.3 L466.8 128.2 L467.9 128 L468.9 127.8 L471 127.7 L472.1 127.3 L473.2 127.2 L474.2 126.7 L475.3 126.3 L476.3 126 L477.4 126 L478.4 125.9 L479.5 125.6 L480.5 125.4 L481.6 125.2 L482.6 125 L483.7 124.8 L484.8 124.6 L485.8 124.1 L486.9 123.8 L487.9 123.7 L489 123.3 L490 122.8 L491.1 122.2 L492.1 122.1 L493.2 121.7 L494.2 121.5 L496.4 121.2 L497.4 121.1 L498.5 120.9 L499.5 120.6 L500.6 120.3 L501.6 119.9 L503.7 119.5 L505.8 119.2 L506.9 119 L508 118.7 L509 118.6 L510.1 118.4 L511.1 118.2 L512.2 118.2 L513.2 117.9 L514.3 117.9 L515.3 117.8 L516.4 117.4 L517.5 117.3 L518.5 117.1 L519.6 117 L520.6 116.6 L521.7 116.3 L522.7 116.1 L523.8 115.7 L524.8 115.2 L525.9 114.6 L526.9 113.5 L528 112.3 L529.1 111.5 L530.1 110.8 L531.2 110.2 L532.2 108.6 L533.3 104.5 L534.3 101.8 L535.4 100.3 L536.4 99.8 L537.5 99 L538.5 98.4 L539.6 96.3 L540.7 94.4 L541.7 92.7 L542.8 92.1 L543.8 90.7 L544.9 90.1 L545.9 89.3 L547 88.5 L548 87.8 L549.1 87.1 L550.2 85.8 L551.2 85.5 L552.3 84.3 L553.3 84.1 L554.4 83.8 L555.4 83.3 L556.5 82.6 L557.5 82.1 L558.6 81.7 L559.6 81.3 L560.7 80.8 L561.8 80.2 L562.8 79.7 L563.9 76.7 L564.9 75.4 L566 74.5 L567 73.7 L568.1 73.2 L569.1 72.6 L570.2 72.1 L571.2 71.5 L572.3 71.1 L573.4 70.9 L574.4 70.7 L575.5 70.4 L576.5 69.9 L577.6 69.6 L578.6 69 L579.7 68.7 L580.7 68.5 L581.8 68.2 L582.8 67.9 L583.9 67.4 L585 67.1 L586 66.2 L587.1 65.9 L588.1 65.6 L589.2 65.5 L590.2 65.1 L591.3 64.7 L592.3 64.6 L593.4 64.1 L594.5 63.7 L595.5 63.5 L596.6 63.3 L597.6 62.9 L598.7 62.6 L599.7 62.4 L600.8 62.3 L601.8 61.9 L602.9 61.5 L603.9 61.2 L605 61.1 L606.1 60.2 L607.1 59.4 L608.2 59.1 L609.2 58.9 L610.3 58.6 L611.3 58.3 L612.4 58 L613.4 57.7 L614.5 57.5 L615.5 57.4 L616.6 57.1 L617.7 56.9 L618.7 56.2 L619.8 55.9 L620.8 55.4 L621.9 55 L622.9 54.7 L624 54.3 L625 54 L626.1 53.9 L627.2 53.7 L628.2 53.5 L629.3 53.2 L630.3 53.1 L631.4 52.9 L632.4 52.5 L633.5 50.5 L634.5 49.6 L635.6 48.6 L636.6 48.1 L637.7 47.7 L638.8 47.2 L639.8 46.5 L640.9 46.1 L641.9 45.5 L643 45.2 L644 45.1 L645.1 44.6 L646.1 44.2 L647.2 44 L648.2 43.8 L649.3 43.6 L650.4 43.2 L651.4 42.8 L652.5 42.4 L653.5 42.4 L654.6 42.1 L655.6 41.7 L656.7 41.6 L657.7 41.5 L658.8 41.4 L659.8 41.3 L660.9 41.2 L662 41.1 L663 41 L664.1 40.8 L665.1 40.7 L666.2 40.6 L667.2 40.4 L668.3 40.2 L669.3 39.9 L670.4 39.9 L671.5 39.7 L672.5 39.6 L673.6 39.1 L674.6 38.9 L675.7 38.5 L676.7 38.4 L677.8 38 L678.8 37.9 L679.9 37.8 L680.9 37.7 L682 37.5 L683.1 37.1 L684.1 37 L685.2 36.8 L686.2 36.7 L687.3 36.5 L688.3 36.4 L689.4 36.2 L690.4 36.1 L691.5 36 L694.7 35.9 L695.7 35.7 L697.8 35.6 L698.9 35.5 L701 35.4 L702 35.3 L703.1 34.9 L704.2 34.7 L705.2 34.5 L706.3 34.3 L707.3 34.2 L708.4 33.8 L709.4 33.8 L710.5 33.7 L712.6 33.5 L713.6 33.5 L714.7 33.4 L715.8 33.4 L716.8 33.2 L717.9 33.2 L718.9 33.1 L720 32.9 L722.1 32.8 L723.1 32.6 L724.2 32.5 L725.2 32.4 L726.3 32.1 L728.4 32 L729.5 31.9 L730.5 31.7 L731.6 31.5 L732.6 31.3 L733.7 31.1 L734.7 31.1 L735.8 30.9 L736.8 30.8 L737.9 30.6 L739 30.3 L740 30.1 L741.1 30 L742.1 29.9 L743.2 29.7 L744.2 29.6 L745.3 29.5 L746.3 29.4 L747.4 29.3 L748.5 29.2 L749.5 29.1 L750.6 28.9 L751.6 28.7 L752.7 28.6 L753.7 28.5 L754.8 28.4 L755.8 28.3 L756.9 28.3 L757.9 28.2 L759 27.9 L760.1 27.9 L761.1 27.8 L762.2 27.8 L763.2 27.7 L764.3 27.5 L765.3 27.5 L767.4 27.4 L768.5 27.3 L769.5 27.2 L770.6 27 L771.7 27 L772.7 26.8 L773.8 26.7 L774.8 26.6 L776.9 26.4 L779 26.4 L780.1 26.3 L781.2 26.1 L783.3 26 L784.3 25.9 L785.4 25.8 L786.4 25.6 L787.5 25.5 L789.6 25.3 L790.6 25.2 L793.8 25.2 L794.9 24.9 L795.9 24.8 L797 24.7 L798 24.6 L799.1 24.5 L800.1 24.5 L801.2 24 L802.2 23.2 L803.3 23.1 L804.4 22.9 L805.4 22.8 L806.5 22.7 L807.5 22.6 L808.6 22.6 L809.6 22.6 L810.7 22.4 L811.7 22.4 L812.8 22.3 L813.8 22.1 L814.9 22.1 L816 22 L817 21.9 L818.1 21.9 L819.1 21.9 L820.2 21.7 L821.2 21.6 L822.3 21.5 L823.3 21.3 L824.4 21.3 L825.5 21.1 L826.5 21 L827.6 20.8 L828.6 20.8 L829.7 20.7 L830.7 20.5 L831.8 20.4 L832.8 20.4 L833.9 20.3 L834.9 20.2 L836 20" fill="none" stroke="#8b5cf6" stroke-width="3" stroke-linecap="round" stroke-linejoin="round"/>
    <circle cx="836" cy="20" r="5" fill="#8b5cf6" stroke="#fff" stroke-width="2"/>
    <text x="220" y="194" text-anchor="start" class="secondary" font-size="9">Jan 15, 2025</text><text x="528" y="194" text-anchor="middle" class="secondary" font-size="9">Nov 3, 2025</text><text x="836" y="194" text-anchor="end" class="secondary" font-size="9">Aug 22, 2026</text>
  </g><g transform="translate(30 414)">
    <rect width="856" height="201" rx="16" class="panel"/>
    <circle cx="20" cy="27" r="5" fill="#06b6d4"/>
    <text x="34" y="31" class="primary" font-size="14" font-weight="700">Forks</text>
    <text x="20" y="62" class="primary" font-size="20" font-weight="750">153</text>
    <text x="20" y="83" class="secondary" font-size="11">range 0–153</text>
    <line x1="220" x2="836" y1="20" y2="20" class="grid" stroke-width="1" stroke-dasharray="3 6"/><text x="210" y="24" text-anchor="end" class="secondary" font-size="9">153</text><line x1="220" x2="836" y1="95" y2="95" class="grid" stroke-width="1" stroke-dasharray="3 6"/><text x="210" y="99" text-anchor="end" class="secondary" font-size="9">77</text><line x1="220" x2="836" y1="170" y2="170" class="grid" stroke-width="1" stroke-dasharray="3 6"/><text x="210" y="174" text-anchor="end" class="secondary" font-size="9">0</text>
    <path d="M220 170 L274.8 170 L283.3 170 L290.7 170 L291.7 170 L295.9 170 L297 170 L300.2 170 L306.5 170 L330.8 170 L331.8 169 L338.1 169 L340.2 169 L341.3 169 L342.4 169 L343.4 169 L344.5 169 L345.5 169 L346.6 168 L347.6 168 L348.7 168 L350.8 168 L351.8 168 L352.9 167.1 L354 166.1 L355 166.1 L356.1 165.1 L357.1 165.1 L358.2 165.1 L359.2 165.1 L360.3 165.1 L361.3 165.1 L365.6 165.1 L366.6 165.1 L367.7 165.1 L369.8 165.1 L370.8 165.1 L372.9 165.1 L374 165.1 L375.1 164.1 L377.2 163.1 L379.3 163.1 L380.3 163.1 L383.5 159.2 L384.5 154.3 L385.6 151.4 L386.7 149.4 L387.7 148.4 L388.8 148.4 L389.8 147.5 L390.9 145.5 L391.9 144.5 L393 144.5 L394 144.5 L395.1 144.5 L396.2 144.5 L397.2 144.5 L398.3 144.5 L399.3 143.5 L400.4 143.5 L401.4 142.5 L402.5 140.6 L403.5 138.6 L404.6 136.7 L405.6 136.7 L406.7 136.7 L407.8 135.7 L408.8 135.7 L410.9 134.7 L412 133.7 L413 133.7 L414.1 133.7 L415.1 132.7 L416.2 131.8 L417.2 131.8 L418.3 131.8 L419.4 131.8 L420.4 131.8 L421.5 131.8 L422.5 131.8 L423.6 131.8 L424.6 130.8 L425.7 130.8 L426.7 130.8 L427.8 129.8 L428.8 129.8 L429.9 129.8 L431 129.8 L432 129.8 L433.1 129.8 L434.1 128.8 L435.2 128.8 L436.2 128.8 L437.3 128.8 L438.3 128.8 L439.4 128.8 L440.5 128.8 L441.5 128.8 L442.6 128.8 L443.6 128.8 L445.7 128.8 L446.8 128.8 L447.8 128.8 L448.9 128.8 L449.9 128.8 L451 127.8 L452.1 127.8 L453.1 126.9 L454.2 126.9 L455.2 125.9 L456.3 125.9 L457.3 125.9 L458.4 125.9 L459.4 124.9 L460.5 124.9 L461.5 123.9 L462.6 123.9 L465.8 122.9 L466.8 122.9 L467.9 122.9 L468.9 122.9 L471 122.9 L472.1 122 L473.2 122 L474.2 122 L475.3 122 L476.3 121 L477.4 121 L478.4 121 L479.5 120 L480.5 120 L481.6 119 L482.6 119 L483.7 119 L484.8 119 L485.8 118 L486.9 118 L487.9 118 L489 118 L490 118 L491.1 118 L492.1 118 L493.2 118 L494.2 118 L496.4 117.1 L497.4 117.1 L498.5 117.1 L499.5 117.1 L500.6 117.1 L501.6 117.1 L503.7 117.1 L505.8 116.1 L506.9 115.1 L508 114.1 L509 114.1 L510.1 114.1 L511.1 114.1 L512.2 114.1 L513.2 114.1 L514.3 112.2 L515.3 112.2 L516.4 111.2 L517.5 111.2 L518.5 110.2 L519.6 110.2 L520.6 109.2 L521.7 109.2 L522.7 109.2 L523.8 109.2 L524.8 108.2 L525.9 108.2 L526.9 108.2 L528 107.3 L529.1 107.3 L530.1 107.3 L531.2 106.3 L532.2 105.3 L533.3 104.3 L534.3 102.4 L535.4 100.4 L536.4 99.4 L537.5 99.4 L538.5 98.4 L539.6 98.4 L540.7 98.4 L541.7 97.5 L542.8 96.5 L543.8 94.5 L544.9 92.5 L545.9 91.6 L547 91.6 L548 91.6 L549.1 90.6 L550.2 88.6 L551.2 88.6 L552.3 87.6 L553.3 85.7 L554.4 85.7 L555.4 85.7 L556.5 85.7 L557.5 84.7 L558.6 83.7 L559.6 83.7 L560.7 83.7 L561.8 80.8 L562.8 80.8 L563.9 79.8 L564.9 78.8 L566 77.8 L567 77.8 L568.1 76.9 L569.1 76.9 L570.2 76.9 L571.2 76.9 L572.3 76.9 L573.4 75.9 L574.4 75.9 L575.5 75.9 L576.5 75.9 L577.6 73.9 L578.6 73.9 L579.7 72.9 L580.7 72.9 L581.8 72.9 L582.8 72.9 L583.9 72.9 L585 72.9 L586 72 L587.1 71 L588.1 71 L589.2 71 L590.2 71 L591.3 71 L592.3 69 L593.4 69 L594.5 69 L595.5 69 L596.6 69 L597.6 68 L598.7 67.1 L599.7 66.1 L600.8 66.1 L601.8 65.1 L602.9 65.1 L603.9 65.1 L605 65.1 L606.1 65.1 L607.1 65.1 L608.2 65.1 L609.2 65.1 L610.3 65.1 L611.3 65.1 L612.4 65.1 L613.4 65.1 L614.5 65.1 L615.5 65.1 L616.6 65.1 L617.7 65.1 L618.7 64.1 L619.8 64.1 L620.8 64.1 L621.9 64.1 L622.9 63.1 L624 63.1 L625 61.2 L626.1 61.2 L627.2 61.2 L628.2 61.2 L629.3 60.2 L630.3 60.2 L631.4 60.2 L632.4 60.2 L633.5 60.2 L634.5 59.2 L635.6 56.3 L636.6 56.3 L637.7 55.3 L638.8 55.3 L639.8 54.3 L640.9 54.3 L641.9 54.3 L643 54.3 L644 54.3 L645.1 54.3 L646.1 54.3 L647.2 54.3 L648.2 54.3 L649.3 53.3 L650.4 52.4 L651.4 52.4 L652.5 52.4 L653.5 52.4 L654.6 52.4 L655.6 51.4 L656.7 51.4 L657.7 51.4 L658.8 50.4 L659.8 50.4 L660.9 50.4 L662 50.4 L663 50.4 L664.1 50.4 L665.1 50.4 L666.2 50.4 L667.2 50.4 L668.3 50.4 L669.3 50.4 L670.4 50.4 L671.5 50.4 L672.5 50.4 L673.6 50.4 L674.6 50.4 L675.7 50.4 L676.7 50.4 L677.8 50.4 L678.8 50.4 L679.9 50.4 L680.9 50.4 L682 50.4 L683.1 50.4 L684.1 50.4 L685.2 50.4 L686.2 50.4 L687.3 50.4 L688.3 50.4 L689.4 50.4 L690.4 50.4 L691.5 50.4 L694.7 50.4 L695.7 50.4 L697.8 50.4 L698.9 49.4 L701 49.4 L702 48.4 L703.1 47.5 L704.2 47.5 L705.2 47.5 L706.3 47.5 L707.3 47.5 L708.4 47.5 L709.4 46.5 L710.5 45.5 L712.6 45.5 L713.6 43.5 L714.7 43.5 L715.8 42.5 L716.8 42.5 L717.9 40.6 L718.9 40.6 L720 40.6 L722.1 40.6 L723.1 40.6 L724.2 40.6 L725.2 40.6 L726.3 39.6 L728.4 39.6 L729.5 39.6 L730.5 38.6 L731.6 37.6 L732.6 36.7 L733.7 36.7 L734.7 36.7 L735.8 36.7 L736.8 36.7 L737.9 36.7 L739 36.7 L740 34.7 L741.1 34.7 L742.1 34.7 L743.2 34.7 L744.2 34.7 L745.3 34.7 L746.3 33.7 L747.4 33.7 L748.5 33.7 L749.5 33.7 L750.6 33.7 L751.6 33.7 L752.7 32.7 L753.7 32.7 L754.8 32.7 L755.8 32.7 L756.9 32.7 L757.9 32.7 L759 32.7 L760.1 32.7 L761.1 32.7 L762.2 30.8 L763.2 29.8 L764.3 29.8 L765.3 28.8 L767.4 28.8 L768.5 28.8 L769.5 28.8 L770.6 28.8 L771.7 27.8 L772.7 27.8 L773.8 27.8 L774.8 27.8 L776.9 27.8 L779 27.8 L780.1 27.8 L781.2 27.8 L783.3 27.8 L784.3 27.8 L785.4 27.8 L786.4 27.8 L787.5 26.9 L789.6 26.9 L790.6 26.9 L793.8 26.9 L794.9 26.9 L795.9 26.9 L797 26.9 L798 26.9 L799.1 26.9 L800.1 26.9 L801.2 26.9 L802.2 23.9 L803.3 24.9 L804.4 23.9 L805.4 23.9 L806.5 22.9 L807.5 22.9 L808.6 22.9 L809.6 23.9 L810.7 23.9 L811.7 23.9 L812.8 23.9 L813.8 22.9 L814.9 22.9 L816 22 L817 22 L818.1 22 L819.1 22 L820.2 22 L821.2 22 L822.3 21 L823.3 21 L824.4 21 L825.5 21 L826.5 20 L827.6 21 L828.6 21 L829.7 21 L830.7 20 L831.8 20 L832.8 20 L833.9 20 L834.9 20 L836 20 L836 170 L220 170 Z" fill="url(#fill-forks)"/>
    <path d="M220 170 L274.8 170 L283.3 170 L290.7 170 L291.7 170 L295.9 170 L297 170 L300.2 170 L306.5 170 L330.8 170 L331.8 169 L338.1 169 L340.2 169 L341.3 169 L342.4 169 L343.4 169 L344.5 169 L345.5 169 L346.6 168 L347.6 168 L348.7 168 L350.8 168 L351.8 168 L352.9 167.1 L354 166.1 L355 166.1 L356.1 165.1 L357.1 165.1 L358.2 165.1 L359.2 165.1 L360.3 165.1 L361.3 165.1 L365.6 165.1 L366.6 165.1 L367.7 165.1 L369.8 165.1 L370.8 165.1 L372.9 165.1 L374 165.1 L375.1 164.1 L377.2 163.1 L379.3 163.1 L380.3 163.1 L383.5 159.2 L384.5 154.3 L385.6 151.4 L386.7 149.4 L387.7 148.4 L388.8 148.4 L389.8 147.5 L390.9 145.5 L391.9 144.5 L393 144.5 L394 144.5 L395.1 144.5 L396.2 144.5 L397.2 144.5 L398.3 144.5 L399.3 143.5 L400.4 143.5 L401.4 142.5 L402.5 140.6 L403.5 138.6 L404.6 136.7 L405.6 136.7 L406.7 136.7 L407.8 135.7 L408.8 135.7 L410.9 134.7 L412 133.7 L413 133.7 L414.1 133.7 L415.1 132.7 L416.2 131.8 L417.2 131.8 L418.3 131.8 L419.4 131.8 L420.4 131.8 L421.5 131.8 L422.5 131.8 L423.6 131.8 L424.6 130.8 L425.7 130.8 L426.7 130.8 L427.8 129.8 L428.8 129.8 L429.9 129.8 L431 129.8 L432 129.8 L433.1 129.8 L434.1 128.8 L435.2 128.8 L436.2 128.8 L437.3 128.8 L438.3 128.8 L439.4 128.8 L440.5 128.8 L441.5 128.8 L442.6 128.8 L443.6 128.8 L445.7 128.8 L446.8 128.8 L447.8 128.8 L448.9 128.8 L449.9 128.8 L451 127.8 L452.1 127.8 L453.1 126.9 L454.2 126.9 L455.2 125.9 L456.3 125.9 L457.3 125.9 L458.4 125.9 L459.4 124.9 L460.5 124.9 L461.5 123.9 L462.6 123.9 L465.8 122.9 L466.8 122.9 L467.9 122.9 L468.9 122.9 L471 122.9 L472.1 122 L473.2 122 L474.2 122 L475.3 122 L476.3 121 L477.4 121 L478.4 121 L479.5 120 L480.5 120 L481.6 119 L482.6 119 L483.7 119 L484.8 119 L485.8 118 L486.9 118 L487.9 118 L489 118 L490 118 L491.1 118 L492.1 118 L493.2 118 L494.2 118 L496.4 117.1 L497.4 117.1 L498.5 117.1 L499.5 117.1 L500.6 117.1 L501.6 117.1 L503.7 117.1 L505.8 116.1 L506.9 115.1 L508 114.1 L509 114.1 L510.1 114.1 L511.1 114.1 L512.2 114.1 L513.2 114.1 L514.3 112.2 L515.3 112.2 L516.4 111.2 L517.5 111.2 L518.5 110.2 L519.6 110.2 L520.6 109.2 L521.7 109.2 L522.7 109.2 L523.8 109.2 L524.8 108.2 L525.9 108.2 L526.9 108.2 L528 107.3 L529.1 107.3 L530.1 107.3 L531.2 106.3 L532.2 105.3 L533.3 104.3 L534.3 102.4 L535.4 100.4 L536.4 99.4 L537.5 99.4 L538.5 98.4 L539.6 98.4 L540.7 98.4 L541.7 97.5 L542.8 96.5 L543.8 94.5 L544.9 92.5 L545.9 91.6 L547 91.6 L548 91.6 L549.1 90.6 L550.2 88.6 L551.2 88.6 L552.3 87.6 L553.3 85.7 L554.4 85.7 L555.4 85.7 L556.5 85.7 L557.5 84.7 L558.6 83.7 L559.6 83.7 L560.7 83.7 L561.8 80.8 L562.8 80.8 L563.9 79.8 L564.9 78.8 L566 77.8 L567 77.8 L568.1 76.9 L569.1 76.9 L570.2 76.9 L571.2 76.9 L572.3 76.9 L573.4 75.9 L574.4 75.9 L575.5 75.9 L576.5 75.9 L577.6 73.9 L578.6 73.9 L579.7 72.9 L580.7 72.9 L581.8 72.9 L582.8 72.9 L583.9 72.9 L585 72.9 L586 72 L587.1 71 L588.1 71 L589.2 71 L590.2 71 L591.3 71 L592.3 69 L593.4 69 L594.5 69 L595.5 69 L596.6 69 L597.6 68 L598.7 67.1 L599.7 66.1 L600.8 66.1 L601.8 65.1 L602.9 65.1 L603.9 65.1 L605 65.1 L606.1 65.1 L607.1 65.1 L608.2 65.1 L609.2 65.1 L610.3 65.1 L611.3 65.1 L612.4 65.1 L613.4 65.1 L614.5 65.1 L615.5 65.1 L616.6 65.1 L617.7 65.1 L618.7 64.1 L619.8 64.1 L620.8 64.1 L621.9 64.1 L622.9 63.1 L624 63.1 L625 61.2 L626.1 61.2 L627.2 61.2 L628.2 61.2 L629.3 60.2 L630.3 60.2 L631.4 60.2 L632.4 60.2 L633.5 60.2 L634.5 59.2 L635.6 56.3 L636.6 56.3 L637.7 55.3 L638.8 55.3 L639.8 54.3 L640.9 54.3 L641.9 54.3 L643 54.3 L644 54.3 L645.1 54.3 L646.1 54.3 L647.2 54.3 L648.2 54.3 L649.3 53.3 L650.4 52.4 L651.4 52.4 L652.5 52.4 L653.5 52.4 L654.6 52.4 L655.6 51.4 L656.7 51.4 L657.7 51.4 L658.8 50.4 L659.8 50.4 L660.9 50.4 L662 50.4 L663 50.4 L664.1 50.4 L665.1 50.4 L666.2 50.4 L667.2 50.4 L668.3 50.4 L669.3 50.4 L670.4 50.4 L671.5 50.4 L672.5 50.4 L673.6 50.4 L674.6 50.4 L675.7 50.4 L676.7 50.4 L677.8 50.4 L678.8 50.4 L679.9 50.4 L680.9 50.4 L682 50.4 L683.1 50.4 L684.1 50.4 L685.2 50.4 L686.2 50.4 L687.3 50.4 L688.3 50.4 L689.4 50.4 L690.4 50.4 L691.5 50.4 L694.7 50.4 L695.7 50.4 L697.8 50.4 L698.9 49.4 L701 49.4 L702 48.4 L703.1 47.5 L704.2 47.5 L705.2 47.5 L706.3 47.5 L707.3 47.5 L708.4 47.5 L709.4 46.5 L710.5 45.5 L712.6 45.5 L713.6 43.5 L714.7 43.5 L715.8 42.5 L716.8 42.5 L717.9 40.6 L718.9 40.6 L720 40.6 L722.1 40.6 L723.1 40.6 L724.2 40.6 L725.2 40.6 L726.3 39.6 L728.4 39.6 L729.5 39.6 L730.5 38.6 L731.6 37.6 L732.6 36.7 L733.7 36.7 L734.7 36.7 L735.8 36.7 L736.8 36.7 L737.9 36.7 L739 36.7 L740 34.7 L741.1 34.7 L742.1 34.7 L743.2 34.7 L744.2 34.7 L745.3 34.7 L746.3 33.7 L747.4 33.7 L748.5 33.7 L749.5 33.7 L750.6 33.7 L751.6 33.7 L752.7 32.7 L753.7 32.7 L754.8 32.7 L755.8 32.7 L756.9 32.7 L757.9 32.7 L759 32.7 L760.1 32.7 L761.1 32.7 L762.2 30.8 L763.2 29.8 L764.3 29.8 L765.3 28.8 L767.4 28.8 L768.5 28.8 L769.5 28.8 L770.6 28.8 L771.7 27.8 L772.7 27.8 L773.8 27.8 L774.8 27.8 L776.9 27.8 L779 27.8 L780.1 27.8 L781.2 27.8 L783.3 27.8 L784.3 27.8 L785.4 27.8 L786.4 27.8 L787.5 26.9 L789.6 26.9 L790.6 26.9 L793.8 26.9 L794.9 26.9 L795.9 26.9 L797 26.9 L798 26.9 L799.1 26.9 L800.1 26.9 L801.2 26.9 L802.2 23.9 L803.3 24.9 L804.4 23.9 L805.4 23.9 L806.5 22.9 L807.5 22.9 L808.6 22.9 L809.6 23.9 L810.7 23.9 L811.7 23.9 L812.8 23.9 L813.8 22.9 L814.9 22.9 L816 22 L817 22 L818.1 22 L819.1 22 L820.2 22 L821.2 22 L822.3 21 L823.3 21 L824.4 21 L825.5 21 L826.5 20 L827.6 21 L828.6 21 L829.7 21 L830.7 20 L831.8 20 L832.8 20 L833.9 20 L834.9 20 L836 20" fill="none" stroke="#06b6d4" stroke-width="3" stroke-linecap="round" stroke-linejoin="round"/>
    <circle cx="836" cy="20" r="5" fill="#06b6d4" stroke="#fff" stroke-width="2"/>
    <text x="220" y="194" text-anchor="start" class="secondary" font-size="9">Jan 15, 2025</text><text x="528" y="194" text-anchor="middle" class="secondary" font-size="9">Nov 3, 2025</text><text x="836" y="194" text-anchor="end" class="secondary" font-size="9">Aug 22, 2026</text>
  </g><g transform="translate(30 631)">
    <rect width="856" height="201" rx="16" class="panel"/>
    <circle cx="20" cy="27" r="5" fill="#f59e0b"/>
    <text x="34" y="31" class="primary" font-size="14" font-weight="700">Git clones</text>
    <text x="20" y="62" class="primary" font-size="20" font-weight="750">17.5K</text>
    <text x="20" y="83" class="secondary" font-size="11">range 448–17.5K</text>
    <line x1="220" x2="836" y1="20" y2="20" class="grid" stroke-width="1" stroke-dasharray="3 6"/><text x="210" y="24" text-anchor="end" class="secondary" font-size="9">17.5K</text><line x1="220" x2="836" y1="95" y2="95" class="grid" stroke-width="1" stroke-dasharray="3 6"/><text x="210" y="99" text-anchor="end" class="secondary" font-size="9">8,976</text><line x1="220" x2="836" y1="170" y2="170" class="grid" stroke-width="1" stroke-dasharray="3 6"/><text x="210" y="174" text-anchor="end" class="secondary" font-size="9">448</text>
    <path d="M220 170 L250.8 165.9 L281.6 161.8 L312.4 157.8 L343.2 154.4 L374 151.2 L404.8 147.9 L435.6 144.8 L466.4 141.4 L497.2 138.1 L528 134.8 L558.8 131.3 L589.6 127.9 L620.4 36 L651.2 33.1 L682 29.8 L712.8 26.2 L743.6 23 L774.4 20 L805.2 20 L836 20 L836 170 L220 170 Z" fill="url(#fill-clones)"/>
    <path d="M220 170 L250.8 165.9 L281.6 161.8 L312.4 157.8 L343.2 154.4 L374 151.2 L404.8 147.9 L435.6 144.8 L466.4 141.4 L497.2 138.1 L528 134.8 L558.8 131.3 L589.6 127.9 L620.4 36 L651.2 33.1 L682 29.8 L712.8 26.2 L743.6 23 L774.4 20 L805.2 20 L836 20" fill="none" stroke="#f59e0b" stroke-width="3" stroke-linecap="round" stroke-linejoin="round"/>
    <circle cx="836" cy="20" r="5" fill="#f59e0b" stroke="#fff" stroke-width="2"/>
    <text x="220" y="194" text-anchor="start" class="secondary" font-size="9">Aug 2, 2026</text><text x="528" y="194" text-anchor="middle" class="secondary" font-size="9">Aug 12, 2026</text><text x="836" y="194" text-anchor="end" class="secondary" font-size="9">Aug 22, 2026</text>
  </g>
    <text x="30" y="862" class="secondary" font-size="11">Updated Aug 22, 2026</text>
    <a href="https://github.com/MacRimi/repo-growth" target="_blank" aria-label="Open the Repo Growth project">
      <text x="886" y="862" fill="#8b5cf6" text-anchor="end" font-size="13" font-weight="700">Generated by Repo Growth ↗</text>
    </a>
  </g>
</svg>
