<?xml version="1.0" encoding="UTF-8"?>
<svg xmlns="http://www.w3.org/2000/svg" width="1000" height="582" viewBox="0 0 1000 582" role="img" aria-labelledby="title desc">
  <title id="title">ProxMenux growth for MacRimi/ProxMenux</title>
  <desc id="desc">Repository growth dashboard showing stars, forks over time.</desc>
  <defs>
    <linearGradient id="background" x1="0" y1="0" x2="1" y2="1">
      <stop offset="0" stop-color="#fafafa"/><stop offset="1" stop-color="#f4f4f5"/>
    </linearGradient>
    <linearGradient id="fill-stars" x1="0" y1="0" x2="0" y2="1"><stop offset="0" stop-color="#8b5cf6" stop-opacity=".24"/><stop offset="1" stop-color="#8b5cf6" stop-opacity="0"/></linearGradient><linearGradient id="fill-forks" x1="0" y1="0" x2="0" y2="1"><stop offset="0" stop-color="#06b6d4" stop-opacity=".24"/><stop offset="1" stop-color="#06b6d4" stop-opacity="0"/></linearGradient>
    <filter id="shadow" x="-10%" y="-10%" width="120%" height="130%"><feDropShadow dx="0" dy="8" stdDeviation="14" flood-color="#18181b" flood-opacity=".08"/></filter>
    <style>
      :root { color-scheme: light dark; }
      .bg { fill: url(#background); }
      .surface { fill: #ffffff; stroke: #e4e4e7; }
      .panel { fill: #ffffff; stroke: #e4e4e7; }
      .primary { fill: #18181b; }
      .secondary { fill: #71717a; }
      .grid { stroke: #e4e4e7; }
      text { font-family: Inter, ui-sans-serif, system-ui, -apple-system, BlinkMacSystemFont, "Segoe UI", sans-serif; }
      @media (prefers-color-scheme: dark) {
        .bg { fill: #09090b; }
        .surface, .panel { fill: #111113; stroke: #27272a; }
        .primary { fill: #fafafa; }
        .secondary { fill: #a1a1aa; }
        .grid { stroke: #27272a; }
      }
    </style>
  </defs>
  <rect class="bg" width="1000" height="720" rx="28"/>
  <g transform="translate(42 38)">
    <rect x="0" y="0" width="916" height="506" rx="22" class="surface" filter="url(#shadow)"/>
    <text x="30" y="45" class="primary" font-size="26" font-weight="750" letter-spacing="-.5">ProxMenux growth</text>
    <text x="30" y="70" class="secondary" font-size="14">MacRimi/ProxMenux · Jan 15, 2025 – Jul 22, 2026</text>
    <g transform="translate(740 25)"><rect width="146" height="30" rx="15" fill="#8b5cf6" fill-opacity=".12"/><circle cx="17" cy="15" r="4" fill="#8b5cf6"/><text x="30" y="20" fill="#8b5cf6" font-size="11" font-weight="700" letter-spacing="1">LOCAL HISTORY</text></g>
    <g transform="translate(30 92)">
    <rect width="418" height="86" rx="16" class="panel"/>
    <rect x="16" y="17" width="6" height="52" rx="3" fill="#8b5cf6"/>
    <text x="38" y="34" class="secondary" font-size="12" font-weight="650" letter-spacing=".3">STARS</text>
    <text x="38" y="64" class="primary" font-size="27" font-weight="760" letter-spacing="-.5">2,812</text>
    <text x="392" y="63" text-anchor="end" fill="#8b5cf6" font-size="11" font-weight="650">+2,811 tracked</text>
  </g><g transform="translate(468 92)">
    <rect width="418" height="86" rx="16" class="panel"/>
    <rect x="16" y="17" width="6" height="52" rx="3" fill="#06b6d4"/>
    <text x="38" y="34" class="secondary" font-size="12" font-weight="650" letter-spacing=".3">FORKS</text>
    <text x="38" y="64" class="primary" font-size="27" font-weight="760" letter-spacing="-.5">148</text>
    <text x="392" y="63" text-anchor="end" fill="#06b6d4" font-size="11" font-weight="650">+148 tracked</text>
  </g>
    <g transform="translate(30 197)">
    <rect width="856" height="122" rx="16" class="panel"/>
    <circle cx="20" cy="27" r="5" fill="#8b5cf6"/>
    <text x="34" y="31" class="primary" font-size="14" font-weight="700">Stars</text>
    <text x="20" y="62" class="primary" font-size="20" font-weight="750">2,812</text>
    <text x="20" y="83" class="secondary" font-size="11">range 1–2,812</text>
    <line x1="220" x2="836" y1="19" y2="19" class="grid" stroke-width="1" stroke-dasharray="3 6"/><line x1="220" x2="836" y1="62" y2="62" class="grid" stroke-width="1" stroke-dasharray="3 6"/><line x1="220" x2="836" y1="105" y2="105" class="grid" stroke-width="1" stroke-dasharray="3 6"/>
    <path d="M220 105 L277.9 104.9 L286.8 104.9 L294.6 104.9 L295.7 104.8 L300.2 104.8 L301.3 104.8 L304.7 104.8 L311.3 104.7 L337 104.6 L338.1 104.6 L344.8 104.5 L347 104.5 L348.1 104.5 L349.2 104.4 L350.3 104 L351.4 103.4 L352.6 103.3 L353.7 103.3 L354.8 103.2 L355.9 103.1 L358.1 103.1 L359.2 103 L360.4 102.9 L361.5 102.9 L362.6 102.5 L363.7 101.9 L364.8 101.6 L365.9 101.4 L367 101.4 L368.2 101.3 L369.3 101.2 L373.7 101.2 L374.8 101.1 L375.9 101 L378.2 100.9 L379.3 100.9 L381.5 100.8 L382.6 100.8 L383.7 100.7 L386 100.7 L388.2 100.6 L389.3 100.5 L392.7 98.4 L393.8 96.6 L394.9 95.8 L396 94.8 L397.1 93.9 L398.2 93.2 L399.3 92.6 L400.5 92.1 L401.6 91.9 L402.7 91.7 L403.8 91.5 L404.9 91.3 L406 91.2 L407.1 90.9 L408.3 90.7 L409.4 90.4 L410.5 90.1 L411.6 89.9 L412.7 89.5 L413.8 89.3 L414.9 89.2 L416.1 89.1 L417.2 88.9 L418.3 88.7 L419.4 88.6 L421.6 88.4 L422.7 88.2 L423.8 88.2 L425 88.1 L426.1 88 L427.2 87.9 L428.3 87.9 L429.4 87.7 L430.5 87.6 L431.6 87.4 L432.8 87.2 L433.9 87.1 L435 87.1 L436.1 86.9 L437.2 86.8 L438.3 86.7 L439.4 86.6 L440.6 86.5 L441.7 86.4 L442.8 86.4 L443.9 86.2 L445 86.2 L446.1 86.1 L447.2 86 L448.4 86 L449.5 85.8 L450.6 85.6 L451.7 85.4 L452.8 85.3 L453.9 85.1 L455 85 L456.2 84.8 L458.4 84.7 L459.5 84.6 L460.6 84.5 L461.7 84.4 L462.8 84.2 L463.9 84.1 L465.1 84 L466.2 84 L467.3 83.9 L468.4 83.9 L469.5 83.8 L470.6 83.8 L471.7 83.6 L472.9 83.5 L474 83.5 L475.1 83.4 L476.2 83.3 L479.5 83.2 L480.7 83.1 L481.8 83 L482.9 82.9 L485.1 82.9 L486.2 82.6 L487.3 82.6 L488.5 82.4 L489.6 82.1 L490.7 82 L491.8 82 L492.9 81.9 L494 81.8 L495.1 81.7 L496.3 81.6 L497.4 81.4 L498.5 81.4 L499.6 81.2 L500.7 81 L501.8 80.8 L502.9 80.8 L504.1 80.6 L505.2 80.3 L506.3 80 L507.4 79.9 L508.5 79.7 L509.6 79.6 L511.8 79.5 L513 79.4 L514.1 79.3 L515.2 79.1 L516.3 79 L517.4 78.8 L519.6 78.6 L521.9 78.4 L523 78.3 L524.1 78.2 L525.2 78.1 L526.3 78 L527.4 77.9 L528.6 77.9 L529.7 77.7 L530.8 77.7 L531.9 77.7 L533 77.5 L534.1 77.4 L535.2 77.3 L536.4 77.3 L537.5 77 L538.6 76.9 L539.7 76.8 L540.8 76.6 L541.9 76.3 L543 76 L544.2 75.4 L545.3 74.8 L546.4 74.4 L547.5 74 L548.6 73.7 L549.7 72.9 L550.8 70.7 L551.9 69.3 L553.1 68.5 L554.2 68.3 L555.3 67.9 L556.4 67.5 L557.5 66.5 L558.6 65.5 L559.7 64.6 L560.9 64.3 L562 63.5 L563.1 63.2 L564.2 62.8 L565.3 62.4 L566.4 62 L567.5 61.7 L568.7 61 L569.8 60.8 L570.9 60.2 L572 60.1 L573.1 59.9 L574.2 59.6 L575.3 59.3 L576.5 59 L577.6 58.8 L578.7 58.6 L579.8 58.4 L580.9 58 L582 57.8 L583.1 56.2 L584.3 55.5 L585.4 55.1 L586.5 54.6 L587.6 54.4 L588.7 54.1 L589.8 53.8 L590.9 53.5 L592.1 53.3 L593.2 53.2 L594.3 53.1 L595.4 52.9 L596.5 52.7 L597.6 52.5 L598.7 52.2 L599.8 52.1 L601 51.9 L602.1 51.8 L603.2 51.6 L604.3 51.4 L605.4 51.2 L606.5 50.7 L607.6 50.6 L608.8 50.4 L609.9 50.3 L611 50.2 L612.1 49.9 L613.2 49.9 L614.3 49.6 L615.4 49.4 L616.6 49.3 L617.7 49.2 L618.8 49 L619.9 48.9 L621 48.7 L622.1 48.7 L623.2 48.5 L624.4 48.3 L625.5 48.1 L626.6 48 L627.7 47.6 L628.8 47.2 L629.9 47 L631 46.9 L632.2 46.7 L633.3 46.6 L634.4 46.4 L635.5 46.3 L636.6 46.2 L637.7 46.1 L638.8 46 L639.9 45.9 L641.1 45.5 L642.2 45.3 L643.3 45.1 L644.4 44.8 L645.5 44.7 L646.6 44.5 L647.7 44.3 L648.9 44.3 L650 44.2 L651.1 44.1 L652.2 43.9 L653.3 43.9 L654.4 43.8 L655.5 43.6 L656.7 42.5 L657.8 42 L658.9 41.5 L660 41.3 L661.1 41.1 L662.2 40.8 L663.3 40.4 L664.5 40.2 L665.6 39.9 L666.7 39.7 L667.8 39.7 L668.9 39.4 L670 39.2 L671.1 39.1 L672.3 39 L673.4 38.9 L674.5 38.7 L675.6 38.5 L676.7 38.3 L677.8 38.3 L678.9 38.1 L680.1 37.9 L681.2 37.9 L682.3 37.8 L683.4 37.7 L684.5 37.7 L685.6 37.6 L686.7 37.6 L687.8 37.6 L689 37.4 L690.1 37.4 L691.2 37.4 L692.3 37.3 L693.4 37.1 L694.5 37 L695.6 36.9 L696.8 36.9 L697.9 36.8 L699 36.6 L700.1 36.5 L701.2 36.3 L702.3 36.2 L703.4 36 L704.6 35.9 L705.7 35.9 L706.8 35.8 L707.9 35.7 L709 35.5 L710.1 35.4 L711.2 35.4 L712.4 35.3 L713.5 35.2 L714.6 35.1 L715.7 35.1 L716.8 35 L717.9 35 L721.3 34.9 L722.4 34.8 L724.6 34.7 L725.7 34.7 L727.9 34.6 L729.1 34.5 L730.2 34.4 L731.3 34.3 L732.4 34.1 L733.5 34.1 L734.6 34 L735.7 33.8 L736.9 33.8 L738 33.7 L740.2 33.6 L741.3 33.6 L742.4 33.6 L743.5 33.6 L744.7 33.5 L745.8 33.5 L746.9 33.4 L748 33.3 L750.2 33.3 L751.3 33.2 L752.5 33.1 L753.6 33 L754.7 32.9 L756.9 32.9 L758 32.8 L759.1 32.7 L760.3 32.6 L761.4 32.5 L762.5 32.4 L763.6 32.4 L764.7 32.3 L765.8 32.2 L766.9 32.1 L768.1 32 L769.2 31.8 L770.3 31.8 L771.4 31.8 L772.5 31.7 L773.6 31.6 L774.7 31.5 L775.8 31.5 L777 31.4 L778.1 31.4 L779.2 31.3 L780.3 31.2 L781.4 31.1 L782.5 31.1 L783.6 31 L784.8 31 L785.9 30.9 L787 30.9 L788.1 30.8 L789.2 30.7 L790.3 30.7 L791.4 30.7 L792.6 30.6 L793.7 30.6 L794.8 30.5 L795.9 30.5 L798.1 30.4 L799.2 30.4 L800.4 30.3 L801.5 30.2 L802.6 30.2 L803.7 30.2 L804.8 30.1 L805.9 30 L808.2 29.9 L810.4 29.9 L811.5 29.8 L812.6 29.7 L814.8 29.7 L815.9 29.7 L817.1 29.6 L818.2 29.5 L819.3 29.5 L821.5 29.4 L822.6 29.3 L826 29.3 L827.1 29.1 L828.2 29.1 L829.3 29 L830.4 29 L831.5 28.9 L832.7 28.9 L833.8 28.7 L834.9 28.2 L836 28.2 L836 105 L220 105 Z" fill="url(#fill-stars)"/>
    <path d="M220 105 L277.9 104.9 L286.8 104.9 L294.6 104.9 L295.7 104.8 L300.2 104.8 L301.3 104.8 L304.7 104.8 L311.3 104.7 L337 104.6 L338.1 104.6 L344.8 104.5 L347 104.5 L348.1 104.5 L349.2 104.4 L350.3 104 L351.4 103.4 L352.6 103.3 L353.7 103.3 L354.8 103.2 L355.9 103.1 L358.1 103.1 L359.2 103 L360.4 102.9 L361.5 102.9 L362.6 102.5 L363.7 101.9 L364.8 101.6 L365.9 101.4 L367 101.4 L368.2 101.3 L369.3 101.2 L373.7 101.2 L374.8 101.1 L375.9 101 L378.2 100.9 L379.3 100.9 L381.5 100.8 L382.6 100.8 L383.7 100.7 L386 100.7 L388.2 100.6 L389.3 100.5 L392.7 98.4 L393.8 96.6 L394.9 95.8 L396 94.8 L397.1 93.9 L398.2 93.2 L399.3 92.6 L400.5 92.1 L401.6 91.9 L402.7 91.7 L403.8 91.5 L404.9 91.3 L406 91.2 L407.1 90.9 L408.3 90.7 L409.4 90.4 L410.5 90.1 L411.6 89.9 L412.7 89.5 L413.8 89.3 L414.9 89.2 L416.1 89.1 L417.2 88.9 L418.3 88.7 L419.4 88.6 L421.6 88.4 L422.7 88.2 L423.8 88.2 L425 88.1 L426.1 88 L427.2 87.9 L428.3 87.9 L429.4 87.7 L430.5 87.6 L431.6 87.4 L432.8 87.2 L433.9 87.1 L435 87.1 L436.1 86.9 L437.2 86.8 L438.3 86.7 L439.4 86.6 L440.6 86.5 L441.7 86.4 L442.8 86.4 L443.9 86.2 L445 86.2 L446.1 86.1 L447.2 86 L448.4 86 L449.5 85.8 L450.6 85.6 L451.7 85.4 L452.8 85.3 L453.9 85.1 L455 85 L456.2 84.8 L458.4 84.7 L459.5 84.6 L460.6 84.5 L461.7 84.4 L462.8 84.2 L463.9 84.1 L465.1 84 L466.2 84 L467.3 83.9 L468.4 83.9 L469.5 83.8 L470.6 83.8 L471.7 83.6 L472.9 83.5 L474 83.5 L475.1 83.4 L476.2 83.3 L479.5 83.2 L480.7 83.1 L481.8 83 L482.9 82.9 L485.1 82.9 L486.2 82.6 L487.3 82.6 L488.5 82.4 L489.6 82.1 L490.7 82 L491.8 82 L492.9 81.9 L494 81.8 L495.1 81.7 L496.3 81.6 L497.4 81.4 L498.5 81.4 L499.6 81.2 L500.7 81 L501.8 80.8 L502.9 80.8 L504.1 80.6 L505.2 80.3 L506.3 80 L507.4 79.9 L508.5 79.7 L509.6 79.6 L511.8 79.5 L513 79.4 L514.1 79.3 L515.2 79.1 L516.3 79 L517.4 78.8 L519.6 78.6 L521.9 78.4 L523 78.3 L524.1 78.2 L525.2 78.1 L526.3 78 L527.4 77.9 L528.6 77.9 L529.7 77.7 L530.8 77.7 L531.9 77.7 L533 77.5 L534.1 77.4 L535.2 77.3 L536.4 77.3 L537.5 77 L538.6 76.9 L539.7 76.8 L540.8 76.6 L541.9 76.3 L543 76 L544.2 75.4 L545.3 74.8 L546.4 74.4 L547.5 74 L548.6 73.7 L549.7 72.9 L550.8 70.7 L551.9 69.3 L553.1 68.5 L554.2 68.3 L555.3 67.9 L556.4 67.5 L557.5 66.5 L558.6 65.5 L559.7 64.6 L560.9 64.3 L562 63.5 L563.1 63.2 L564.2 62.8 L565.3 62.4 L566.4 62 L567.5 61.7 L568.7 61 L569.8 60.8 L570.9 60.2 L572 60.1 L573.1 59.9 L574.2 59.6 L575.3 59.3 L576.5 59 L577.6 58.8 L578.7 58.6 L579.8 58.4 L580.9 58 L582 57.8 L583.1 56.2 L584.3 55.5 L585.4 55.1 L586.5 54.6 L587.6 54.4 L588.7 54.1 L589.8 53.8 L590.9 53.5 L592.1 53.3 L593.2 53.2 L594.3 53.1 L595.4 52.9 L596.5 52.7 L597.6 52.5 L598.7 52.2 L599.8 52.1 L601 51.9 L602.1 51.8 L603.2 51.6 L604.3 51.4 L605.4 51.2 L606.5 50.7 L607.6 50.6 L608.8 50.4 L609.9 50.3 L611 50.2 L612.1 49.9 L613.2 49.9 L614.3 49.6 L615.4 49.4 L616.6 49.3 L617.7 49.2 L618.8 49 L619.9 48.9 L621 48.7 L622.1 48.7 L623.2 48.5 L624.4 48.3 L625.5 48.1 L626.6 48 L627.7 47.6 L628.8 47.2 L629.9 47 L631 46.9 L632.2 46.7 L633.3 46.6 L634.4 46.4 L635.5 46.3 L636.6 46.2 L637.7 46.1 L638.8 46 L639.9 45.9 L641.1 45.5 L642.2 45.3 L643.3 45.1 L644.4 44.8 L645.5 44.7 L646.6 44.5 L647.7 44.3 L648.9 44.3 L650 44.2 L651.1 44.1 L652.2 43.9 L653.3 43.9 L654.4 43.8 L655.5 43.6 L656.7 42.5 L657.8 42 L658.9 41.5 L660 41.3 L661.1 41.1 L662.2 40.8 L663.3 40.4 L664.5 40.2 L665.6 39.9 L666.7 39.7 L667.8 39.7 L668.9 39.4 L670 39.2 L671.1 39.1 L672.3 39 L673.4 38.9 L674.5 38.7 L675.6 38.5 L676.7 38.3 L677.8 38.3 L678.9 38.1 L680.1 37.9 L681.2 37.9 L682.3 37.8 L683.4 37.7 L684.5 37.7 L685.6 37.6 L686.7 37.6 L687.8 37.6 L689 37.4 L690.1 37.4 L691.2 37.4 L692.3 37.3 L693.4 37.1 L694.5 37 L695.6 36.9 L696.8 36.9 L697.9 36.8 L699 36.6 L700.1 36.5 L701.2 36.3 L702.3 36.2 L703.4 36 L704.6 35.9 L705.7 35.9 L706.8 35.8 L707.9 35.7 L709 35.5 L710.1 35.4 L711.2 35.4 L712.4 35.3 L713.5 35.2 L714.6 35.1 L715.7 35.1 L716.8 35 L717.9 35 L721.3 34.9 L722.4 34.8 L724.6 34.7 L725.7 34.7 L727.9 34.6 L729.1 34.5 L730.2 34.4 L731.3 34.3 L732.4 34.1 L733.5 34.1 L734.6 34 L735.7 33.8 L736.9 33.8 L738 33.7 L740.2 33.6 L741.3 33.6 L742.4 33.6 L743.5 33.6 L744.7 33.5 L745.8 33.5 L746.9 33.4 L748 33.3 L750.2 33.3 L751.3 33.2 L752.5 33.1 L753.6 33 L754.7 32.9 L756.9 32.9 L758 32.8 L759.1 32.7 L760.3 32.6 L761.4 32.5 L762.5 32.4 L763.6 32.4 L764.7 32.3 L765.8 32.2 L766.9 32.1 L768.1 32 L769.2 31.8 L770.3 31.8 L771.4 31.8 L772.5 31.7 L773.6 31.6 L774.7 31.5 L775.8 31.5 L777 31.4 L778.1 31.4 L779.2 31.3 L780.3 31.2 L781.4 31.1 L782.5 31.1 L783.6 31 L784.8 31 L785.9 30.9 L787 30.9 L788.1 30.8 L789.2 30.7 L790.3 30.7 L791.4 30.7 L792.6 30.6 L793.7 30.6 L794.8 30.5 L795.9 30.5 L798.1 30.4 L799.2 30.4 L800.4 30.3 L801.5 30.2 L802.6 30.2 L803.7 30.2 L804.8 30.1 L805.9 30 L808.2 29.9 L810.4 29.9 L811.5 29.8 L812.6 29.7 L814.8 29.7 L815.9 29.7 L817.1 29.6 L818.2 29.5 L819.3 29.5 L821.5 29.4 L822.6 29.3 L826 29.3 L827.1 29.1 L828.2 29.1 L829.3 29 L830.4 29 L831.5 28.9 L832.7 28.9 L833.8 28.7 L834.9 28.2 L836 28.2" fill="none" stroke="#8b5cf6" stroke-width="3" stroke-linecap="round" stroke-linejoin="round"/>
    <circle cx="836" cy="28.2" r="5" fill="#8b5cf6" stroke="#fff" stroke-width="2"/>
    <text x="220" y="116" class="secondary" font-size="10">Jan 15</text>
    <text x="836" y="116" text-anchor="end" class="secondary" font-size="10">Jul 22</text>
  </g><g transform="translate(30 335)">
    <rect width="856" height="122" rx="16" class="panel"/>
    <circle cx="20" cy="27" r="5" fill="#06b6d4"/>
    <text x="34" y="31" class="primary" font-size="14" font-weight="700">Forks</text>
    <text x="20" y="62" class="primary" font-size="20" font-weight="750">148</text>
    <text x="20" y="83" class="secondary" font-size="11">range 0–149</text>
    <line x1="220" x2="836" y1="19" y2="19" class="grid" stroke-width="1" stroke-dasharray="3 6"/><line x1="220" x2="836" y1="62" y2="62" class="grid" stroke-width="1" stroke-dasharray="3 6"/><line x1="220" x2="836" y1="105" y2="105" class="grid" stroke-width="1" stroke-dasharray="3 6"/>
    <path d="M220 105 L277.9 105 L286.8 105 L294.6 105 L295.7 105 L300.2 105 L301.3 105 L304.7 105 L311.3 105 L337 105 L338.1 104.5 L344.8 104.5 L347 104.5 L348.1 104.5 L349.2 104.5 L350.3 104.5 L351.4 104.5 L352.6 104.5 L353.7 104 L354.8 104 L355.9 104 L358.1 104 L359.2 104 L360.4 103.5 L361.5 102.9 L362.6 102.9 L363.7 102.4 L364.8 102.4 L365.9 102.4 L367 102.4 L368.2 102.4 L369.3 102.4 L373.7 102.4 L374.8 102.4 L375.9 102.4 L378.2 102.4 L379.3 102.4 L381.5 102.4 L382.6 102.4 L383.7 101.9 L386 101.4 L388.2 101.4 L389.3 101.4 L392.7 99.3 L393.8 96.8 L394.9 95.2 L396 94.2 L397.1 93.7 L398.2 93.7 L399.3 93.1 L400.5 92.1 L401.6 91.6 L402.7 91.6 L403.8 91.6 L404.9 91.6 L406 91.6 L407.1 91.6 L408.3 91.6 L409.4 91.1 L410.5 91.1 L411.6 90.6 L412.7 89.5 L413.8 88.5 L414.9 87.5 L416.1 87.5 L417.2 87.5 L418.3 87 L419.4 87 L421.6 86.4 L422.7 85.9 L423.8 85.9 L425 85.9 L426.1 85.4 L427.2 84.9 L428.3 84.9 L429.4 84.9 L430.5 84.9 L431.6 84.9 L432.8 84.9 L433.9 84.9 L435 84.9 L436.1 84.4 L437.2 84.4 L438.3 84.4 L439.4 83.9 L440.6 83.9 L441.7 83.9 L442.8 83.9 L443.9 83.9 L445 83.9 L446.1 83.4 L447.2 83.4 L448.4 83.4 L449.5 83.4 L450.6 83.4 L451.7 83.4 L452.8 83.4 L453.9 83.4 L455 83.4 L456.2 83.4 L458.4 83.4 L459.5 83.4 L460.6 83.4 L461.7 83.4 L462.8 83.4 L463.9 82.8 L465.1 82.8 L466.2 82.3 L467.3 82.3 L468.4 81.8 L469.5 81.8 L470.6 81.8 L471.7 81.8 L472.9 81.3 L474 81.3 L475.1 80.8 L476.2 80.8 L479.5 80.3 L480.7 80.3 L481.8 80.3 L482.9 80.3 L485.1 80.3 L486.2 79.7 L487.3 79.7 L488.5 79.7 L489.6 79.7 L490.7 79.2 L491.8 79.2 L492.9 79.2 L494 78.7 L495.1 78.7 L496.3 78.2 L497.4 78.2 L498.5 78.2 L499.6 78.2 L500.7 77.7 L501.8 77.7 L502.9 77.7 L504.1 77.7 L505.2 77.7 L506.3 77.7 L507.4 77.7 L508.5 77.7 L509.6 77.7 L511.8 77.2 L513 77.2 L514.1 77.2 L515.2 77.2 L516.3 77.2 L517.4 77.2 L519.6 77.2 L521.9 76.7 L523 76.1 L524.1 75.6 L525.2 75.6 L526.3 75.6 L527.4 75.6 L528.6 75.6 L529.7 75.6 L530.8 74.6 L531.9 74.6 L533 74.1 L534.1 74.1 L535.2 73.6 L536.4 73.6 L537.5 73 L538.6 73 L539.7 73 L540.8 73 L541.9 72.5 L543 72.5 L544.2 72.5 L545.3 72 L546.4 72 L547.5 72 L548.6 71.5 L549.7 71 L550.8 70.5 L551.9 69.4 L553.1 68.4 L554.2 67.9 L555.3 67.9 L556.4 67.4 L557.5 67.4 L558.6 67.4 L559.7 66.9 L560.9 66.3 L562 65.3 L563.1 64.3 L564.2 63.8 L565.3 63.8 L566.4 63.8 L567.5 63.3 L568.7 62.2 L569.8 62.2 L570.9 61.7 L572 60.7 L573.1 60.7 L574.2 60.7 L575.3 60.7 L576.5 60.2 L577.6 59.7 L578.7 59.7 L579.8 59.7 L580.9 58.1 L582 58.1 L583.1 57.6 L584.3 57.1 L585.4 56.6 L586.5 56.6 L587.6 56 L588.7 56 L589.8 56 L590.9 56 L592.1 56 L593.2 55.5 L594.3 55.5 L595.4 55.5 L596.5 55.5 L597.6 54.5 L598.7 54.5 L599.8 54 L601 54 L602.1 54 L603.2 54 L604.3 54 L605.4 54 L606.5 53.5 L607.6 53 L608.8 53 L609.9 53 L611 53 L612.1 53 L613.2 51.9 L614.3 51.9 L615.4 51.9 L616.6 51.9 L617.7 51.9 L618.8 51.4 L619.9 50.9 L621 50.4 L622.1 50.4 L623.2 49.9 L624.4 49.9 L625.5 49.9 L626.6 49.9 L627.7 49.9 L628.8 49.9 L629.9 49.9 L631 49.9 L632.2 49.9 L633.3 49.9 L634.4 49.9 L635.5 49.9 L636.6 49.9 L637.7 49.9 L638.8 49.9 L639.9 49.9 L641.1 49.3 L642.2 49.3 L643.3 49.3 L644.4 49.3 L645.5 48.8 L646.6 48.8 L647.7 47.8 L648.9 47.8 L650 47.8 L651.1 47.8 L652.2 47.3 L653.3 47.3 L654.4 47.3 L655.5 47.3 L656.7 47.3 L657.8 46.8 L658.9 45.2 L660 45.2 L661.1 44.7 L662.2 44.7 L663.3 44.2 L664.5 44.2 L665.6 44.2 L666.7 44.2 L667.8 44.2 L668.9 44.2 L670 44.2 L671.1 44.2 L672.3 44.2 L673.4 43.7 L674.5 43.2 L675.6 43.2 L676.7 43.2 L677.8 43.2 L678.9 43.2 L680.1 42.6 L681.2 42.6 L682.3 42.6 L683.4 42.1 L684.5 42.1 L685.6 42.1 L686.7 42.1 L687.8 42.1 L689 42.1 L690.1 42.1 L691.2 42.1 L692.3 42.1 L693.4 42.1 L694.5 42.1 L695.6 42.1 L696.8 42.1 L697.9 42.1 L699 42.1 L700.1 42.1 L701.2 42.1 L702.3 42.1 L703.4 42.1 L704.6 42.1 L705.7 42.1 L706.8 42.1 L707.9 42.1 L709 42.1 L710.1 42.1 L711.2 42.1 L712.4 42.1 L713.5 42.1 L714.6 42.1 L715.7 42.1 L716.8 42.1 L717.9 42.1 L721.3 42.1 L722.4 42.1 L724.6 42.1 L725.7 41.6 L727.9 41.6 L729.1 41.1 L730.2 40.6 L731.3 40.6 L732.4 40.6 L733.5 40.6 L734.6 40.6 L735.7 40.6 L736.9 40.1 L738 39.6 L740.2 39.6 L741.3 38.5 L742.4 38.5 L743.5 38 L744.7 38 L745.8 37 L746.9 37 L748 37 L750.2 37 L751.3 37 L752.5 37 L753.6 37 L754.7 36.5 L756.9 36.5 L758 36.5 L759.1 35.9 L760.3 35.4 L761.4 34.9 L762.5 34.9 L763.6 34.9 L764.7 34.9 L765.8 34.9 L766.9 34.9 L768.1 34.9 L769.2 33.9 L770.3 33.9 L771.4 33.9 L772.5 33.9 L773.6 33.9 L774.7 33.9 L775.8 33.4 L777 33.4 L778.1 33.4 L779.2 33.4 L780.3 33.4 L781.4 33.4 L782.5 32.9 L783.6 32.9 L784.8 32.9 L785.9 32.9 L787 32.9 L788.1 32.9 L789.2 32.9 L790.3 32.9 L791.4 32.9 L792.6 31.8 L793.7 31.3 L794.8 31.3 L795.9 30.8 L798.1 30.8 L799.2 30.8 L800.4 30.8 L801.5 30.8 L802.6 30.3 L803.7 30.3 L804.8 30.3 L805.9 30.3 L808.2 30.3 L810.4 30.3 L811.5 30.3 L812.6 30.3 L814.8 30.3 L815.9 30.3 L817.1 30.3 L818.2 30.3 L819.3 29.8 L821.5 29.8 L822.6 29.8 L826 29.8 L827.1 29.8 L828.2 29.8 L829.3 29.8 L830.4 29.8 L831.5 29.8 L832.7 29.8 L833.8 29.8 L834.9 28.2 L836 28.7 L836 105 L220 105 Z" fill="url(#fill-forks)"/>
    <path d="M220 105 L277.9 105 L286.8 105 L294.6 105 L295.7 105 L300.2 105 L301.3 105 L304.7 105 L311.3 105 L337 105 L338.1 104.5 L344.8 104.5 L347 104.5 L348.1 104.5 L349.2 104.5 L350.3 104.5 L351.4 104.5 L352.6 104.5 L353.7 104 L354.8 104 L355.9 104 L358.1 104 L359.2 104 L360.4 103.5 L361.5 102.9 L362.6 102.9 L363.7 102.4 L364.8 102.4 L365.9 102.4 L367 102.4 L368.2 102.4 L369.3 102.4 L373.7 102.4 L374.8 102.4 L375.9 102.4 L378.2 102.4 L379.3 102.4 L381.5 102.4 L382.6 102.4 L383.7 101.9 L386 101.4 L388.2 101.4 L389.3 101.4 L392.7 99.3 L393.8 96.8 L394.9 95.2 L396 94.2 L397.1 93.7 L398.2 93.7 L399.3 93.1 L400.5 92.1 L401.6 91.6 L402.7 91.6 L403.8 91.6 L404.9 91.6 L406 91.6 L407.1 91.6 L408.3 91.6 L409.4 91.1 L410.5 91.1 L411.6 90.6 L412.7 89.5 L413.8 88.5 L414.9 87.5 L416.1 87.5 L417.2 87.5 L418.3 87 L419.4 87 L421.6 86.4 L422.7 85.9 L423.8 85.9 L425 85.9 L426.1 85.4 L427.2 84.9 L428.3 84.9 L429.4 84.9 L430.5 84.9 L431.6 84.9 L432.8 84.9 L433.9 84.9 L435 84.9 L436.1 84.4 L437.2 84.4 L438.3 84.4 L439.4 83.9 L440.6 83.9 L441.7 83.9 L442.8 83.9 L443.9 83.9 L445 83.9 L446.1 83.4 L447.2 83.4 L448.4 83.4 L449.5 83.4 L450.6 83.4 L451.7 83.4 L452.8 83.4 L453.9 83.4 L455 83.4 L456.2 83.4 L458.4 83.4 L459.5 83.4 L460.6 83.4 L461.7 83.4 L462.8 83.4 L463.9 82.8 L465.1 82.8 L466.2 82.3 L467.3 82.3 L468.4 81.8 L469.5 81.8 L470.6 81.8 L471.7 81.8 L472.9 81.3 L474 81.3 L475.1 80.8 L476.2 80.8 L479.5 80.3 L480.7 80.3 L481.8 80.3 L482.9 80.3 L485.1 80.3 L486.2 79.7 L487.3 79.7 L488.5 79.7 L489.6 79.7 L490.7 79.2 L491.8 79.2 L492.9 79.2 L494 78.7 L495.1 78.7 L496.3 78.2 L497.4 78.2 L498.5 78.2 L499.6 78.2 L500.7 77.7 L501.8 77.7 L502.9 77.7 L504.1 77.7 L505.2 77.7 L506.3 77.7 L507.4 77.7 L508.5 77.7 L509.6 77.7 L511.8 77.2 L513 77.2 L514.1 77.2 L515.2 77.2 L516.3 77.2 L517.4 77.2 L519.6 77.2 L521.9 76.7 L523 76.1 L524.1 75.6 L525.2 75.6 L526.3 75.6 L527.4 75.6 L528.6 75.6 L529.7 75.6 L530.8 74.6 L531.9 74.6 L533 74.1 L534.1 74.1 L535.2 73.6 L536.4 73.6 L537.5 73 L538.6 73 L539.7 73 L540.8 73 L541.9 72.5 L543 72.5 L544.2 72.5 L545.3 72 L546.4 72 L547.5 72 L548.6 71.5 L549.7 71 L550.8 70.5 L551.9 69.4 L553.1 68.4 L554.2 67.9 L555.3 67.9 L556.4 67.4 L557.5 67.4 L558.6 67.4 L559.7 66.9 L560.9 66.3 L562 65.3 L563.1 64.3 L564.2 63.8 L565.3 63.8 L566.4 63.8 L567.5 63.3 L568.7 62.2 L569.8 62.2 L570.9 61.7 L572 60.7 L573.1 60.7 L574.2 60.7 L575.3 60.7 L576.5 60.2 L577.6 59.7 L578.7 59.7 L579.8 59.7 L580.9 58.1 L582 58.1 L583.1 57.6 L584.3 57.1 L585.4 56.6 L586.5 56.6 L587.6 56 L588.7 56 L589.8 56 L590.9 56 L592.1 56 L593.2 55.5 L594.3 55.5 L595.4 55.5 L596.5 55.5 L597.6 54.5 L598.7 54.5 L599.8 54 L601 54 L602.1 54 L603.2 54 L604.3 54 L605.4 54 L606.5 53.5 L607.6 53 L608.8 53 L609.9 53 L611 53 L612.1 53 L613.2 51.9 L614.3 51.9 L615.4 51.9 L616.6 51.9 L617.7 51.9 L618.8 51.4 L619.9 50.9 L621 50.4 L622.1 50.4 L623.2 49.9 L624.4 49.9 L625.5 49.9 L626.6 49.9 L627.7 49.9 L628.8 49.9 L629.9 49.9 L631 49.9 L632.2 49.9 L633.3 49.9 L634.4 49.9 L635.5 49.9 L636.6 49.9 L637.7 49.9 L638.8 49.9 L639.9 49.9 L641.1 49.3 L642.2 49.3 L643.3 49.3 L644.4 49.3 L645.5 48.8 L646.6 48.8 L647.7 47.8 L648.9 47.8 L650 47.8 L651.1 47.8 L652.2 47.3 L653.3 47.3 L654.4 47.3 L655.5 47.3 L656.7 47.3 L657.8 46.8 L658.9 45.2 L660 45.2 L661.1 44.7 L662.2 44.7 L663.3 44.2 L664.5 44.2 L665.6 44.2 L666.7 44.2 L667.8 44.2 L668.9 44.2 L670 44.2 L671.1 44.2 L672.3 44.2 L673.4 43.7 L674.5 43.2 L675.6 43.2 L676.7 43.2 L677.8 43.2 L678.9 43.2 L680.1 42.6 L681.2 42.6 L682.3 42.6 L683.4 42.1 L684.5 42.1 L685.6 42.1 L686.7 42.1 L687.8 42.1 L689 42.1 L690.1 42.1 L691.2 42.1 L692.3 42.1 L693.4 42.1 L694.5 42.1 L695.6 42.1 L696.8 42.1 L697.9 42.1 L699 42.1 L700.1 42.1 L701.2 42.1 L702.3 42.1 L703.4 42.1 L704.6 42.1 L705.7 42.1 L706.8 42.1 L707.9 42.1 L709 42.1 L710.1 42.1 L711.2 42.1 L712.4 42.1 L713.5 42.1 L714.6 42.1 L715.7 42.1 L716.8 42.1 L717.9 42.1 L721.3 42.1 L722.4 42.1 L724.6 42.1 L725.7 41.6 L727.9 41.6 L729.1 41.1 L730.2 40.6 L731.3 40.6 L732.4 40.6 L733.5 40.6 L734.6 40.6 L735.7 40.6 L736.9 40.1 L738 39.6 L740.2 39.6 L741.3 38.5 L742.4 38.5 L743.5 38 L744.7 38 L745.8 37 L746.9 37 L748 37 L750.2 37 L751.3 37 L752.5 37 L753.6 37 L754.7 36.5 L756.9 36.5 L758 36.5 L759.1 35.9 L760.3 35.4 L761.4 34.9 L762.5 34.9 L763.6 34.9 L764.7 34.9 L765.8 34.9 L766.9 34.9 L768.1 34.9 L769.2 33.9 L770.3 33.9 L771.4 33.9 L772.5 33.9 L773.6 33.9 L774.7 33.9 L775.8 33.4 L777 33.4 L778.1 33.4 L779.2 33.4 L780.3 33.4 L781.4 33.4 L782.5 32.9 L783.6 32.9 L784.8 32.9 L785.9 32.9 L787 32.9 L788.1 32.9 L789.2 32.9 L790.3 32.9 L791.4 32.9 L792.6 31.8 L793.7 31.3 L794.8 31.3 L795.9 30.8 L798.1 30.8 L799.2 30.8 L800.4 30.8 L801.5 30.8 L802.6 30.3 L803.7 30.3 L804.8 30.3 L805.9 30.3 L808.2 30.3 L810.4 30.3 L811.5 30.3 L812.6 30.3 L814.8 30.3 L815.9 30.3 L817.1 30.3 L818.2 30.3 L819.3 29.8 L821.5 29.8 L822.6 29.8 L826 29.8 L827.1 29.8 L828.2 29.8 L829.3 29.8 L830.4 29.8 L831.5 29.8 L832.7 29.8 L833.8 29.8 L834.9 28.2 L836 28.7" fill="none" stroke="#06b6d4" stroke-width="3" stroke-linecap="round" stroke-linejoin="round"/>
    <circle cx="836" cy="28.7" r="5" fill="#06b6d4" stroke="#fff" stroke-width="2"/>
    <text x="220" y="116" class="secondary" font-size="10">Jan 15</text>
    <text x="836" y="116" text-anchor="end" class="secondary" font-size="10">Jul 22</text>
  </g>
    <text x="30" y="487" class="secondary" font-size="11">Updated Jul 22, 2026</text>
    <a href="https://github.com/MacRimi/repo-growth" target="_blank" aria-label="Open the Repo Growth project">
      <text x="886" y="487" fill="#8b5cf6" text-anchor="end" font-size="13" font-weight="700">Generated by Repo Growth ↗</text>
    </a>
  </g>
</svg>
