<?xml version="1.0" encoding="UTF-8"?>
<svg xmlns="http://www.w3.org/2000/svg" width="1000" height="740" viewBox="0 0 1000 740" role="img" aria-labelledby="title desc">
  <title id="title">ProxMenux growth for MacRimi/ProxMenux</title>
  <desc id="desc">Repository growth dashboard showing stars, forks over time.</desc>
  <defs>
    <linearGradient id="background" x1="0" y1="0" x2="1" y2="1">
      <stop offset="0" stop-color="#fafafa"/><stop offset="1" stop-color="#f4f4f5"/>
    </linearGradient>
    <linearGradient id="fill-stars" x1="0" y1="0" x2="0" y2="1"><stop offset="0" stop-color="#8b5cf6" stop-opacity=".24"/><stop offset="1" stop-color="#8b5cf6" stop-opacity="0"/></linearGradient><linearGradient id="fill-forks" x1="0" y1="0" x2="0" y2="1"><stop offset="0" stop-color="#06b6d4" stop-opacity=".24"/><stop offset="1" stop-color="#06b6d4" stop-opacity="0"/></linearGradient>
    <filter id="shadow" x="-10%" y="-10%" width="120%" height="130%"><feDropShadow dx="0" dy="8" stdDeviation="14" flood-color="#18181b" flood-opacity=".08"/></filter>
    <style>
      :root { color-scheme: light dark; }
      .bg { fill: url(#background); }
      .surface { fill: #ffffff; stroke: #e4e4e7; }
      .panel { fill: #ffffff; stroke: #e4e4e7; }
      .primary { fill: #18181b; }
      .secondary { fill: #71717a; }
      .grid { stroke: #e4e4e7; }
      text { font-family: Inter, ui-sans-serif, system-ui, -apple-system, BlinkMacSystemFont, "Segoe UI", sans-serif; }
      @media (prefers-color-scheme: dark) {
        .bg { fill: #09090b; }
        .surface, .panel { fill: #111113; stroke: #27272a; }
        .primary { fill: #fafafa; }
        .secondary { fill: #a1a1aa; }
        .grid { stroke: #27272a; }
      }
    </style>
  </defs>
  <rect class="bg" width="1000" height="740" rx="28"/>
  <g transform="translate(42 38)">
    <rect x="0" y="0" width="916" height="664" rx="22" class="surface" filter="url(#shadow)"/>
    <text x="30" y="45" class="primary" font-size="26" font-weight="750" letter-spacing="-.5">ProxMenux growth</text>
    <text x="30" y="70" class="secondary" font-size="14">MacRimi/ProxMenux · Jan 15, 2025 – Jul 23, 2026</text>
    <g transform="translate(740 25)"><rect width="146" height="30" rx="15" fill="#8b5cf6" fill-opacity=".12"/><circle cx="17" cy="15" r="4" fill="#8b5cf6"/><text x="30" y="20" fill="#8b5cf6" font-size="11" font-weight="700" letter-spacing="1">LOCAL HISTORY</text></g>
    <g transform="translate(30 92)">
    <rect width="418" height="86" rx="16" class="panel"/>
    <rect x="16" y="17" width="6" height="52" rx="3" fill="#8b5cf6"/>
    <text x="38" y="34" class="secondary" font-size="12" font-weight="650" letter-spacing=".3">STARS</text>
    <text x="38" y="64" class="primary" font-size="27" font-weight="760" letter-spacing="-.5">2,816</text>
    <text x="392" y="63" text-anchor="end" fill="#8b5cf6" font-size="11" font-weight="650">+2,815 tracked</text>
  </g><g transform="translate(468 92)">
    <rect width="418" height="86" rx="16" class="panel"/>
    <rect x="16" y="17" width="6" height="52" rx="3" fill="#06b6d4"/>
    <text x="38" y="34" class="secondary" font-size="12" font-weight="650" letter-spacing=".3">FORKS</text>
    <text x="38" y="64" class="primary" font-size="27" font-weight="760" letter-spacing="-.5">149</text>
    <text x="392" y="63" text-anchor="end" fill="#06b6d4" font-size="11" font-weight="650">+149 tracked</text>
  </g>
    <g transform="translate(30 197)">
    <rect width="856" height="201" rx="16" class="panel"/>
    <circle cx="20" cy="27" r="5" fill="#8b5cf6"/>
    <text x="34" y="31" class="primary" font-size="14" font-weight="700">Stars</text>
    <text x="20" y="62" class="primary" font-size="20" font-weight="750">2,816</text>
    <text x="20" y="83" class="secondary" font-size="11">range 1–2,816</text>
    <line x1="220" x2="836" y1="20" y2="20" class="grid" stroke-width="1" stroke-dasharray="3 6"/><text x="210" y="24" text-anchor="end" class="secondary" font-size="9">2,816</text><line x1="220" x2="836" y1="95" y2="95" class="grid" stroke-width="1" stroke-dasharray="3 6"/><text x="210" y="99" text-anchor="end" class="secondary" font-size="9">1,409</text><line x1="220" x2="836" y1="170" y2="170" class="grid" stroke-width="1" stroke-dasharray="3 6"/><text x="210" y="174" text-anchor="end" class="secondary" font-size="9">1</text>
    <path d="M220 170 L277.8 169.9 L286.7 169.8 L294.5 169.8 L295.6 169.7 L300.1 169.7 L301.2 169.6 L304.5 169.6 L311.2 169.5 L336.8 169.3 L337.9 169.2 L344.5 169.1 L346.8 169 L347.9 169 L349 168.9 L350.1 168 L351.2 166.9 L352.3 166.8 L353.4 166.6 L354.5 166.5 L355.7 166.4 L357.9 166.3 L359 166.2 L360.1 166 L361.2 166 L362.3 165.2 L363.4 164 L364.5 163.4 L365.7 163.1 L366.8 163 L367.9 162.9 L369 162.7 L373.4 162.6 L374.6 162.4 L375.7 162.3 L377.9 162.1 L379 162 L381.2 161.9 L382.3 161.8 L383.5 161.7 L385.7 161.6 L387.9 161.5 L389 161.3 L392.3 157.2 L393.5 153.6 L394.6 152.1 L395.7 150.1 L396.8 148.4 L397.9 147.1 L399 145.9 L400.1 144.9 L401.2 144.5 L402.4 144 L403.5 143.6 L404.6 143.3 L405.7 143.1 L406.8 142.6 L407.9 142.2 L409 141.6 L410.1 141 L411.2 140.5 L412.4 139.8 L413.5 139.4 L414.6 139.3 L415.7 138.9 L416.8 138.6 L417.9 138.2 L419 138 L421.3 137.7 L422.4 137.3 L423.5 137.2 L424.6 137.1 L425.7 136.9 L426.8 136.7 L427.9 136.6 L429 136.3 L430.2 136 L431.3 135.7 L432.4 135.3 L433.5 135.2 L434.6 135 L435.7 134.8 L436.8 134.6 L437.9 134.4 L439 134.2 L440.2 134 L441.3 133.8 L442.4 133.7 L443.5 133.4 L444.6 133.3 L445.7 133.2 L446.8 133 L447.9 133 L449.1 132.6 L450.2 132.2 L451.3 131.7 L452.4 131.6 L453.5 131.3 L454.6 131 L455.7 130.7 L457.9 130.5 L459.1 130.2 L460.2 130 L461.3 129.9 L462.4 129.5 L463.5 129.2 L464.6 129.1 L465.7 129 L466.8 129 L468 128.8 L469.1 128.8 L470.2 128.6 L471.3 128.3 L472.4 128.1 L473.5 128 L474.6 128 L475.7 127.8 L479.1 127.4 L480.2 127.4 L481.3 127.2 L482.4 126.9 L484.6 126.9 L485.7 126.4 L486.9 126.3 L488 125.9 L489.1 125.5 L490.2 125.1 L491.3 125.1 L492.4 125 L493.5 124.8 L494.6 124.5 L495.8 124.3 L496.9 124.1 L498 123.9 L499.1 123.7 L500.2 123.2 L501.3 122.9 L502.4 122.8 L503.5 122.4 L504.6 121.9 L505.8 121.3 L506.9 121.1 L508 120.7 L509.1 120.5 L511.3 120.2 L512.4 120.1 L513.5 120 L514.7 119.6 L515.8 119.3 L516.9 119 L519.1 118.5 L521.3 118.2 L522.4 117.9 L523.6 117.7 L524.7 117.6 L525.8 117.4 L526.9 117.2 L528 117.1 L529.1 116.9 L530.2 116.9 L531.3 116.7 L532.4 116.4 L533.6 116.2 L534.7 116 L535.8 115.9 L536.9 115.5 L538 115.3 L539.1 115.1 L540.2 114.6 L541.3 114.1 L542.5 113.5 L543.6 112.3 L544.7 111.2 L545.8 110.4 L546.9 109.6 L548 109 L549.1 107.4 L550.2 103.2 L551.4 100.4 L552.5 98.9 L553.6 98.4 L554.7 97.6 L555.8 96.9 L556.9 94.9 L558 92.9 L559.1 91.2 L560.2 90.6 L561.4 89.2 L562.5 88.5 L563.6 87.7 L564.7 86.9 L565.8 86.1 L566.9 85.5 L568 84.2 L569.1 83.8 L570.3 82.6 L571.4 82.3 L572.5 82.1 L573.6 81.5 L574.7 80.9 L575.8 80.3 L576.9 79.9 L578 79.6 L579.1 79 L580.3 78.4 L581.4 77.9 L582.5 74.9 L583.6 73.6 L584.7 72.6 L585.8 71.8 L586.9 71.3 L588 70.7 L589.2 70.1 L590.3 69.6 L591.4 69.2 L592.5 68.9 L593.6 68.7 L594.7 68.4 L595.8 67.9 L596.9 67.6 L598.1 66.9 L599.2 66.7 L600.3 66.5 L601.4 66.1 L602.5 65.9 L603.6 65.4 L604.7 65.1 L605.8 64.2 L606.9 63.9 L608.1 63.5 L609.2 63.4 L610.3 63.1 L611.4 62.6 L612.5 62.5 L613.6 62 L614.7 61.6 L615.8 61.4 L617 61.1 L618.1 60.8 L619.2 60.5 L620.3 60.2 L621.4 60.1 L622.5 59.8 L623.6 59.3 L624.7 59.1 L625.8 58.9 L627 58 L628.1 57.2 L629.2 56.9 L630.3 56.7 L631.4 56.3 L632.5 56.1 L633.6 55.8 L634.7 55.4 L635.9 55.3 L637 55.1 L638.1 54.9 L639.2 54.6 L640.3 53.9 L641.4 53.6 L642.5 53.1 L643.6 52.7 L644.8 52.5 L645.9 52 L647 51.7 L648.1 51.5 L649.2 51.4 L650.3 51.2 L651.4 50.9 L652.5 50.8 L653.6 50.6 L654.8 50.2 L655.9 48.1 L657 47.2 L658.1 46.2 L659.2 45.7 L660.3 45.3 L661.4 44.7 L662.5 44 L663.7 43.6 L664.8 43.1 L665.9 42.7 L667 42.6 L668.1 42.1 L669.2 41.7 L670.3 41.5 L671.4 41.3 L672.5 41 L673.7 40.7 L674.8 40.3 L675.9 39.9 L677 39.8 L678.1 39.6 L679.2 39.2 L680.3 39.1 L681.4 39 L682.6 38.8 L683.7 38.7 L684.8 38.6 L685.9 38.5 L687 38.4 L688.1 38.2 L689.2 38.1 L690.3 38.1 L691.5 37.9 L692.6 37.6 L693.7 37.3 L694.8 37.3 L695.9 37.1 L697 37 L698.1 36.5 L699.2 36.3 L700.3 35.9 L701.5 35.8 L702.6 35.4 L703.7 35.2 L704.8 35.1 L705.9 35 L707 34.8 L708.1 34.5 L709.2 34.3 L710.4 34.2 L711.5 34 L712.6 33.9 L713.7 33.7 L714.8 33.6 L715.9 33.4 L717 33.4 L720.4 33.3 L721.5 33 L723.7 32.9 L724.8 32.8 L727 32.7 L728.1 32.6 L729.3 32.2 L730.4 32 L731.5 31.8 L732.6 31.6 L733.7 31.5 L734.8 31.1 L735.9 31.1 L737 31 L739.3 30.8 L740.4 30.8 L741.5 30.7 L742.6 30.7 L743.7 30.5 L744.8 30.4 L745.9 30.3 L747 30.2 L749.3 30.1 L750.4 29.9 L751.5 29.8 L752.6 29.6 L753.7 29.3 L755.9 29.3 L757.1 29.2 L758.2 28.9 L759.3 28.7 L760.4 28.6 L761.5 28.4 L762.6 28.3 L763.7 28.2 L764.8 28 L765.9 27.8 L767.1 27.6 L768.2 27.3 L769.3 27.2 L770.4 27.1 L771.5 26.9 L772.6 26.8 L773.7 26.7 L774.8 26.6 L776 26.5 L777.1 26.4 L778.2 26.3 L779.3 26.1 L780.4 25.9 L781.5 25.8 L782.6 25.7 L783.7 25.6 L784.9 25.5 L786 25.4 L787.1 25.3 L788.2 25.1 L789.3 25.1 L790.4 25 L791.5 25 L792.6 24.8 L793.7 24.6 L794.9 24.6 L797.1 24.5 L798.2 24.4 L799.3 24.3 L800.4 24.2 L801.5 24.2 L802.6 24 L803.8 23.9 L804.9 23.8 L807.1 23.6 L809.3 23.5 L810.4 23.4 L811.5 23.2 L813.8 23.1 L814.9 23 L816 22.9 L817.1 22.7 L818.2 22.7 L820.4 22.5 L821.5 22.3 L824.9 22.3 L826 22 L827.1 21.9 L828.2 21.8 L829.3 21.8 L830.4 21.7 L831.6 21.6 L832.7 21.1 L833.8 20.3 L834.9 20.2 L836 20 L836 170 L220 170 Z" fill="url(#fill-stars)"/>
    <path d="M220 170 L277.8 169.9 L286.7 169.8 L294.5 169.8 L295.6 169.7 L300.1 169.7 L301.2 169.6 L304.5 169.6 L311.2 169.5 L336.8 169.3 L337.9 169.2 L344.5 169.1 L346.8 169 L347.9 169 L349 168.9 L350.1 168 L351.2 166.9 L352.3 166.8 L353.4 166.6 L354.5 166.5 L355.7 166.4 L357.9 166.3 L359 166.2 L360.1 166 L361.2 166 L362.3 165.2 L363.4 164 L364.5 163.4 L365.7 163.1 L366.8 163 L367.9 162.9 L369 162.7 L373.4 162.6 L374.6 162.4 L375.7 162.3 L377.9 162.1 L379 162 L381.2 161.9 L382.3 161.8 L383.5 161.7 L385.7 161.6 L387.9 161.5 L389 161.3 L392.3 157.2 L393.5 153.6 L394.6 152.1 L395.7 150.1 L396.8 148.4 L397.9 147.1 L399 145.9 L400.1 144.9 L401.2 144.5 L402.4 144 L403.5 143.6 L404.6 143.3 L405.7 143.1 L406.8 142.6 L407.9 142.2 L409 141.6 L410.1 141 L411.2 140.5 L412.4 139.8 L413.5 139.4 L414.6 139.3 L415.7 138.9 L416.8 138.6 L417.9 138.2 L419 138 L421.3 137.7 L422.4 137.3 L423.5 137.2 L424.6 137.1 L425.7 136.9 L426.8 136.7 L427.9 136.6 L429 136.3 L430.2 136 L431.3 135.7 L432.4 135.3 L433.5 135.2 L434.6 135 L435.7 134.8 L436.8 134.6 L437.9 134.4 L439 134.2 L440.2 134 L441.3 133.8 L442.4 133.7 L443.5 133.4 L444.6 133.3 L445.7 133.2 L446.8 133 L447.9 133 L449.1 132.6 L450.2 132.2 L451.3 131.7 L452.4 131.6 L453.5 131.3 L454.6 131 L455.7 130.7 L457.9 130.5 L459.1 130.2 L460.2 130 L461.3 129.9 L462.4 129.5 L463.5 129.2 L464.6 129.1 L465.7 129 L466.8 129 L468 128.8 L469.1 128.8 L470.2 128.6 L471.3 128.3 L472.4 128.1 L473.5 128 L474.6 128 L475.7 127.8 L479.1 127.4 L480.2 127.4 L481.3 127.2 L482.4 126.9 L484.6 126.9 L485.7 126.4 L486.9 126.3 L488 125.9 L489.1 125.5 L490.2 125.1 L491.3 125.1 L492.4 125 L493.5 124.8 L494.6 124.5 L495.8 124.3 L496.9 124.1 L498 123.9 L499.1 123.7 L500.2 123.2 L501.3 122.9 L502.4 122.8 L503.5 122.4 L504.6 121.9 L505.8 121.3 L506.9 121.1 L508 120.7 L509.1 120.5 L511.3 120.2 L512.4 120.1 L513.5 120 L514.7 119.6 L515.8 119.3 L516.9 119 L519.1 118.5 L521.3 118.2 L522.4 117.9 L523.6 117.7 L524.7 117.6 L525.8 117.4 L526.9 117.2 L528 117.1 L529.1 116.9 L530.2 116.9 L531.3 116.7 L532.4 116.4 L533.6 116.2 L534.7 116 L535.8 115.9 L536.9 115.5 L538 115.3 L539.1 115.1 L540.2 114.6 L541.3 114.1 L542.5 113.5 L543.6 112.3 L544.7 111.2 L545.8 110.4 L546.9 109.6 L548 109 L549.1 107.4 L550.2 103.2 L551.4 100.4 L552.5 98.9 L553.6 98.4 L554.7 97.6 L555.8 96.9 L556.9 94.9 L558 92.9 L559.1 91.2 L560.2 90.6 L561.4 89.2 L562.5 88.5 L563.6 87.7 L564.7 86.9 L565.8 86.1 L566.9 85.5 L568 84.2 L569.1 83.8 L570.3 82.6 L571.4 82.3 L572.5 82.1 L573.6 81.5 L574.7 80.9 L575.8 80.3 L576.9 79.9 L578 79.6 L579.1 79 L580.3 78.4 L581.4 77.9 L582.5 74.9 L583.6 73.6 L584.7 72.6 L585.8 71.8 L586.9 71.3 L588 70.7 L589.2 70.1 L590.3 69.6 L591.4 69.2 L592.5 68.9 L593.6 68.7 L594.7 68.4 L595.8 67.9 L596.9 67.6 L598.1 66.9 L599.2 66.7 L600.3 66.5 L601.4 66.1 L602.5 65.9 L603.6 65.4 L604.7 65.1 L605.8 64.2 L606.9 63.9 L608.1 63.5 L609.2 63.4 L610.3 63.1 L611.4 62.6 L612.5 62.5 L613.6 62 L614.7 61.6 L615.8 61.4 L617 61.1 L618.1 60.8 L619.2 60.5 L620.3 60.2 L621.4 60.1 L622.5 59.8 L623.6 59.3 L624.7 59.1 L625.8 58.9 L627 58 L628.1 57.2 L629.2 56.9 L630.3 56.7 L631.4 56.3 L632.5 56.1 L633.6 55.8 L634.7 55.4 L635.9 55.3 L637 55.1 L638.1 54.9 L639.2 54.6 L640.3 53.9 L641.4 53.6 L642.5 53.1 L643.6 52.7 L644.8 52.5 L645.9 52 L647 51.7 L648.1 51.5 L649.2 51.4 L650.3 51.2 L651.4 50.9 L652.5 50.8 L653.6 50.6 L654.8 50.2 L655.9 48.1 L657 47.2 L658.1 46.2 L659.2 45.7 L660.3 45.3 L661.4 44.7 L662.5 44 L663.7 43.6 L664.8 43.1 L665.9 42.7 L667 42.6 L668.1 42.1 L669.2 41.7 L670.3 41.5 L671.4 41.3 L672.5 41 L673.7 40.7 L674.8 40.3 L675.9 39.9 L677 39.8 L678.1 39.6 L679.2 39.2 L680.3 39.1 L681.4 39 L682.6 38.8 L683.7 38.7 L684.8 38.6 L685.9 38.5 L687 38.4 L688.1 38.2 L689.2 38.1 L690.3 38.1 L691.5 37.9 L692.6 37.6 L693.7 37.3 L694.8 37.3 L695.9 37.1 L697 37 L698.1 36.5 L699.2 36.3 L700.3 35.9 L701.5 35.8 L702.6 35.4 L703.7 35.2 L704.8 35.1 L705.9 35 L707 34.8 L708.1 34.5 L709.2 34.3 L710.4 34.2 L711.5 34 L712.6 33.9 L713.7 33.7 L714.8 33.6 L715.9 33.4 L717 33.4 L720.4 33.3 L721.5 33 L723.7 32.9 L724.8 32.8 L727 32.7 L728.1 32.6 L729.3 32.2 L730.4 32 L731.5 31.8 L732.6 31.6 L733.7 31.5 L734.8 31.1 L735.9 31.1 L737 31 L739.3 30.8 L740.4 30.8 L741.5 30.7 L742.6 30.7 L743.7 30.5 L744.8 30.4 L745.9 30.3 L747 30.2 L749.3 30.1 L750.4 29.9 L751.5 29.8 L752.6 29.6 L753.7 29.3 L755.9 29.3 L757.1 29.2 L758.2 28.9 L759.3 28.7 L760.4 28.6 L761.5 28.4 L762.6 28.3 L763.7 28.2 L764.8 28 L765.9 27.8 L767.1 27.6 L768.2 27.3 L769.3 27.2 L770.4 27.1 L771.5 26.9 L772.6 26.8 L773.7 26.7 L774.8 26.6 L776 26.5 L777.1 26.4 L778.2 26.3 L779.3 26.1 L780.4 25.9 L781.5 25.8 L782.6 25.7 L783.7 25.6 L784.9 25.5 L786 25.4 L787.1 25.3 L788.2 25.1 L789.3 25.1 L790.4 25 L791.5 25 L792.6 24.8 L793.7 24.6 L794.9 24.6 L797.1 24.5 L798.2 24.4 L799.3 24.3 L800.4 24.2 L801.5 24.2 L802.6 24 L803.8 23.9 L804.9 23.8 L807.1 23.6 L809.3 23.5 L810.4 23.4 L811.5 23.2 L813.8 23.1 L814.9 23 L816 22.9 L817.1 22.7 L818.2 22.7 L820.4 22.5 L821.5 22.3 L824.9 22.3 L826 22 L827.1 21.9 L828.2 21.8 L829.3 21.8 L830.4 21.7 L831.6 21.6 L832.7 21.1 L833.8 20.3 L834.9 20.2 L836 20" fill="none" stroke="#8b5cf6" stroke-width="3" stroke-linecap="round" stroke-linejoin="round"/>
    <circle cx="836" cy="20" r="5" fill="#8b5cf6" stroke="#fff" stroke-width="2"/>
    <text x="220" y="194" text-anchor="start" class="secondary" font-size="9">Jan 15, 2025</text><text x="528" y="194" text-anchor="middle" class="secondary" font-size="9">Oct 19, 2025</text><text x="836" y="194" text-anchor="end" class="secondary" font-size="9">Jul 23, 2026</text>
  </g><g transform="translate(30 414)">
    <rect width="856" height="201" rx="16" class="panel"/>
    <circle cx="20" cy="27" r="5" fill="#06b6d4"/>
    <text x="34" y="31" class="primary" font-size="14" font-weight="700">Forks</text>
    <text x="20" y="62" class="primary" font-size="20" font-weight="750">149</text>
    <text x="20" y="83" class="secondary" font-size="11">range 0–149</text>
    <line x1="220" x2="836" y1="20" y2="20" class="grid" stroke-width="1" stroke-dasharray="3 6"/><text x="210" y="24" text-anchor="end" class="secondary" font-size="9">149</text><line x1="220" x2="836" y1="95" y2="95" class="grid" stroke-width="1" stroke-dasharray="3 6"/><text x="210" y="99" text-anchor="end" class="secondary" font-size="9">75</text><line x1="220" x2="836" y1="170" y2="170" class="grid" stroke-width="1" stroke-dasharray="3 6"/><text x="210" y="174" text-anchor="end" class="secondary" font-size="9">0</text>
    <path d="M220 170 L277.8 170 L286.7 170 L294.5 170 L295.6 170 L300.1 170 L301.2 170 L304.5 170 L311.2 170 L336.8 170 L337.9 169 L344.5 169 L346.8 169 L347.9 169 L349 169 L350.1 169 L351.2 169 L352.3 169 L353.4 168 L354.5 168 L355.7 168 L357.9 168 L359 168 L360.1 167 L361.2 166 L362.3 166 L363.4 165 L364.5 165 L365.7 165 L366.8 165 L367.9 165 L369 165 L373.4 165 L374.6 165 L375.7 165 L377.9 165 L379 165 L381.2 165 L382.3 165 L383.5 164 L385.7 163 L387.9 163 L389 163 L392.3 158.9 L393.5 153.9 L394.6 150.9 L395.7 148.9 L396.8 147.9 L397.9 147.9 L399 146.8 L400.1 144.8 L401.2 143.8 L402.4 143.8 L403.5 143.8 L404.6 143.8 L405.7 143.8 L406.8 143.8 L407.9 143.8 L409 142.8 L410.1 142.8 L411.2 141.8 L412.4 139.8 L413.5 137.8 L414.6 135.8 L415.7 135.8 L416.8 135.8 L417.9 134.8 L419 134.8 L421.3 133.8 L422.4 132.8 L423.5 132.8 L424.6 132.8 L425.7 131.7 L426.8 130.7 L427.9 130.7 L429 130.7 L430.2 130.7 L431.3 130.7 L432.4 130.7 L433.5 130.7 L434.6 130.7 L435.7 129.7 L436.8 129.7 L437.9 129.7 L439 128.7 L440.2 128.7 L441.3 128.7 L442.4 128.7 L443.5 128.7 L444.6 128.7 L445.7 127.7 L446.8 127.7 L447.9 127.7 L449.1 127.7 L450.2 127.7 L451.3 127.7 L452.4 127.7 L453.5 127.7 L454.6 127.7 L455.7 127.7 L457.9 127.7 L459.1 127.7 L460.2 127.7 L461.3 127.7 L462.4 127.7 L463.5 126.7 L464.6 126.7 L465.7 125.7 L466.8 125.7 L468 124.7 L469.1 124.7 L470.2 124.7 L471.3 124.7 L472.4 123.7 L473.5 123.7 L474.6 122.7 L475.7 122.7 L479.1 121.7 L480.2 121.7 L481.3 121.7 L482.4 121.7 L484.6 121.7 L485.7 120.7 L486.9 120.7 L488 120.7 L489.1 120.7 L490.2 119.7 L491.3 119.7 L492.4 119.7 L493.5 118.7 L494.6 118.7 L495.8 117.7 L496.9 117.7 L498 117.7 L499.1 117.7 L500.2 116.6 L501.3 116.6 L502.4 116.6 L503.5 116.6 L504.6 116.6 L505.8 116.6 L506.9 116.6 L508 116.6 L509.1 116.6 L511.3 115.6 L512.4 115.6 L513.5 115.6 L514.7 115.6 L515.8 115.6 L516.9 115.6 L519.1 115.6 L521.3 114.6 L522.4 113.6 L523.6 112.6 L524.7 112.6 L525.8 112.6 L526.9 112.6 L528 112.6 L529.1 112.6 L530.2 110.6 L531.3 110.6 L532.4 109.6 L533.6 109.6 L534.7 108.6 L535.8 108.6 L536.9 107.6 L538 107.6 L539.1 107.6 L540.2 107.6 L541.3 106.6 L542.5 106.6 L543.6 106.6 L544.7 105.6 L545.8 105.6 L546.9 105.6 L548 104.6 L549.1 103.6 L550.2 102.6 L551.4 100.5 L552.5 98.5 L553.6 97.5 L554.7 97.5 L555.8 96.5 L556.9 96.5 L558 96.5 L559.1 95.5 L560.2 94.5 L561.4 92.5 L562.5 90.5 L563.6 89.5 L564.7 89.5 L565.8 89.5 L566.9 88.5 L568 86.4 L569.1 86.4 L570.3 85.4 L571.4 83.4 L572.5 83.4 L573.6 83.4 L574.7 83.4 L575.8 82.4 L576.9 81.4 L578 81.4 L579.1 81.4 L580.3 78.4 L581.4 78.4 L582.5 77.4 L583.6 76.4 L584.7 75.4 L585.8 75.4 L586.9 74.4 L588 74.4 L589.2 74.4 L590.3 74.4 L591.4 74.4 L592.5 73.4 L593.6 73.4 L594.7 73.4 L595.8 73.4 L596.9 71.3 L598.1 71.3 L599.2 70.3 L600.3 70.3 L601.4 70.3 L602.5 70.3 L603.6 70.3 L604.7 70.3 L605.8 69.3 L606.9 68.3 L608.1 68.3 L609.2 68.3 L610.3 68.3 L611.4 68.3 L612.5 66.3 L613.6 66.3 L614.7 66.3 L615.8 66.3 L617 66.3 L618.1 65.3 L619.2 64.3 L620.3 63.3 L621.4 63.3 L622.5 62.3 L623.6 62.3 L624.7 62.3 L625.8 62.3 L627 62.3 L628.1 62.3 L629.2 62.3 L630.3 62.3 L631.4 62.3 L632.5 62.3 L633.6 62.3 L634.7 62.3 L635.9 62.3 L637 62.3 L638.1 62.3 L639.2 62.3 L640.3 61.3 L641.4 61.3 L642.5 61.3 L643.6 61.3 L644.8 60.3 L645.9 60.3 L647 58.3 L648.1 58.3 L649.2 58.3 L650.3 58.3 L651.4 57.2 L652.5 57.2 L653.6 57.2 L654.8 57.2 L655.9 57.2 L657 56.2 L658.1 53.2 L659.2 53.2 L660.3 52.2 L661.4 52.2 L662.5 51.2 L663.7 51.2 L664.8 51.2 L665.9 51.2 L667 51.2 L668.1 51.2 L669.2 51.2 L670.3 51.2 L671.4 51.2 L672.5 50.2 L673.7 49.2 L674.8 49.2 L675.9 49.2 L677 49.2 L678.1 49.2 L679.2 48.2 L680.3 48.2 L681.4 48.2 L682.6 47.2 L683.7 47.2 L684.8 47.2 L685.9 47.2 L687 47.2 L688.1 47.2 L689.2 47.2 L690.3 47.2 L691.5 47.2 L692.6 47.2 L693.7 47.2 L694.8 47.2 L695.9 47.2 L697 47.2 L698.1 47.2 L699.2 47.2 L700.3 47.2 L701.5 47.2 L702.6 47.2 L703.7 47.2 L704.8 47.2 L705.9 47.2 L707 47.2 L708.1 47.2 L709.2 47.2 L710.4 47.2 L711.5 47.2 L712.6 47.2 L713.7 47.2 L714.8 47.2 L715.9 47.2 L717 47.2 L720.4 47.2 L721.5 47.2 L723.7 47.2 L724.8 46.2 L727 46.2 L728.1 45.2 L729.3 44.2 L730.4 44.2 L731.5 44.2 L732.6 44.2 L733.7 44.2 L734.8 44.2 L735.9 43.2 L737 42.1 L739.3 42.1 L740.4 40.1 L741.5 40.1 L742.6 39.1 L743.7 39.1 L744.8 37.1 L745.9 37.1 L747 37.1 L749.3 37.1 L750.4 37.1 L751.5 37.1 L752.6 37.1 L753.7 36.1 L755.9 36.1 L757.1 36.1 L758.2 35.1 L759.3 34.1 L760.4 33.1 L761.5 33.1 L762.6 33.1 L763.7 33.1 L764.8 33.1 L765.9 33.1 L767.1 33.1 L768.2 31.1 L769.3 31.1 L770.4 31.1 L771.5 31.1 L772.6 31.1 L773.7 31.1 L774.8 30.1 L776 30.1 L777.1 30.1 L778.2 30.1 L779.3 30.1 L780.4 30.1 L781.5 29.1 L782.6 29.1 L783.7 29.1 L784.9 29.1 L786 29.1 L787.1 29.1 L788.2 29.1 L789.3 29.1 L790.4 29.1 L791.5 27 L792.6 26 L793.7 26 L794.9 25 L797.1 25 L798.2 25 L799.3 25 L800.4 25 L801.5 24 L802.6 24 L803.8 24 L804.9 24 L807.1 24 L809.3 24 L810.4 24 L811.5 24 L813.8 24 L814.9 24 L816 24 L817.1 24 L818.2 23 L820.4 23 L821.5 23 L824.9 23 L826 23 L827.1 23 L828.2 23 L829.3 23 L830.4 23 L831.6 23 L832.7 23 L833.8 20 L834.9 21 L836 20 L836 170 L220 170 Z" fill="url(#fill-forks)"/>
    <path d="M220 170 L277.8 170 L286.7 170 L294.5 170 L295.6 170 L300.1 170 L301.2 170 L304.5 170 L311.2 170 L336.8 170 L337.9 169 L344.5 169 L346.8 169 L347.9 169 L349 169 L350.1 169 L351.2 169 L352.3 169 L353.4 168 L354.5 168 L355.7 168 L357.9 168 L359 168 L360.1 167 L361.2 166 L362.3 166 L363.4 165 L364.5 165 L365.7 165 L366.8 165 L367.9 165 L369 165 L373.4 165 L374.6 165 L375.7 165 L377.9 165 L379 165 L381.2 165 L382.3 165 L383.5 164 L385.7 163 L387.9 163 L389 163 L392.3 158.9 L393.5 153.9 L394.6 150.9 L395.7 148.9 L396.8 147.9 L397.9 147.9 L399 146.8 L400.1 144.8 L401.2 143.8 L402.4 143.8 L403.5 143.8 L404.6 143.8 L405.7 143.8 L406.8 143.8 L407.9 143.8 L409 142.8 L410.1 142.8 L411.2 141.8 L412.4 139.8 L413.5 137.8 L414.6 135.8 L415.7 135.8 L416.8 135.8 L417.9 134.8 L419 134.8 L421.3 133.8 L422.4 132.8 L423.5 132.8 L424.6 132.8 L425.7 131.7 L426.8 130.7 L427.9 130.7 L429 130.7 L430.2 130.7 L431.3 130.7 L432.4 130.7 L433.5 130.7 L434.6 130.7 L435.7 129.7 L436.8 129.7 L437.9 129.7 L439 128.7 L440.2 128.7 L441.3 128.7 L442.4 128.7 L443.5 128.7 L444.6 128.7 L445.7 127.7 L446.8 127.7 L447.9 127.7 L449.1 127.7 L450.2 127.7 L451.3 127.7 L452.4 127.7 L453.5 127.7 L454.6 127.7 L455.7 127.7 L457.9 127.7 L459.1 127.7 L460.2 127.7 L461.3 127.7 L462.4 127.7 L463.5 126.7 L464.6 126.7 L465.7 125.7 L466.8 125.7 L468 124.7 L469.1 124.7 L470.2 124.7 L471.3 124.7 L472.4 123.7 L473.5 123.7 L474.6 122.7 L475.7 122.7 L479.1 121.7 L480.2 121.7 L481.3 121.7 L482.4 121.7 L484.6 121.7 L485.7 120.7 L486.9 120.7 L488 120.7 L489.1 120.7 L490.2 119.7 L491.3 119.7 L492.4 119.7 L493.5 118.7 L494.6 118.7 L495.8 117.7 L496.9 117.7 L498 117.7 L499.1 117.7 L500.2 116.6 L501.3 116.6 L502.4 116.6 L503.5 116.6 L504.6 116.6 L505.8 116.6 L506.9 116.6 L508 116.6 L509.1 116.6 L511.3 115.6 L512.4 115.6 L513.5 115.6 L514.7 115.6 L515.8 115.6 L516.9 115.6 L519.1 115.6 L521.3 114.6 L522.4 113.6 L523.6 112.6 L524.7 112.6 L525.8 112.6 L526.9 112.6 L528 112.6 L529.1 112.6 L530.2 110.6 L531.3 110.6 L532.4 109.6 L533.6 109.6 L534.7 108.6 L535.8 108.6 L536.9 107.6 L538 107.6 L539.1 107.6 L540.2 107.6 L541.3 106.6 L542.5 106.6 L543.6 106.6 L544.7 105.6 L545.8 105.6 L546.9 105.6 L548 104.6 L549.1 103.6 L550.2 102.6 L551.4 100.5 L552.5 98.5 L553.6 97.5 L554.7 97.5 L555.8 96.5 L556.9 96.5 L558 96.5 L559.1 95.5 L560.2 94.5 L561.4 92.5 L562.5 90.5 L563.6 89.5 L564.7 89.5 L565.8 89.5 L566.9 88.5 L568 86.4 L569.1 86.4 L570.3 85.4 L571.4 83.4 L572.5 83.4 L573.6 83.4 L574.7 83.4 L575.8 82.4 L576.9 81.4 L578 81.4 L579.1 81.4 L580.3 78.4 L581.4 78.4 L582.5 77.4 L583.6 76.4 L584.7 75.4 L585.8 75.4 L586.9 74.4 L588 74.4 L589.2 74.4 L590.3 74.4 L591.4 74.4 L592.5 73.4 L593.6 73.4 L594.7 73.4 L595.8 73.4 L596.9 71.3 L598.1 71.3 L599.2 70.3 L600.3 70.3 L601.4 70.3 L602.5 70.3 L603.6 70.3 L604.7 70.3 L605.8 69.3 L606.9 68.3 L608.1 68.3 L609.2 68.3 L610.3 68.3 L611.4 68.3 L612.5 66.3 L613.6 66.3 L614.7 66.3 L615.8 66.3 L617 66.3 L618.1 65.3 L619.2 64.3 L620.3 63.3 L621.4 63.3 L622.5 62.3 L623.6 62.3 L624.7 62.3 L625.8 62.3 L627 62.3 L628.1 62.3 L629.2 62.3 L630.3 62.3 L631.4 62.3 L632.5 62.3 L633.6 62.3 L634.7 62.3 L635.9 62.3 L637 62.3 L638.1 62.3 L639.2 62.3 L640.3 61.3 L641.4 61.3 L642.5 61.3 L643.6 61.3 L644.8 60.3 L645.9 60.3 L647 58.3 L648.1 58.3 L649.2 58.3 L650.3 58.3 L651.4 57.2 L652.5 57.2 L653.6 57.2 L654.8 57.2 L655.9 57.2 L657 56.2 L658.1 53.2 L659.2 53.2 L660.3 52.2 L661.4 52.2 L662.5 51.2 L663.7 51.2 L664.8 51.2 L665.9 51.2 L667 51.2 L668.1 51.2 L669.2 51.2 L670.3 51.2 L671.4 51.2 L672.5 50.2 L673.7 49.2 L674.8 49.2 L675.9 49.2 L677 49.2 L678.1 49.2 L679.2 48.2 L680.3 48.2 L681.4 48.2 L682.6 47.2 L683.7 47.2 L684.8 47.2 L685.9 47.2 L687 47.2 L688.1 47.2 L689.2 47.2 L690.3 47.2 L691.5 47.2 L692.6 47.2 L693.7 47.2 L694.8 47.2 L695.9 47.2 L697 47.2 L698.1 47.2 L699.2 47.2 L700.3 47.2 L701.5 47.2 L702.6 47.2 L703.7 47.2 L704.8 47.2 L705.9 47.2 L707 47.2 L708.1 47.2 L709.2 47.2 L710.4 47.2 L711.5 47.2 L712.6 47.2 L713.7 47.2 L714.8 47.2 L715.9 47.2 L717 47.2 L720.4 47.2 L721.5 47.2 L723.7 47.2 L724.8 46.2 L727 46.2 L728.1 45.2 L729.3 44.2 L730.4 44.2 L731.5 44.2 L732.6 44.2 L733.7 44.2 L734.8 44.2 L735.9 43.2 L737 42.1 L739.3 42.1 L740.4 40.1 L741.5 40.1 L742.6 39.1 L743.7 39.1 L744.8 37.1 L745.9 37.1 L747 37.1 L749.3 37.1 L750.4 37.1 L751.5 37.1 L752.6 37.1 L753.7 36.1 L755.9 36.1 L757.1 36.1 L758.2 35.1 L759.3 34.1 L760.4 33.1 L761.5 33.1 L762.6 33.1 L763.7 33.1 L764.8 33.1 L765.9 33.1 L767.1 33.1 L768.2 31.1 L769.3 31.1 L770.4 31.1 L771.5 31.1 L772.6 31.1 L773.7 31.1 L774.8 30.1 L776 30.1 L777.1 30.1 L778.2 30.1 L779.3 30.1 L780.4 30.1 L781.5 29.1 L782.6 29.1 L783.7 29.1 L784.9 29.1 L786 29.1 L787.1 29.1 L788.2 29.1 L789.3 29.1 L790.4 29.1 L791.5 27 L792.6 26 L793.7 26 L794.9 25 L797.1 25 L798.2 25 L799.3 25 L800.4 25 L801.5 24 L802.6 24 L803.8 24 L804.9 24 L807.1 24 L809.3 24 L810.4 24 L811.5 24 L813.8 24 L814.9 24 L816 24 L817.1 24 L818.2 23 L820.4 23 L821.5 23 L824.9 23 L826 23 L827.1 23 L828.2 23 L829.3 23 L830.4 23 L831.6 23 L832.7 23 L833.8 20 L834.9 21 L836 20" fill="none" stroke="#06b6d4" stroke-width="3" stroke-linecap="round" stroke-linejoin="round"/>
    <circle cx="836" cy="20" r="5" fill="#06b6d4" stroke="#fff" stroke-width="2"/>
    <text x="220" y="194" text-anchor="start" class="secondary" font-size="9">Jan 15, 2025</text><text x="528" y="194" text-anchor="middle" class="secondary" font-size="9">Oct 19, 2025</text><text x="836" y="194" text-anchor="end" class="secondary" font-size="9">Jul 23, 2026</text>
  </g>
    <text x="30" y="645" class="secondary" font-size="11">Updated Jul 23, 2026</text>
    <a href="https://github.com/MacRimi/repo-growth" target="_blank" aria-label="Open the Repo Growth project">
      <text x="886" y="645" fill="#8b5cf6" text-anchor="end" font-size="13" font-weight="700">Generated by Repo Growth ↗</text>
    </a>
  </g>
</svg>
